<svg xmlns="http://www.w3.org/2000/svg" width="24" height="24" viewBox="0 0 24 24" fill="none">
    <path d="M6.6163 16.1197L5.71522 15.1498L5.75017 16.4732C5.82913 19.4624 8.67292 21.75 12 21.75C15.3271 21.75 18.1709 19.4624 18.2498 16.4732L18.285 15.1421L17.3824 16.1211C16.1902 17.4142 14.2709 18.25 12 18.25C9.73025 18.25 7.81966 17.4149 6.6163 16.1197ZM12 22.25C8.21578 22.25 5.25 19.5472 5.25 16.35V12.65C5.25 12.5162 5.36614 12.4 5.5 12.4C5.63386 12.4 5.75 12.5162 5.75 12.65C5.75 15.6443 8.55343 17.75 12 17.75C15.4466 17.75 18.25 15.6443 18.25 12.65C18.25 12.5162 18.3661 12.4 18.5 12.4C18.6339 12.4 18.75 12.5162 18.75 12.65V16.35C18.75 19.5472 15.7842 22.25 12 22.25Z" fill="#292D32" stroke="#006AF5"/>
    <path d="M5.9765 10.2491L5.97779 10.2512C7.07888 12.0712 9.37639 13.25 12 13.25C14.6236 13.25 16.921 12.0712 18.0221 10.2513L5.9765 10.2491ZM5.9765 10.2491C5.50493 9.47823 5.25 8.57863 5.25 7.65M5.9765 10.2491L5.25 7.65M5.25 7.65C5.25 6.08658 5.94809 4.59966 7.23957 3.46601M5.25 7.65L7.23957 3.46601M7.23957 3.46601C8.5015 2.36197 10.1918 1.75 12 1.75C13.8062 1.75 15.4875 2.36078 16.7612 3.45667C18.0529 4.60082 18.75 6.08775 18.75 7.65C18.75 8.57721 18.4958 9.46792 18.0222 10.2512L7.23957 3.46601ZM6.40184 9.98825L6.40294 9.99006C7.46588 11.7355 9.63295 12.75 12 12.75C14.3683 12.75 16.5333 11.7248 17.5957 9.99223C18.0368 9.27937 18.25 8.48773 18.25 7.65C18.25 6.21092 17.5961 4.85875 16.43 3.83436L16.43 3.83435L16.4265 3.83135C15.2388 2.80707 13.6704 2.25 12 2.25C10.3308 2.25 8.75059 2.80643 7.56091 3.85358C6.40266 4.85947 5.75 6.21257 5.75 7.65C5.75 8.49251 5.97561 9.28159 6.40184 9.98825Z" fill="#292D32" stroke="#006AF5"/>
    <path d="M16.43 3.83436L16.43 3.83435L16.4265 3.83135C15.2388 2.80707 13.6704 2.25 12 2.25C8.63176 2.25 5.75 4.60192 5.75 7.65V12.65C5.75 15.6442 8.55343 17.75 12 17.75C15.4466 17.75 18.25 15.6442 18.25 12.65V7.65C18.25 6.21092 17.5961 4.85875 16.43 3.83436ZM12 18.25C8.06145 18.25 5.25 15.7762 5.25 12.65V7.65C5.25 4.45287 8.21578 1.75 12 1.75C13.8062 1.75 15.4875 2.36078 16.7612 3.45667C18.0529 4.60082 18.75 6.08775 18.75 7.65V12.65C18.75 15.7762 15.9385 18.25 12 18.25Z" fill="#292D32" stroke="#006AF5"/>
</svg>