<svg width="24" height="24" viewBox="0 0 24 24" fill="none" xmlns="http://www.w3.org/2000/svg">
<path d="M14 2H9C4 2 2 4 2 9V15C2 20 4 22 9 22H15C20 22 22 20 22 15V9.5" stroke="white" stroke-width="1.5" stroke-linecap="round" stroke-linejoin="round"/>
<path d="M17.9145 2.83633L10.099 10.5329C9.90165 10.7303 9.70431 11.1184 9.66484 11.4013L9.38199 13.3816C9.27674 14.0987 9.78325 14.5987 10.5002 14.5L12.4802 14.2171C12.7565 14.1776 13.1446 13.9803 13.3485 13.7829L21.164 6.08631C22.0586 5.19157 22.4796 4.15211 21.164 2.83633C19.8484 1.52055 18.8091 1.9416 17.9145 2.83633Z" stroke="white" stroke-width="1.5" stroke-miterlimit="10" stroke-linecap="round" stroke-linejoin="round"/>
<path d="M17 4C17.3967 5.41492 18.5037 6.52199 19.9246 6.92456" stroke="white" stroke-width="1.2" stroke-miterlimit="10" stroke-linecap="round" stroke-linejoin="round"/>
</svg>
