<svg width="28" height="28" viewBox="0 0 28 28" fill="none" xmlns="http://www.w3.org/2000/svg">
<g id="vuesax/bold/home-2">
<g id="home-2">
<path id="Vector" d="M23.3806 7.95712L16.6606 3.25546C14.8289 1.97212 12.0173 2.04212 10.2556 3.40712L4.4106 7.96879C3.24393 8.87879 2.32227 10.7455 2.32227 12.2155V20.2655C2.32227 23.2405 4.73727 25.6671 7.71227 25.6671H20.2889C23.2639 25.6671 25.6789 23.2521 25.6789 20.2771V12.3671C25.6789 10.7921 24.6639 8.85546 23.3806 7.95712ZM14.8756 21.0005C14.8756 21.4788 14.4789 21.8755 14.0006 21.8755C13.5223 21.8755 13.1256 21.4788 13.1256 21.0005V17.5005C13.1256 17.0221 13.5223 16.6255 14.0006 16.6255C14.4789 16.6255 14.8756 17.0221 14.8756 17.5005V21.0005Z" fill="#006AF5"/>
</g>
</g>
</svg>
