<?xml version="1.0" encoding="UTF-8"?>
<svg width="24px" height="24px" viewBox="0 0 24 24" version="1.1" xmlns="http://www.w3.org/2000/svg" xmlns:xlink="http://www.w3.org/1999/xlink">
    <title>Apple Logo</title>
    <g id="Page-1" stroke="none" stroke-width="1" fill="none" fill-rule="evenodd">
        <g id="apple" transform="translate(3.000000, 2.000000)" fill="#000000" fill-rule="nonzero">
            <path d="M14.9979919,10.4584061 C14.9733008,8.04254854 16.9186341,6.83508055 17.0001626,6.78895366 C15.8733415,5.10758937 14.0624837,4.84514488 13.4323211,4.81954171 C11.8939431,4.67176244 10.4026016,5.72670732 9.62373984,5.72670732 C8.84279024,5.72670732 7.5980813,4.81954171 6.3323935,4.84514488 C4.73300488,4.87121626 3.2416748,5.83417073 2.42269106,7.30721626 C0.73243089,10.3077951 1.97904878,14.7115317 3.59897967,17.069961 C4.40351057,18.2264671 5.35875203,19.5274159 6.58321138,19.4777561 C7.78304878,19.4280963 8.24646992,18.6926764 9.69809756,18.6926764 C11.1497252,18.6926764 11.5868618,19.4777561 12.8321138,19.453083 C14.1140081,19.4280963 14.9432927,18.2762927 15.7236585,17.1197866 C16.6295663,15.8188378 17.0001626,14.5424549 17.0248537,14.4928713 C16.9979919,14.4675159 14.9979919,13.6825 14.9979919,10.4584061 Z" id="Path"></path>
            <path d="M12.2023577,3.15268293 C12.8575854,2.35746341 13.3022602,1.25640244 13.1697154,0.13 C12.2024187,0.170304878 11.0145854,0.76906439 10.333439,1.5642439 C9.72728455,2.26050407 9.18695122,3.38607317 9.34466667,4.48713415 C10.4263577,4.56356097 11.5226423,3.94790244 12.2023577,3.15268293 Z" id="Path"></path>
        </g>
    </g>
</svg> 