<svg xmlns="http://www.w3.org/2000/svg" width="19" height="18" viewBox="0 0 19 18" fill="none">
    <g clip-path="url(#clip0_3348_631)">
        <path d="M8.265 17.91C3.99 17.145 0.75 13.455 0.75 9C0.75 4.05 4.8 0 9.75 0C14.7 0 18.75 4.05 18.75 9C18.75 13.455 15.51 17.145 11.235 17.91L10.74 17.505H8.76L8.265 17.91Z" fill="url(#paint0_linear_3348_631)"/>
        <path d="M13.2596 11.5198L13.6646 8.99977H11.2796V7.24477C11.2796 6.52477 11.5496 5.98477 12.6296 5.98477H13.7996V3.68977C13.1696 3.59977 12.4496 3.50977 11.8196 3.50977C9.74957 3.50977 8.30957 4.76977 8.30957 7.01977V8.99977H6.05957V11.5198H8.30957V17.8648C8.80457 17.9548 9.29957 17.9998 9.79457 17.9998C10.2896 17.9998 10.7846 17.9548 11.2796 17.8648V11.5198H13.2596Z" fill="white"/>
    </g>
    <defs>
        <linearGradient id="paint0_linear_3348_631" x1="9.75045" y1="17.374" x2="9.75045" y2="-0.0033155" gradientUnits="userSpaceOnUse">
            <stop stop-color="#0062E0"/>
            <stop offset="1" stop-color="#19AFFF"/>
        </linearGradient>
        <clipPath id="clip0_3348_631">
            <rect width="18" height="18" fill="white" transform="translate(0.75)"/>
        </clipPath>
    </defs>
</svg>