<svg xmlns="http://www.w3.org/2000/svg" width="19" height="18" viewBox="0 0 19 18" fill="none">
    <path d="M17.1259 9.17493C17.1259 8.52743 17.0723 8.05493 16.9563 7.56494H9.41162V10.4874H13.8402C13.7509 11.2137 13.2688 12.3074 12.1973 13.0424L12.1823 13.1402L14.5678 14.9513L14.733 14.9674C16.2509 13.5937 17.1259 11.5724 17.1259 9.17493Z" fill="#4285F4"/>
    <path d="M9.41098 16.8752C11.5806 16.8752 13.402 16.1751 14.7324 14.9677L12.1967 13.0426C11.5181 13.5064 10.6074 13.8301 9.41098 13.8301C7.28601 13.8301 5.48246 12.4564 4.83954 10.5576L4.7453 10.5655L2.26486 12.4467L2.23242 12.5351C3.55383 15.1076 6.26811 16.8752 9.41098 16.8752Z" fill="#34A853"/>
    <path d="M4.84022 10.5576C4.67059 10.0676 4.57241 9.54257 4.57241 9.0001C4.57241 8.45756 4.67059 7.93258 4.8313 7.44259L4.82681 7.33823L2.31527 5.42676L2.2331 5.46506C1.68848 6.53258 1.37598 7.73135 1.37598 9.0001C1.37598 10.2688 1.68848 11.4676 2.2331 12.5351L4.84022 10.5576Z" fill="#FBBC05"/>
    <path d="M9.41103 4.16998C10.9199 4.16998 11.9378 4.80873 12.5182 5.34251L14.786 3.1725C13.3932 1.90375 11.5806 1.125 9.41103 1.125C6.26814 1.125 3.55384 2.89249 2.23242 5.46497L4.83063 7.44249C5.48248 5.54375 7.28604 4.16998 9.41103 4.16998Z" fill="#EB4335"/>
</svg>