<svg xmlns="http://www.w3.org/2000/svg" width="32" height="32" viewBox="0 0 32 32" fill="none">
  <path d="M2.66699 10.6667C2.66699 5.33333 4.00033 4 9.33366 4H22.667C28.0003 4 29.3337 5.33333 29.3337 10.6667V21.3333C29.3337 26.6667 28.0003 28 22.667 28H9.33366C4.00033 28 2.66699 26.6667 2.66699 21.3333V16.5333" stroke="#292D32" stroke-width="2" stroke-linecap="round" stroke-linejoin="round"/>
  <path d="M18.667 10.667H25.3337" stroke="#292D32" stroke-width="2" stroke-linecap="round" stroke-linejoin="round"/>
  <path d="M20 16H25.3333" stroke="#292D32" stroke-width="2" stroke-linecap="round" stroke-linejoin="round"/>
  <path d="M22.667 21.333H25.3337" stroke="#292D32" stroke-width="2" stroke-linecap="round" stroke-linejoin="round"/>
  <path d="M11.3333 15.0532C12.6661 15.0532 13.7466 13.9727 13.7466 12.6399C13.7466 11.307 12.6661 10.2266 11.3333 10.2266C10.0004 10.2266 8.91992 11.307 8.91992 12.6399C8.91992 13.9727 10.0004 15.0532 11.3333 15.0532Z" stroke="#292D32" stroke-width="2" stroke-linecap="round" stroke-linejoin="round"/>
  <path d="M16.0003 21.7733C15.8137 19.84 14.2803 18.32 12.347 18.1467C11.6803 18.08 11.0003 18.08 10.3203 18.1467C8.38699 18.3333 6.85366 19.84 6.66699 21.7733" stroke="#292D32" stroke-width="2" stroke-linecap="round" stroke-linejoin="round"/>
</svg>