<svg width="24" height="24" viewBox="0 0 24 24" fill="none" xmlns="http://www.w3.org/2000/svg">
    <path fill-rule="evenodd" clip-rule="evenodd" d="M18.3245 4.22429C18.3865 4.16227 18.5193 4.10002 18.7002 4.10002C18.8811 4.10002 19.014 4.16227 19.076 4.22429L19.776 4.92429C19.838 4.9863 19.9002 5.11911 19.9002 5.30002C19.9002 5.48094 19.838 5.61374 19.776 5.67576L18.7002 6.75149L17.2488 5.30002L18.3245 4.22429ZM15.9785 4.87326L17.476 3.37576C17.814 3.03778 18.2811 2.90002 18.7002 2.90002C19.1193 2.90002 19.5865 3.03778 19.9245 3.37576L20.6245 4.07576C20.9625 4.41374 21.1002 4.88094 21.1002 5.30002C21.1002 5.71911 20.9625 6.1863 20.6245 6.52429L19.1245 8.02429C19.1237 8.0251 19.1229 8.02592 19.122 8.02673L8.02449 19.1243L8.00297 19.1458C7.8167 19.3326 7.53651 19.6134 7.11362 19.7612L4.04619 21.0475C3.34484 21.3755 2.62475 20.6554 2.95275 19.9541L4.23909 16.8866C4.38683 16.4637 4.66769 16.1835 4.85441 15.9973L4.87597 15.9757L15.976 4.87575C15.9768 4.87492 15.9776 4.87409 15.9785 4.87326ZM5.72449 16.8243L16.4002 6.14854L17.8517 7.60001L7.17596 18.2757C6.96528 18.4864 6.85754 18.5818 6.71049 18.6308C6.6962 18.6356 6.68209 18.6409 6.66819 18.6467L4.40408 19.5962L5.35355 17.332C5.35937 17.3182 5.36467 17.304 5.36944 17.2897C5.41846 17.1427 5.51381 17.035 5.72449 16.8243Z" fill="#141415"/>
</svg>
