<svg width="20" height="20" viewBox="0 0 20 20" fill="none" xmlns="http://www.w3.org/2000/svg">
    <path d="M16.2584 4.87533L11.3083 2.01699C10.5 1.55033 9.50002 1.55033 8.68335 2.01699L3.74168 4.87533C2.93335 5.34199 2.43335 6.20866 2.43335 7.15033V12.8503C2.43335 13.7837 2.93335 14.6503 3.74168 15.1253L8.69168 17.9837C9.50002 18.4503 10.5 18.4503 11.3167 17.9837L16.2667 15.1253C17.075 14.6587 17.575 13.792 17.575 12.8503V7.15033C17.5667 6.20866 17.0667 5.35033 16.2584 4.87533ZM9.37502 6.45866C9.37502 6.11699 9.65835 5.83366 10 5.83366C10.3417 5.83366 10.625 6.11699 10.625 6.45866V10.8337C10.625 11.1753 10.3417 11.4587 10 11.4587C9.65835 11.4587 9.37502 11.1753 9.37502 10.8337V6.45866ZM10.7667 13.8587C10.725 13.9587 10.6667 14.0503 10.5917 14.1337C10.4333 14.292 10.225 14.3753 10 14.3753C9.89168 14.3753 9.78335 14.3503 9.68335 14.3087C9.57502 14.267 9.49168 14.2087 9.40835 14.1337C9.33335 14.0503 9.27502 13.9587 9.22502 13.8587C9.18335 13.7587 9.16668 13.6503 9.16668 13.542C9.16668 13.3253 9.25002 13.1087 9.40835 12.9503C9.49168 12.8753 9.57502 12.817 9.68335 12.7753C9.99168 12.642 10.3583 12.717 10.5917 12.9503C10.6667 13.0337 10.725 13.117 10.7667 13.2253C10.8083 13.3253 10.8334 13.4337 10.8334 13.542C10.8334 13.6503 10.8083 13.7587 10.7667 13.8587Z" fill="#DC1F18"/>
</svg>
