<?xml version="1.0" encoding="UTF-8"?>
<svg id="Layer_1" xmlns="http://www.w3.org/2000/svg" version="1.1" xmlns:xlink="http://www.w3.org/1999/xlink" viewBox="0 0 1000 1000">
  <!-- Generator: Adobe Illustrator 29.3.1, SVG Export Plug-In . SVG Version: 2.1.0 Build 151)  -->
  <defs>
    <style>
      .st0 {
        fill: #fff;
      }

      .st1 {
        fill: #4c4d4f;
      }

      .st2 {
        fill: none;
      }

      .st3 {
        fill: #004183;
      }

      .st4 {
        fill: url(#radial-gradient);
      }

      .st5 {
        fill: url(#radial-gradient1);
      }

      .st6 {
        fill: url(#radial-gradient2);
      }

      .st7 {
        fill: url(#radial-gradient3);
      }
    </style>
    <radialGradient id="radial-gradient" cx="511.7" cy="440.4" fx="511.7" fy="440.4" r="84.6" gradientUnits="userSpaceOnUse">
      <stop offset="0" stop-color="#fff"/>
      <stop offset="1" stop-color="#0083ca"/>
    </radialGradient>
    <radialGradient id="radial-gradient1" cx="511.1" cy="441.6" fx="511.1" fy="441.6" r="85.1" xlink:href="#radial-gradient"/>
    <radialGradient id="radial-gradient2" cx="511.1" cy="441" fx="511.1" fy="441" r="85.2" xlink:href="#radial-gradient"/>
    <radialGradient id="radial-gradient3" cx="511.4" cy="441" fx="511.4" fy="441" r="84.9" xlink:href="#radial-gradient"/>
  </defs>
  <rect class="st0" width="1000" height="1000"/>
  <line class="st2" x1="602.4" y1="483.7" x2="600.1" y2="483.7"/>
  <line class="st2" x1="603" y1="483.7" x2="599.5" y2="483.7"/>
  <line class="st2" x1="601.4" y1="484" x2="601.2" y2="483.4"/>
  <polyline class="st2" points="601.4 484 601.3 483.8 601.2 483.3"/>
  <polyline class="st2" points="600.4 486.8 600.5 486.2 602.2 480.6"/>
  <g>
    <g>
      <g>
        <path class="st3" d="M515,517.9c-.9,2.8-1.9,6.1-3.1,10.2-44.3-1.3-80.1-36.4-82.3-80.5.1,0,.3,0,.4,0,4.9,1,6.2,1.6,12.7,3.2,9.7,2.4,12.6,2.1,15.6,1.7,1.8-.2,6.4-1.9,7.5-5.7.8-3-.7-6-1.7-7-2.3-2.3-5.6-3.7-7.5-7.5-2-4-.3-8.5,0-9.3,1.5-4.1,4.6-6.1,5.9-6.9,3.7-2.3,9-3.4,14-1.5.5.2,8.3,3.2,9.5,10.3.8,4.6-1.6,8.5-2.4,9.9-3,4.8-7.3,5.5-7.8,9.1-.4,3,.8,4.8,2.9,6.5,4.3,3.4,14.7,1.8,21.2.4,8.1-1.8,13.1-3.4,13.1-3.4.9,2.2,1.1,3.3,3,12.3,1.5,7.3,2.2,11.9,1.5,14.8-.4,1.5-1.7,2.2-1.9,2.2-1.6-.2-2.8-2.7-4.1-4.3-4.2-5.2-12.6-7.1-19.4-4.9-8,2.6-12.1,10.5-13,16.9-1,7,1.4,15.4,8.2,20.1,3.9,2.8,12,4.5,16.4,2.7,4.1-1.7,6-3.4,10.2-8.4.1-.2,1.1-1.8,2.3-.7,1.2,1.1,3.4,5-1.3,19.7Z"/>
        <path class="st3" d="M543.4,405.7c-.2.5-3.2,8.3-10.3,9.5-4.6.8-8.5-1.6-9.9-2.4-4.8-3-5.5-7.3-9.1-7.8-3-.4-4.8.8-6.5,2.9-3.4,4.3-1.8,14.7-.4,21.2,1.8,8.1,3.4,13.1,3.4,13.1-2.2.9-3.4,1.1-12.3,3-7.3,1.5-11.9,2.2-14.7,1.5-1.5-.4-2.2-1.7-2.2-1.9.2-1.6,2.7-2.8,4.3-4.1,5.1-4.2,7.1-12.6,4.9-19.4-2.6-8-10.5-12.1-16.9-13-7-1-15.4,1.4-20.1,8.2-2.8,3.9-4.5,12-2.7,16.4,1.7,4.1,3.4,6,8.4,10.2.2.1,1.8,1.1.7,2.3-1.1,1.2-5,3.4-19.7-1.3-2.9-.9-6.4-2-10.7-3.3,1.2-44.5,36.7-80.5,81.1-82.4,0,.2,0,.5-.1.7-1,4.9-1.6,6.2-3.2,12.7-2.4,9.7-2.1,12.6-1.7,15.6.2,1.8,1.9,6.4,5.7,7.5,3,.8,6-.7,7-1.7,2.3-2.3,3.7-5.6,7.5-7.5,4-2,8.5-.3,9.3,0,4.1,1.5,6.1,4.6,6.9,5.9,2.3,3.7,3.4,9,1.5,14Z"/>
        <path class="st3" d="M599.2,446.1c-1.5,44.3-36.9,80-81.1,82,0,0,0-.2,0-.3,1-4.9,1.6-6.2,3.2-12.7,2.4-9.7,2.1-12.6,1.7-15.6-.2-1.8-1.9-6.4-5.7-7.5-3-.8-6,.7-7,1.7-2.3,2.3-3.7,5.6-7.5,7.5-4,2-8.5.3-9.3,0-4.1-1.5-6.1-4.6-6.9-5.9-2.3-3.7-3.4-9-1.5-14,.2-.5,3.2-8.3,10.3-9.5,4.6-.8,8.5,1.6,9.9,2.4,4.8,3,5.4,7.3,9.1,7.8,3,.4,4.8-.8,6.5-2.9,3.4-4.3,1.8-14.7.4-21.2-1.8-8.1-3.4-13.1-3.4-13.1,2.2-.9,3.3-1.1,12.3-3,7.3-1.5,11.9-2.2,14.8-1.5,1.5.4,2.2,1.7,2.2,1.9-.2,1.6-2.7,2.8-4.3,4.1-5.1,4.2-7.1,12.6-4.9,19.4,2.6,8,10.5,12.1,16.9,13,7,1,15.4-1.4,20.1-8.2,2.8-3.9,4.5-12,2.7-16.4-1.7-4.1-3.4-6-8.4-10.2-.1-.1-1.8-1.1-.7-2.3,1.1-1.2,5-3.4,19.7,1.3,2.9.9,6.5,2,10.9,3.3Z"/>
        <path class="st3" d="M599.2,439.3c-.2,0-.4,0-.6-.1-4.9-1-6.2-1.6-12.7-3.2-9.7-2.4-12.6-2.1-15.6-1.7-1.8.2-6.4,1.9-7.5,5.7-.8,3,.7,6,1.7,7,2.3,2.3,5.6,3.7,7.5,7.5,2,4,.3,8.5,0,9.3-1.5,4.1-4.6,6.1-5.9,6.9-3.7,2.3-9,3.4-14,1.5-.5-.2-8.3-3.2-9.5-10.3-.8-4.6,1.6-8.5,2.4-9.9,3-4.8,7.3-5.5,7.8-9.1.4-3-.8-4.8-2.9-6.5-4.3-3.4-14.7-1.8-21.2-.4-8.1,1.8-13.1,3.4-13.1,3.4-.9-2.2-1.1-3.4-3-12.3-1.5-7.3-2.2-11.9-1.5-14.8.4-1.5,1.7-2.2,1.9-2.2,1.6.2,2.8,2.7,4.1,4.3,4.2,5.1,12.6,7.1,19.4,4.9,8-2.6,12.1-10.5,13-16.9,1-7-1.4-15.4-8.2-20.1-3.9-2.8-12-4.5-16.4-2.7-4.1,1.7-6,3.4-10.2,8.4-.1.2-1.1,1.8-2.3.7-1.2-1.1-3.4-5,1.3-19.7.9-2.9,1.9-6.4,3.2-10.6,44.5,1.3,80.4,36.7,82.4,81Z"/>
      </g>
      <g>
        <path class="st2" d="M596.3,441c0,1,0,1.9,0,2.9-4.4-1.3-8-2.4-10.9-3.3-14.7-4.7-18.6-2.4-19.7-1.3-1.1,1.2.5,2.2.7,2.3,5,4.2,6.7,6.1,8.4,10.2,1.8,4.4,0,12.5-2.7,16.4-4.7,6.8-13.1,9.2-20.1,8.2-6.4-.9-14.3-5-16.9-13-2.2-6.9-.2-15.2,4.9-19.4,1.6-1.3,4.1-2.5,4.3-4.1,0-.2-.6-1.5-2.2-1.9-2.9-.8-7.5,0-14.8,1.5-8.9,1.9-10.1,2-12.3,3,0,0,1.6,4.9,3.4,13.1,1.4,6.5,3,16.9-.4,21.2-1.7,2.1-3.5,3.3-6.5,2.9-3.6-.5-4.3-4.8-9.1-7.8-1.4-.9-5.3-3.2-9.9-2.4-7.1,1.2-10.2,9-10.3,9.5-1.9,5-.9,10.2,1.5,14,.8,1.3,2.8,4.4,6.9,5.9.8.3,5.3,2,9.3,0,3.8-1.9,5.2-5.2,7.5-7.5,1-1,4-2.5,7-1.7,3.9,1.1,5.5,5.7,5.7,7.5.4,3,.6,5.9-1.7,15.6-1.6,6.5-2.2,7.8-3.2,12.7,0,0,0,.2,0,.3-1.2,0-2.5,0-3.7,0s-1.7,0-2.5,0c1.2-4.1,2.2-7.4,3.1-10.2,4.7-14.7,2.4-18.6,1.3-19.7-1.2-1.1-2.2.5-2.3.7-4.2,5-6.1,6.7-10.2,8.4-4.4,1.8-12.5,0-16.4-2.7-6.8-4.7-9.2-13.1-8.2-20.1.9-6.4,5-14.3,13-16.9,6.8-2.2,15.2-.2,19.4,4.9,1.3,1.6,2.5,4.1,4.1,4.3.2,0,1.5-.6,1.9-2.2.8-2.9,0-7.5-1.5-14.8-1.9-8.9-2-10.1-3-12.3,0,0-4.9,1.6-13.1,3.4-6.5,1.4-16.9,3-21.2-.4-2.1-1.7-3.3-3.5-2.9-6.5.5-3.6,4.8-4.3,7.8-9.1.9-1.4,3.2-5.3,2.4-9.9-1.2-7.1-9-10.2-9.5-10.3-5-1.9-10.2-.9-14,1.5-1.3.8-4.4,2.8-5.9,6.9-.3.8-2,5.3,0,9.3,1.9,3.8,5.2,5.2,7.5,7.5,1,1,2.5,4,1.7,7-1.1,3.9-5.7,5.5-7.5,5.7-3,.4-5.9.6-15.6-1.7-6.5-1.6-7.8-2.2-12.7-3.2-.1,0-.3,0-.4,0,0-1.5-.1-2.9-.1-4.4s0-1.6,0-2.4c4.3,1.3,7.8,2.4,10.7,3.3,14.7,4.7,18.6,2.4,19.7,1.3,1.1-1.2-.5-2.2-.7-2.3-5-4.2-6.7-6.1-8.4-10.2-1.8-4.4,0-12.5,2.7-16.4,4.7-6.8,13.1-9.2,20.1-8.2,6.4.9,14.3,5,16.9,13,2.2,6.9.2,15.2-4.9,19.4-1.6,1.3-4.1,2.5-4.3,4.1,0,.2.6,1.5,2.2,1.9,2.9.8,7.5,0,14.7-1.5,8.9-1.9,10.1-2,12.3-3,0,0-1.6-4.9-3.4-13.1-1.4-6.5-3-16.9.4-21.2,1.7-2.1,3.5-3.3,6.5-2.9,3.6.5,4.3,4.8,9.1,7.8,1.4.9,5.3,3.2,9.9,2.4,7.1-1.2,10.2-9,10.3-9.5,1.9-5,.9-10.2-1.5-14-.8-1.3-2.8-4.4-6.9-5.9-.8-.3-5.3-2-9.3,0-3.8,1.9-5.2,5.2-7.5,7.5-1,1-4,2.5-7,1.7-3.9-1.1-5.5-5.7-5.7-7.5-.4-3-.6-5.9,1.7-15.6,1.6-6.5,2.2-7.8,3.2-12.7,0-.2,0-.5.1-.7,1.3,0,2.5,0,3.8,0s1.6,0,2.5,0c-1.3,4.3-2.3,7.8-3.2,10.6-4.7,14.7-2.4,18.6-1.3,19.7,1.2,1.1,2.2-.5,2.3-.7,4.2-5,6.1-6.7,10.2-8.4,4.4-1.8,12.5,0,16.4,2.7,6.8,4.7,9.2,13.1,8.2,20.1-.9,6.4-5,14.3-13,16.9-6.9,2.2-15.2.2-19.4-4.9-1.3-1.6-2.5-4.1-4.1-4.3-.2,0-1.5.6-1.9,2.2-.8,2.9,0,7.5,1.5,14.8,1.9,8.9,2,10.1,3,12.3,0,0,4.9-1.6,13.1-3.4,6.5-1.4,16.9-3,21.2.4,2.1,1.7,3.3,3.5,2.9,6.5-.5,3.6-4.8,4.3-7.8,9.1-.9,1.4-3.2,5.3-2.4,9.9,1.2,7.1,9,10.2,9.5,10.3,5,1.9,10.2.9,14-1.5,1.3-.8,4.4-2.8,5.9-6.9.3-.8,2-5.3,0-9.3-1.9-3.8-5.2-5.2-7.5-7.5-1-1-2.5-4-1.7-7,1.1-3.9,5.7-5.5,7.5-5.7,3-.4,5.9-.6,15.6,1.7,6.5,1.6,7.8,2.2,12.7,3.2.2,0,.4,0,.6.1,0,1.3,0,2.6,0,3.9Z"/>
        <path class="st4" d="M512,515.7c-.9,2.8-1.9,6.1-3.1,10.2-44.3-1.3-80.1-36.4-82.3-80.5.1,0,.3,0,.4,0,4.9,1,6.2,1.6,12.7,3.2,9.7,2.4,12.6,2.1,15.6,1.7,1.8-.2,6.4-1.9,7.5-5.7.8-3-.7-6-1.7-7-2.3-2.3-5.6-3.7-7.5-7.5-2-4-.3-8.5,0-9.3,1.5-4.1,4.6-6.1,5.9-6.9,3.7-2.3,9-3.4,14-1.5.5.2,8.3,3.2,9.5,10.3.8,4.6-1.6,8.5-2.4,9.9-3,4.8-7.3,5.5-7.8,9.1-.4,3,.8,4.8,2.9,6.5,4.3,3.4,14.7,1.8,21.2.4,8.1-1.8,13.1-3.4,13.1-3.4.9,2.2,1.1,3.3,3,12.3,1.5,7.3,2.2,11.9,1.5,14.8-.4,1.5-1.7,2.2-1.9,2.2-1.6-.2-2.8-2.7-4.1-4.3-4.2-5.2-12.6-7.1-19.4-4.9-8,2.6-12.1,10.5-13,16.9-1,7,1.4,15.4,8.2,20.1,3.9,2.8,12,4.5,16.4,2.7,4.1-1.7,6-3.4,10.2-8.4.1-.2,1.1-1.8,2.3-.7,1.2,1.1,3.4,5-1.3,19.7Z"/>
        <path class="st5" d="M540.4,403.4c-.2.5-3.2,8.3-10.3,9.5-4.6.8-8.5-1.6-9.9-2.4-4.8-3-5.5-7.3-9.1-7.8-3-.4-4.8.8-6.5,2.9-3.4,4.3-1.8,14.7-.4,21.2,1.8,8.1,3.4,13.1,3.4,13.1-2.2.9-3.4,1.1-12.3,3-7.3,1.5-11.9,2.2-14.7,1.5-1.5-.4-2.2-1.7-2.2-1.9.2-1.6,2.7-2.8,4.3-4.1,5.1-4.2,7.1-12.6,4.9-19.4-2.6-8-10.5-12.1-16.9-13-7-1-15.4,1.4-20.1,8.2-2.8,3.9-4.5,12-2.7,16.4,1.7,4.1,3.4,6,8.4,10.2.2.1,1.8,1.1.7,2.3-1.1,1.2-5,3.4-19.7-1.3-2.9-.9-6.4-2-10.7-3.3,1.2-44.5,36.7-80.5,81.1-82.4,0,.2,0,.5-.1.7-1,4.9-1.6,6.2-3.2,12.7-2.4,9.7-2.1,12.6-1.7,15.6.2,1.8,1.9,6.4,5.7,7.5,3,.8,6-.7,7-1.7,2.3-2.3,3.7-5.6,7.5-7.5,4-2,8.5-.3,9.3,0,4.1,1.5,6.1,4.6,6.9,5.9,2.3,3.7,3.4,9,1.5,14Z"/>
        <path class="st6" d="M596.2,443.9c-1.5,44.3-36.9,80-81.1,82,0,0,0-.2,0-.3,1-4.9,1.6-6.2,3.2-12.7,2.4-9.7,2.1-12.6,1.7-15.6-.2-1.8-1.9-6.4-5.7-7.5-3-.8-6,.7-7,1.7-2.3,2.3-3.7,5.6-7.5,7.5-4,2-8.5.3-9.3,0-4.1-1.5-6.1-4.6-6.9-5.9-2.3-3.7-3.4-9-1.5-14,.2-.5,3.2-8.3,10.3-9.5,4.6-.8,8.5,1.6,9.9,2.4,4.8,3,5.4,7.3,9.1,7.8,3,.4,4.8-.8,6.5-2.9,3.4-4.3,1.8-14.7.4-21.2-1.8-8.1-3.4-13.1-3.4-13.1,2.2-.9,3.3-1.1,12.3-3,7.3-1.5,11.9-2.2,14.8-1.5,1.5.4,2.2,1.7,2.2,1.9-.2,1.6-2.7,2.8-4.3,4.1-5.1,4.2-7.1,12.6-4.9,19.4,2.6,8,10.5,12.1,16.9,13,7,1,15.4-1.4,20.1-8.2,2.8-3.9,4.5-12,2.7-16.4-1.7-4.1-3.4-6-8.4-10.2-.1-.1-1.8-1.1-.7-2.3,1.1-1.2,5-3.4,19.7,1.3,2.9.9,6.5,2,10.9,3.3Z"/>
        <path class="st7" d="M596.2,437.1c-.2,0-.4,0-.6-.1-4.9-1-6.2-1.6-12.7-3.2-9.7-2.4-12.6-2.1-15.6-1.7-1.8.2-6.4,1.9-7.5,5.7-.8,3,.7,6,1.7,7,2.3,2.3,5.6,3.7,7.5,7.5,2,4,.3,8.5,0,9.3-1.5,4.1-4.6,6.1-5.9,6.9-3.7,2.3-9,3.4-14,1.5-.5-.2-8.3-3.2-9.5-10.3-.8-4.6,1.6-8.5,2.4-9.9,3-4.8,7.3-5.5,7.8-9.1.4-3-.8-4.8-2.9-6.5-4.3-3.4-14.7-1.8-21.2-.4-8.1,1.8-13.1,3.4-13.1,3.4-.9-2.2-1.1-3.4-3-12.3-1.5-7.3-2.2-11.9-1.5-14.8.4-1.5,1.7-2.2,1.9-2.2,1.6.2,2.8,2.7,4.1,4.3,4.2,5.1,12.6,7.1,19.4,4.9,8-2.6,12.1-10.5,13-16.9,1-7-1.4-15.4-8.2-20.1-3.9-2.8-12-4.5-16.4-2.7-4.1,1.7-6,3.4-10.2,8.4-.1.2-1.1,1.8-2.3.7-1.2-1.1-3.4-5,1.3-19.7.9-2.9,1.9-6.4,3.2-10.6,44.5,1.3,80.4,36.7,82.4,81Z"/>
      </g>
    </g>
    <g>
      <path class="st1" d="M690.4,604.8c2.1,5.9,10.7,4.3,15.6,3,3.1-.8,8.8-2.5,10.3-5.4l.3,5.2h20l.9-.9v-24.3c0-6.7,3-10.1,10.1-8.9,2.9.5,5.5,4.4,5.5,7.2v26.9h20.8v-31.5c0-.8-1.1-5-1.5-6.1-5.1-14.7-28.3-14.6-36.7-2.9v-6.9h-19.1v36.5c-2.5-.8-9.2,3.3-10.3-.4-.7-2.3-.2-10.7-.1-13.8,0-5.8,1.7-11.4-2.3-16.8-5.3-7-22.4-5.7-30.2-4.2-3.7.7-7.2,2.3-10.8,3.4.2,2.3-1,8.4.8,9.7,3.9,2.8,6.2-2.1,10.2-3.6,6.5-2.4,16.8-2.1,15,7.3-.4,1.6-23.9,1.9-28.3,9.4l-1.8,5.4v-15.9c0-2.8-2.6-9-4.4-11.2-5.6-6.8-18.8-7.6-26.2-3.7-2.3,1.2-4,3.5-6.4,4.3v-23.2h-20.3v65.4h20.3v-25.2c0-2.6,2-7.1,4.5-8.3,3.4-1.7,9-.8,10.6,3,.2.4,1.1,3.9,1.1,4.1v26.3h20l.9-.9v-10.1l1.6,5c6.9,10.1,20.7,4.8,30.2,2ZM678.1,588.6c1.3-.9,8.3-2.3,9.9-2.3.7,0,.9.2,1.3.8v9.6c-4.1,1.2-12.1,4-12.8-2.6-.2-2.2-.4-4.2,1.6-5.5Z"/>
      <path class="st1" d="M353.5,581.4c-2.4-24.5-37.9-26.9-53.2-13.4l-5.8,10.2c.8-15.8-5.7-28.4-21.4-32.7-15-4.1-32.6-1-48-2v65.4c20-1.2,55.8,5.8,66.1-17,1.1-2.3,1.5-5,2.5-7.3,0,15.6,11.2,24.4,26,25.5,19.1,1.4,35.9-7.2,33.8-28.6ZM261.9,592.1c-3.6,1.4-10.3,2.6-13.7.8v-34.4h10.1c.5,0,6.2,2,6.9,2.4,8.7,5.1,7.5,27.1-3.3,31.3ZM320.6,597c-8.4-2.9-8-22.9,1.6-24.5,15.3-2.5,14.6,30-1.6,24.5Z"/>
      <polygon class="st1" points="600.1 608.8 600.1 543.4 577.6 543.4 578.1 578.7 552.4 543.4 530.1 543.4 530.1 608.8 552.7 608.8 552.1 573.5 577.9 608.8 600.1 608.8"/>
      <path class="st1" d="M490.2,566.6v-23.2h-20.8v65.4h20l.9-.9v-27.8c0-.8,2.6-4.1,3.5-4.6,2.8-1.6,7.5-1.4,9.8,1.1.5.5,2.3,4.2,2.3,4.6v27.5h20l.9-.9v-29.5c0-3.3-1.9-8.9-3.9-11.7-7-9.7-24.7-8.4-32.5-.2Z"/>
      <path class="st1" d="M430,568.3v-6.9h-19.1v46.6l.9.9h20v-26.9c0-.8,1.1-3.8,1.7-4.6,2.6-3.4,9.9-3.8,12.4-.3.3.4,1.5,3,1.5,3.2v28.7h20.8v-33.3c0-2.4-2.5-7.9-4.1-9.8-8.3-9-26.6-7-34.1,2.5Z"/>
      <path class="st1" d="M410.3,596.1c-2.1.9-8.3,3.2-9.5.6-.8-1.6-.3-13.7-.3-16.5,0-3.6.9-6.1-.1-10.2-2.9-12-23-10.1-32.3-8.3-1.7.3-10.1,2.8-10.7,3.8l.2,8.9c.2.3.5.4.8.6,3.7,2,3.1.7,4.8-.7,4.6-3.5,7.9-4.7,13.8-4.2,5.6.5,6.6,3.5,6,8.6-11.5,3.2-31.2,1-30,18.2,1,13.3,13.3,12.6,23.2,10.6,2.1-.4,5.9-2.3,7.7-2.1,1.4.1,2.1,1.9,3.2,2.6,4.8,2.7,16-.5,20.8-2.8,3.9-1.9,1.9-5.3,2.3-9ZM383.7,596.4c-2.7,1.7-10.7,3.4-12.3-.4-1-2.3-.9-6.1,1.5-7.5,1.3-.8,8.1-2.1,9.5-2.1.7,0,.9.2,1.3.8v9.3Z"/>
      <path class="st1" d="M373,557.9c10.6.7,18.3-4.3,20-15h-11.6c-.5,5.4-6.1,7.8-10.6,5.1-4.1-2.5-3.6-12.3-1.9-16.3,2.7-6.3,12.3-4.5,12.6,2.5h11c-.9-11.9-10-16.3-21.1-15-21.3,2.5-21.8,37.3,1.7,38.7Z"/>
      <path class="st1" d="M765.1,611.7v14.8c0,.2.5.6.6,1.1l-1.2.3-9.9-16.2h-10.4v31.3h9.8v-16.8l11,16.8h9.8v-31.3h-9.8Z"/>
      <path class="st1" d="M693.9,632.6h4.1c-.8,3.3-4.1,3.9-7.1,3.3-6.6-1.2-6.3-18.4,2.1-17.8,4.3.3,4.1,4,4.4,4h9.8c-2.7-15.9-26.3-14.9-30.5-.1-4.5,15.8,10.8,28.5,24.1,18.1l.7,2.8h6.3c0,0,0-17.3,0-17.3h-13.9v6.9Z"/>
      <path class="st1" d="M724.5,610.7c-20.1,1.9-18.4,33.4,2.1,33.2,21.5-.2,21.1-35.4-2.1-33.2ZM727.7,636c-10.1,1.6-9.7-16.2-2.7-17.8,9-2,9.9,16.7,2.7,17.8Z"/>
      <path class="st1" d="M610.1,620c-.7-2.5,3.5-2.1,4.9-2,2.9.4,2.4,2.3,2.6,2.3h9.8c-.8-14.1-29.8-12.2-27,1.8,1.9,9.5,12.5,6.7,17.3,10.4,3.3,2.6-3.3,6.4-7.2,2.7-.8-.8-1-2.1-1.1-2.1h-9.8c1.3,15,30.7,14.3,28.3-2-1.3-8.8-16.7-7.1-17.8-11.1Z"/>
      <path class="st1" d="M650,612.1h0s-.2-.3-.2-.3h-10.4l-.2.6s0,0,0,0l-.2.5h0s-10.5,30.1-10.5,30.1h9.5l.5-1.9s0,0,0-.1v-.3c0,0,0,0,0,0l.7-2.5h11l1.7,4.9h8.8l-10.9-30.9ZM641,632.4l.2-.7.2-.6,2.7-9.6c.5-.4,1.4,2,2.1,4.5v.2c0,0,2.2,6.2,2.2,6.2h-7.4Z"/>
      <polygon class="st1" points="427.1 548.6 411.2 548.6 410.3 547.8 410.3 520.3 398.1 520.3 398.1 556.7 427.1 556.7 427.1 548.6"/>
      <rect class="st1" x="662.6" y="611.7" width="10.4" height="31.3"/>
      <path class="st1" d="M685.5,552.7c1.2-.3.8.5,1.1,1.1,1,1.8,1.9,3.8,2.7,5.7h7.4c0,0-5.9-11.4-5.9-11.4h-10.2s-5.9,11.5-5.9,11.5h7.4c0,0,3.3-6.9,3.3-6.9Z"/>
      <path class="st1" d="M463.8,553.3c4.7-4.6,4-14.1-3.2-15.7-.2-.3,2.7-2.8,3.2-3.5,3.9-6-.3-12.8-6.9-13.9-7-1.1-16.7.8-24,0v36.5h24c1.3,0,5.9-2.4,7-3.5ZM445,528.4c12.3-1.8,12.4,8.2,0,6.4v-6.4ZM445,548.6v-6.9c2.6.3,5.9-.4,8.4,0,.3,0,.9.5,1.3.7,3.2,7.1-5,6.3-9.7,6.2Z"/>
    </g>
  </g>
</svg>