<svg width="398" height="297" viewBox="0 0 398 297" fill="none" xmlns="http://www.w3.org/2000/svg">
<g clip-path="url(#clip0_2565_18029)">
<path d="M358.121 273.458H331.757V273.657H358.121V273.458Z" fill="#EBEBEB"/>
<path d="M263.652 275.623H256.734V275.822H263.652V275.623Z" fill="#EBEBEB"/>
<path d="M330.961 266.071H315.686V266.27H330.961V266.071Z" fill="#EBEBEB"/>
<path d="M76.1375 267.408H41.7583V267.607H76.1375V267.408Z" fill="#EBEBEB"/>
<path d="M88.2687 267.408H83.23V267.607H88.2687V267.408Z" fill="#EBEBEB"/>
<path d="M179.22 270.768H104.651V270.967H179.22V270.768Z" fill="#EBEBEB"/>
<path d="M188.66 225.149H34.9526C32.4452 225.149 30.4075 223.111 30.4075 220.603V4.54516C30.4075 2.03776 32.4452 0 34.9526 0H188.66C191.168 0 193.205 2.03776 193.205 4.54516V220.603C193.205 223.111 191.168 225.149 188.66 225.149ZM34.9526 0.199C32.5567 0.199 30.6065 2.1492 30.6065 4.54516V220.603C30.6065 222.999 32.5567 224.95 34.9526 224.95H188.66C191.056 224.95 193.006 222.999 193.006 220.603V4.54516C193.006 2.1492 191.056 0.199 188.66 0.199H34.9526Z" fill="#EBEBEB"/>
<path d="M360.835 225.149H207.127C204.62 225.149 202.582 223.111 202.582 220.603V4.54516C202.582 2.03776 204.62 0 207.127 0H360.835C363.342 0 365.38 2.03776 365.38 4.54516V220.603C365.38 223.111 363.342 225.149 360.835 225.149ZM207.127 0.199C204.731 0.199 202.781 2.1492 202.781 4.54516V220.603C202.781 222.999 204.731 224.95 207.127 224.95H360.835C363.231 224.95 365.181 222.999 365.181 220.603V4.54516C365.181 2.1492 363.231 0.199 360.835 0.199H207.127Z" fill="#EBEBEB"/>
<path d="M175.391 40.9778H181.441C181.91 40.9778 182.284 41.3519 182.284 41.8215V260.777H191.438V41.8215C191.438 41.3599 191.813 40.9778 192.282 40.9778H198.332C199.088 40.9778 199.462 40.0703 198.929 39.537L187.458 28.0667C187.124 27.7323 186.591 27.7323 186.264 28.0667L174.794 39.537C174.269 40.0624 174.643 40.9778 175.391 40.9778Z" fill="#EBEBEB"/>
<path d="M222.363 120.896H228.413C228.882 120.896 229.256 121.27 229.256 121.74V260.777H238.41V121.74C238.41 121.278 238.784 120.896 239.254 120.896H245.304C246.06 120.896 246.434 119.989 245.901 119.455L234.43 107.985C234.096 107.651 233.563 107.651 233.236 107.985L221.766 119.455C221.241 119.989 221.615 120.896 222.363 120.896Z" fill="#EBEBEB"/>
<path d="M89.8688 59.031V50.9118L85.6898 50.5217C85.1246 47.7994 84.05 45.2681 82.5695 43.0234L85.252 39.7837L79.5128 34.0445L76.2731 36.7271C74.0284 35.2545 71.4971 34.1719 68.7748 33.6067L68.3847 29.4277H60.2655L59.8755 33.6067C57.1532 34.1719 54.6219 35.2465 52.3772 36.7271L49.1375 34.0445L43.3983 39.7837L46.0808 43.0234C44.6082 45.2681 43.5257 47.7994 42.9605 50.5217L38.7815 50.9118V59.031L42.9605 59.421C43.5257 62.1433 44.6003 64.6746 46.0808 66.9193L43.3983 70.1591L49.1375 75.8982L52.3772 73.2157C54.6219 74.6883 57.1532 75.7709 59.8755 76.336L60.2655 80.515H68.3847L68.7748 76.336C71.4971 75.7709 74.0284 74.6963 76.2731 73.2157L79.5128 75.8982L85.252 70.1591L82.5695 66.9193C84.0421 64.6746 85.1246 62.1433 85.6898 59.421L89.8688 59.031ZM64.3172 65.9562C58.2437 65.9562 53.3244 61.0369 53.3244 54.9634C53.3244 48.8899 58.2437 43.9707 64.3172 43.9707C70.3907 43.9707 75.3099 48.8899 75.3099 54.9634C75.3099 61.0369 70.3907 65.9562 64.3172 65.9562Z" fill="#E0E0E0"/>
<path d="M122.768 81.9401V75.58L119.496 75.2696C119.05 73.1363 118.207 71.1543 117.052 69.3951L119.154 66.8559L114.656 62.3585L112.117 64.4599C110.358 63.3057 108.376 62.4619 106.243 62.0162L105.932 58.7446H99.5722L99.2618 62.0162C97.1285 62.4619 95.1465 63.3057 93.3873 64.4599L90.8481 62.3585L86.3507 66.8559L88.4521 69.3951C87.2979 71.1543 86.4541 73.1363 86.0084 75.2696L82.7368 75.58V81.9401L86.0084 82.2505C86.4541 84.3838 87.2979 86.3658 88.4521 88.125L86.3507 90.6642L90.8481 95.1616L93.3873 93.0602C95.1465 94.2144 97.1285 95.0581 99.2618 95.5039L99.5722 98.7755H105.932L106.243 95.5039C108.376 95.0581 110.358 94.2144 112.117 93.0602L114.656 95.1616L119.154 90.6642L117.052 88.125C118.207 86.3658 119.05 84.3838 119.496 82.2505L122.768 81.9401ZM102.748 87.3767C97.9882 87.3767 94.1355 83.5241 94.1355 78.764C94.1355 74.0039 97.9882 70.1513 102.748 70.1513C107.508 70.1513 111.361 74.0039 111.361 78.764C111.361 83.5241 107.508 87.3767 102.748 87.3767Z" fill="#E0E0E0"/>
<path d="M87.4809 100.797V95.4561L84.7267 95.1934C84.3526 93.4024 83.6442 91.7388 82.6731 90.2582L84.4402 88.1249L80.6592 84.3439L78.5259 86.1111C77.0453 85.1399 75.3817 84.4315 73.5907 84.0574L73.328 81.3032H67.9869L67.7242 84.0574C65.9332 84.4315 64.2695 85.1399 62.789 86.1111L60.6557 84.3439L56.8747 88.1249L58.6418 90.2582C57.6707 91.7388 56.9623 93.4024 56.5881 95.1934L53.834 95.4561V100.797L56.5881 101.052C56.9623 102.843 57.6707 104.507 58.6418 105.987L56.8747 108.12L60.6557 111.901L62.789 110.134C64.2695 111.105 65.9332 111.814 67.7242 112.188L67.9869 114.942H73.328L73.5907 112.188C75.3817 111.814 77.0453 111.105 78.5259 110.134L80.6592 111.901L84.4402 108.12L82.6731 105.987C83.6442 104.507 84.3526 102.843 84.7267 101.052L87.4809 100.797ZM70.6614 105.358C66.6655 105.358 63.4258 102.119 63.4258 98.1227C63.4258 94.1268 66.6655 90.8871 70.6614 90.8871C74.6573 90.8871 77.8971 94.1268 77.8971 98.1227C77.8971 102.119 74.6573 105.358 70.6614 105.358Z" fill="#E0E0E0"/>
<path d="M127.455 179.386V174.069L124.718 173.814C124.348 172.031 123.645 170.373 122.675 168.903L124.432 166.782L120.673 163.023L118.552 164.78C117.082 163.816 115.424 163.107 113.641 162.737L113.386 160H108.069L107.814 162.737C106.031 163.107 104.373 163.81 102.903 164.78L100.782 163.023L97.0234 166.782L98.78 168.903C97.8157 170.373 97.1068 172.031 96.7367 173.814L94 174.069V179.386L96.7367 179.641C97.1068 181.424 97.8105 183.082 98.78 184.552L97.0234 186.673L100.782 190.432L102.903 188.675C104.373 189.639 106.031 190.348 107.814 190.718L108.069 193.455H113.386L113.641 190.718C115.424 190.348 117.082 189.645 118.552 188.675L120.673 190.432L124.432 186.673L122.675 184.552C123.639 183.082 124.348 181.424 124.718 179.641L127.455 179.386ZM110.722 183.921C106.745 183.921 103.524 180.7 103.524 176.722C103.524 172.745 106.745 169.524 110.722 169.524C114.7 169.524 117.921 172.745 117.921 176.722C117.921 180.7 114.7 183.921 110.722 183.921Z" fill="#E0E0E0"/>
<path d="M148.999 194.389V190.224L146.857 190.02C146.565 188.623 146.012 187.325 145.257 186.173L146.633 184.51L143.688 181.565L142.025 182.941C140.873 182.186 139.575 181.633 138.178 181.341L137.974 179.199H133.81L133.606 181.341C132.209 181.633 130.911 182.186 129.759 182.941L128.096 181.565L125.151 184.51L126.527 186.173C125.772 187.325 125.219 188.623 124.927 190.02L122.785 190.224V194.389L124.927 194.592C125.219 195.989 125.772 197.287 126.527 198.439L125.151 200.102L128.096 203.047L129.759 201.671C130.911 202.427 132.209 202.979 133.606 203.271L133.81 205.413H137.974L138.178 203.271C139.575 202.979 140.873 202.427 142.025 201.671L143.688 203.047L146.633 200.102L145.257 198.439C146.012 197.287 146.565 195.989 146.857 194.592L148.999 194.389ZM135.889 197.949C132.772 197.949 130.249 195.426 130.249 192.309C130.249 189.191 132.772 186.669 135.889 186.669C139.007 186.669 141.53 189.191 141.53 192.309C141.53 195.426 139.007 197.949 135.889 197.949Z" fill="#E0E0E0"/>
<path d="M125.891 206.737V203.239L124.088 203.067C123.843 201.894 123.379 200.805 122.743 199.835L123.9 198.438L121.424 195.962L120.027 197.12C119.057 196.484 117.968 196.02 116.795 195.775L116.623 193.971H113.125L112.953 195.775C111.78 196.02 110.691 196.484 109.721 197.12L108.324 195.962L105.848 198.438L107.006 199.835C106.37 200.805 105.906 201.894 105.661 203.067L103.857 203.239V206.737L105.661 206.904C105.906 208.077 106.37 209.166 107.006 210.136L105.848 211.533L108.324 214.009L109.721 212.852C110.691 213.488 111.78 213.951 112.953 214.196L113.125 216H116.623L116.795 214.196C117.968 213.951 119.057 213.488 120.027 212.852L121.424 214.009L123.9 211.533L122.743 210.136C123.379 209.166 123.843 208.077 124.088 206.904L125.891 206.737ZM114.877 209.724C112.26 209.724 110.138 207.602 110.138 204.986C110.138 202.369 112.26 200.247 114.877 200.247C117.494 200.247 119.615 202.369 119.615 204.986C119.615 207.602 117.494 209.724 114.877 209.724Z" fill="#E0E0E0"/>
<path d="M305.466 171.171V179.29L309.645 179.68C310.21 182.402 311.285 184.933 312.766 187.178L310.083 190.418L315.822 196.157L319.062 193.474C321.307 194.947 323.838 196.03 326.56 196.595L326.95 200.774H335.07L335.46 196.595C338.182 196.03 340.713 194.955 342.958 193.474L346.198 196.157L351.937 190.418L349.254 187.178C350.727 184.933 351.809 182.402 352.375 179.68L356.554 179.29V171.171L352.375 170.781C351.809 168.058 350.735 165.527 349.254 163.282L351.937 160.042L346.198 154.303L342.958 156.986C340.713 155.513 338.182 154.431 335.46 153.866L335.07 149.687H326.95L326.56 153.866C323.838 154.431 321.307 155.505 319.062 156.986L315.822 154.303L310.083 160.042L312.766 163.282C311.293 165.527 310.21 168.058 309.645 170.781L305.466 171.171ZM331.018 164.245C337.091 164.245 342.011 169.165 342.011 175.238C342.011 181.312 337.091 186.231 331.018 186.231C324.944 186.231 320.025 181.312 320.025 175.238C320.025 169.165 324.944 164.245 331.018 164.245Z" fill="#E0E0E0"/>
<path d="M272.567 148.262V154.622L275.839 154.932C276.285 157.065 277.128 159.047 278.283 160.807L276.181 163.346L280.679 167.843L283.218 165.742C284.977 166.896 286.959 167.74 289.092 168.186L289.403 171.457H295.763L296.073 168.186C298.207 167.74 300.189 166.896 301.948 165.742L304.487 167.843L308.984 163.346L306.883 160.807C308.037 159.047 308.881 157.065 309.327 154.932L312.598 154.622V148.262L309.327 147.951C308.881 145.818 308.037 143.836 306.883 142.077L308.984 139.538L304.487 135.04L301.948 137.142C300.189 135.987 298.207 135.144 296.073 134.698L295.763 131.426H289.403L289.092 134.698C286.959 135.144 284.977 135.987 283.218 137.142L280.679 135.04L276.181 139.538L278.283 142.077C277.128 143.836 276.285 145.818 275.839 147.951L272.567 148.262ZM292.587 142.825C297.339 142.825 301.2 146.678 301.2 151.438C301.2 156.198 297.347 160.05 292.587 160.05C287.827 160.05 283.974 156.198 283.974 151.438C283.974 146.678 287.827 142.825 292.587 142.825Z" fill="#E0E0E0"/>
<path d="M307.854 129.405V134.746L310.609 135.009C310.983 136.8 311.691 138.463 312.662 139.944L310.895 142.077L314.676 145.858L316.809 144.091C318.29 145.062 319.954 145.771 321.745 146.145L322.007 148.899H327.349L327.611 146.145C329.402 145.771 331.066 145.062 332.546 144.091L334.68 145.858L338.461 142.077L336.694 139.944C337.665 138.463 338.373 136.8 338.747 135.009L341.501 134.746V129.405L338.747 129.142C338.373 127.351 337.665 125.688 336.694 124.207L338.461 122.074L334.68 118.293L332.546 120.06C331.066 119.089 329.402 118.38 327.611 118.006L327.349 115.252H322.007L321.745 118.006C319.954 118.38 318.29 119.089 316.809 120.06L314.676 118.293L310.895 122.074L312.662 124.207C311.691 125.688 310.983 127.351 310.609 129.142L307.854 129.405ZM324.674 124.844C328.67 124.844 331.91 128.083 331.91 132.079C331.91 136.075 328.67 139.315 324.674 139.315C320.678 139.315 317.438 136.075 317.438 132.079C317.438 128.083 320.678 124.844 324.674 124.844Z" fill="#E0E0E0"/>
<path d="M246.044 225.793H255.158C255.867 225.793 256.432 226.358 256.432 227.059V260.777H270.218V227.059C270.218 226.358 270.784 225.793 271.484 225.793H280.598C281.737 225.793 282.302 224.424 281.498 223.62L264.225 206.347C263.723 205.845 262.919 205.845 262.434 206.347L245.152 223.62C244.356 224.416 244.922 225.793 246.052 225.793H246.044Z" fill="#E0E0E0"/>
<path d="M199 296.598C284.238 296.598 353.336 292.563 353.336 287.587C353.336 282.61 284.238 278.576 199 278.576C113.762 278.576 44.6636 282.61 44.6636 287.587C44.6636 292.563 113.762 296.598 199 296.598Z" fill="#F5F5F5"/>
<path d="M228.356 263.977L236.213 274.07L239.039 273.648L230.744 263.977H228.356Z" fill="#263238"/>
<path opacity="0.3" d="M228.356 263.977L236.213 274.07L239.039 273.648L230.744 263.977H228.356Z" fill="black"/>
<path d="M230.744 254.425L238.601 264.519L241.427 264.097L233.132 254.425H230.744Z" fill="#263238"/>
<path opacity="0.3" d="M230.744 254.425L238.601 264.519L241.427 264.097L233.132 254.425H230.744Z" fill="black"/>
<path d="M253.351 249.251H287.316L279.348 270.29H245.383L253.351 249.251Z" fill="#263238"/>
<path opacity="0.3" d="M253.351 249.251H287.316L279.348 270.29H245.383L253.351 249.251Z" fill="black"/>
<path d="M226.988 265.044H280.949V262.33H226.988V265.044Z" fill="#263238"/>
<path opacity="0.2" d="M260.237 265.044H280.949V262.33H260.237V265.044Z" fill="black"/>
<path d="M230.171 257.068H284.132V254.354H230.171V257.068Z" fill="#263238"/>
<path opacity="0.2" d="M263.42 257.068H284.132V254.354H263.42V257.068Z" fill="black"/>
<path d="M287.261 249.395L289.147 251.584L281.983 270.345H279.181L287.261 249.395Z" fill="#263238"/>
<path d="M213.376 260.395L209.73 261.303C209.945 259.607 211.306 257.545 213.392 257.028C215.756 256.439 218.136 257.808 219.019 260.013C219.33 260.777 219.417 261.557 219.266 262.393L241.244 275.623C243.823 273.458 246.871 275.081 248.129 276.848L244.499 277.732C243.648 277.947 243.13 278.799 243.345 279.65C243.56 280.502 244.428 281.02 245.279 280.805L248.925 279.897C248.71 281.593 247.349 283.646 245.263 284.172C242.899 284.761 240.448 283.519 239.556 281.314C239.246 280.55 239.079 279.897 239.23 279.061L217.252 265.832C215.087 267.312 211.704 266.246 210.446 264.479L214.116 263.531C214.968 263.317 215.501 262.433 215.286 261.581C215.071 260.729 214.219 260.188 213.368 260.395H213.376Z" fill="#263238"/>
<path opacity="0.6" d="M213.376 260.395L209.73 261.303C209.945 259.607 211.306 257.545 213.392 257.028C215.756 256.439 218.136 257.808 219.019 260.013C219.33 260.777 219.417 261.557 219.266 262.393L241.244 275.623C243.823 273.458 246.871 275.081 248.129 276.848L244.499 277.732C243.648 277.947 243.13 278.799 243.345 279.65C243.56 280.502 244.428 281.02 245.279 280.805L248.925 279.897C248.71 281.593 247.349 283.646 245.263 284.172C242.899 284.761 240.448 283.519 239.556 281.314C239.246 280.55 239.079 279.897 239.23 279.061L217.252 265.832C215.087 267.312 211.704 266.246 210.446 264.479L214.116 263.531C214.968 263.317 215.501 262.433 215.286 261.581C215.071 260.729 214.219 260.188 213.368 260.395H213.376Z" fill="white"/>
<path d="M220.603 287.443H279.348V270.29H220.603V287.443Z" fill="#263238"/>
<path opacity="0.2" d="M256.248 287.443H279.348V270.29H256.248V287.443Z" fill="black"/>
<path d="M299.981 283.097L302.631 280.439C303.324 281.999 303.22 284.466 301.708 285.987C299.988 287.714 297.242 287.77 295.348 286.337C294.687 285.835 294.21 285.223 293.907 284.427L268.252 284.458C267.161 287.642 263.715 287.825 261.725 286.966L264.375 284.331C264.996 283.71 264.996 282.715 264.375 282.094C263.755 281.473 262.744 281.481 262.123 282.102L259.472 284.769C258.78 283.209 258.883 280.741 260.403 279.221C262.123 277.493 264.861 277.286 266.763 278.719C267.424 279.221 267.902 279.69 268.204 280.478L293.859 280.447C294.95 278.059 298.396 277.231 300.386 278.09L297.736 280.797C297.115 281.418 297.115 282.452 297.736 283.073C298.357 283.694 299.368 283.718 299.988 283.097H299.981Z" fill="#263238"/>
<path opacity="0.6" d="M299.981 283.097L302.631 280.439C303.324 281.999 303.22 284.466 301.708 285.987C299.988 287.714 297.242 287.77 295.348 286.337C294.687 285.835 294.21 285.223 293.907 284.427L268.252 284.458C267.161 287.642 263.715 287.825 261.725 286.966L264.375 284.331C264.996 283.71 264.996 282.715 264.375 282.094C263.755 281.473 262.744 281.481 262.123 282.102L259.472 284.769C258.78 283.209 258.883 280.741 260.403 279.221C262.123 277.493 264.861 277.286 266.763 278.719C267.424 279.221 267.902 279.69 268.204 280.478L293.859 280.447C294.95 278.059 298.396 277.231 300.386 278.09L297.736 280.797C297.115 281.418 297.115 282.452 297.736 283.073C298.357 283.694 299.368 283.718 299.988 283.097H299.981Z" fill="white"/>
<path d="M108.877 227.409L113.837 221.399C114.656 220.404 115.874 219.831 117.164 219.831H121.741C122.903 219.831 123.588 221.144 122.919 222.1L119.751 226.597L108.877 227.409Z" fill="#407BFF"/>
<path opacity="0.3" d="M108.877 227.409L113.837 221.399C114.656 220.404 115.874 219.831 117.164 219.831H121.741C122.903 219.831 123.588 221.144 122.919 222.1L119.751 226.597L108.877 227.409Z" fill="black"/>
<path d="M56.6037 226.597L51.0317 208.305H104.252L108.877 227.409L56.6037 226.597Z" fill="#407BFF"/>
<path d="M51.0319 208.305L52.9821 205.782C54.001 204.461 55.5771 203.688 57.2407 203.688H102.716C103.99 203.688 104.945 204.859 104.69 206.108L104.244 208.305H51.0239H51.0319Z" fill="#407BFF"/>
<path opacity="0.3" d="M56.6037 226.597L51.0317 208.305H104.252L108.877 227.409L56.6037 226.597Z" fill="black"/>
<path opacity="0.2" d="M51.0319 208.305L52.9821 205.782C54.001 204.461 55.5771 203.688 57.2407 203.688H102.716C103.99 203.688 104.945 204.859 104.69 206.108L104.244 208.305H51.0239H51.0319Z" fill="black"/>
<path d="M78.9965 180.225L81.1584 180.697C81.4383 180.758 81.6224 181.034 81.5595 181.322L80.977 183.99L77.7963 183.295L78.3789 180.628C78.44 180.348 78.7165 180.164 79.0042 180.226L78.9965 180.225Z" fill="#407BFF"/>
<path d="M85.1075 181.561L87.2695 182.033C87.5494 182.094 87.7335 182.37 87.6706 182.658L87.0881 185.326L83.9074 184.631L84.49 181.963C84.5511 181.683 84.8276 181.499 85.1153 181.562L85.1075 181.561Z" fill="#407BFF"/>
<path d="M91.2169 182.896L93.3788 183.368C93.6588 183.429 93.8428 183.706 93.78 183.994L93.1974 186.661L90.0168 185.966L90.5993 183.299C90.6605 183.019 90.937 182.835 91.2247 182.898L91.2169 182.896Z" fill="#407BFF"/>
<path d="M97.3197 184.224L99.4816 184.696C99.7616 184.757 99.9456 185.033 99.8828 185.321L99.3002 187.989L96.1195 187.294L96.7021 184.627C96.7633 184.347 97.0397 184.163 97.3275 184.225L97.3197 184.224Z" fill="#407BFF"/>
<path d="M103.421 185.56L105.583 186.032C105.863 186.093 106.047 186.369 105.984 186.657L105.402 189.325L102.221 188.63L102.803 185.962C102.865 185.683 103.141 185.498 103.429 185.561L103.421 185.56Z" fill="#407BFF"/>
<path d="M109.523 186.895L111.684 187.367C111.964 187.428 112.148 187.705 112.086 187.993L111.503 190.66L108.322 189.965L108.905 187.298C108.966 187.018 109.243 186.834 109.53 186.897L109.523 186.895Z" fill="#407BFF"/>
<path d="M101.966 231.774L99.8038 231.302C99.5238 231.241 99.3398 230.965 99.4026 230.677L99.9852 228.009L103.166 228.704L102.583 231.372C102.522 231.651 102.246 231.836 101.958 231.773L101.966 231.774Z" fill="#407BFF"/>
<path d="M95.8922 230.428L93.7304 229.956C93.4505 229.894 93.2665 229.618 93.3293 229.33L93.9124 226.663L97.0929 227.358L96.5099 230.025C96.4487 230.305 96.1722 230.489 95.8845 230.426L95.8922 230.428Z" fill="#407BFF"/>
<path d="M89.7487 229.104L87.5867 228.632C87.3068 228.571 87.1227 228.295 87.1856 228.007L87.7681 225.34L90.9488 226.034L90.3662 228.702C90.3051 228.982 90.0286 229.166 89.7409 229.103L89.7487 229.104Z" fill="#407BFF"/>
<path d="M83.641 227.766L81.4791 227.294C81.1991 227.233 81.0151 226.956 81.0779 226.669L81.6605 224.001L84.8411 224.696L84.2586 227.363C84.1974 227.643 83.921 227.827 83.6332 227.764L83.641 227.766Z" fill="#407BFF"/>
<path d="M77.5397 226.435L75.3778 225.963C75.0978 225.902 74.9138 225.625 74.9766 225.337L75.5592 222.67L78.7398 223.365L78.1573 226.032C78.0961 226.312 77.8196 226.496 77.5319 226.433L77.5397 226.435Z" fill="#407BFF"/>
<path d="M71.4301 225.104L69.2681 224.632C68.9882 224.571 68.8041 224.294 68.867 224.006L69.4495 221.339L72.6302 222.034L72.0476 224.701C71.9865 224.981 71.71 225.165 71.4223 225.102L71.4301 225.104Z" fill="#407BFF"/>
<g opacity="0.4">
<path d="M78.9965 180.225L81.1584 180.697C81.4383 180.758 81.6224 181.034 81.5595 181.322L80.977 183.99L77.7963 183.295L78.3789 180.628C78.44 180.348 78.7165 180.164 79.0042 180.226L78.9965 180.225Z" fill="white"/>
<path d="M85.1075 181.561L87.2695 182.033C87.5494 182.094 87.7335 182.37 87.6706 182.658L87.0881 185.326L83.9074 184.631L84.49 181.963C84.5511 181.683 84.8276 181.499 85.1153 181.562L85.1075 181.561Z" fill="white"/>
<path d="M91.2169 182.896L93.3788 183.368C93.6588 183.429 93.8428 183.706 93.78 183.994L93.1974 186.661L90.0168 185.966L90.5993 183.299C90.6605 183.019 90.937 182.835 91.2247 182.898L91.2169 182.896Z" fill="white"/>
<path d="M97.3197 184.224L99.4816 184.696C99.7616 184.757 99.9456 185.033 99.8828 185.321L99.3002 187.989L96.1195 187.294L96.7021 184.627C96.7633 184.347 97.0397 184.163 97.3275 184.225L97.3197 184.224Z" fill="white"/>
<path d="M103.421 185.56L105.583 186.032C105.863 186.093 106.047 186.369 105.984 186.657L105.402 189.325L102.221 188.63L102.803 185.962C102.865 185.683 103.141 185.498 103.429 185.561L103.421 185.56Z" fill="white"/>
<path d="M109.523 186.895L111.684 187.367C111.964 187.428 112.148 187.705 112.086 187.993L111.503 190.66L108.322 189.965L108.905 187.298C108.966 187.018 109.243 186.834 109.53 186.897L109.523 186.895Z" fill="white"/>
<path d="M101.966 231.774L99.8038 231.302C99.5238 231.241 99.3398 230.965 99.4026 230.677L99.9852 228.009L103.166 228.704L102.583 231.372C102.522 231.651 102.246 231.836 101.958 231.773L101.966 231.774Z" fill="white"/>
<path d="M95.8922 230.428L93.7304 229.956C93.4505 229.894 93.2665 229.618 93.3293 229.33L93.9124 226.663L97.0929 227.358L96.5099 230.025C96.4487 230.305 96.1722 230.489 95.8845 230.426L95.8922 230.428Z" fill="white"/>
<path d="M89.7487 229.104L87.5867 228.632C87.3068 228.571 87.1227 228.295 87.1856 228.007L87.7681 225.34L90.9488 226.034L90.3662 228.702C90.3051 228.982 90.0286 229.166 89.7409 229.103L89.7487 229.104Z" fill="white"/>
<path d="M83.641 227.766L81.4791 227.294C81.1991 227.233 81.0151 226.956 81.0779 226.669L81.6605 224.001L84.8411 224.696L84.2586 227.363C84.1974 227.643 83.921 227.827 83.6332 227.764L83.641 227.766Z" fill="white"/>
<path d="M77.5397 226.435L75.3778 225.963C75.0978 225.902 74.9138 225.625 74.9766 225.337L75.5592 222.67L78.7398 223.365L78.1573 226.032C78.0961 226.312 77.8196 226.496 77.5319 226.433L77.5397 226.435Z" fill="white"/>
<path d="M71.4301 225.104L69.2681 224.632C68.9882 224.571 68.8041 224.294 68.867 224.006L69.4495 221.339L72.6302 222.034L72.0476 224.701C71.9865 224.981 71.71 225.165 71.4223 225.102L71.4301 225.104Z" fill="white"/>
</g>
<path d="M115.894 190.476L75.6962 181.696C74.1672 181.363 72.657 182.331 72.3231 183.86L64.7532 218.521C64.4192 220.05 65.388 221.56 66.917 221.894L107.115 230.673C108.644 231.007 110.154 230.039 110.488 228.51L118.058 193.849C118.392 192.32 117.423 190.81 115.894 190.476Z" fill="#263238"/>
<path opacity="0.4" d="M70.7891 222.752L66.9046 221.901C65.3763 221.566 64.4051 220.062 64.7395 218.526L72.3094 183.868C72.6437 182.339 74.1482 181.368 75.6845 181.703L79.5689 182.554C78.0406 182.22 76.5282 183.183 76.1939 184.719L68.6239 219.377C68.2896 220.906 69.2528 222.418 70.7891 222.752Z" fill="black"/>
<path d="M63.5459 217.22L64.0181 215.058C64.0793 214.778 64.3557 214.594 64.6434 214.657L67.3109 215.24L66.6162 218.42L63.9488 217.838C63.6688 217.777 63.4848 217.5 63.5476 217.212L63.5459 217.22Z" fill="#407BFF"/>
<path d="M64.8812 211.154L65.3538 208.992C65.415 208.712 65.6915 208.528 65.9792 208.591L68.6465 209.174L67.9513 212.355L65.284 211.772C65.004 211.711 64.82 211.434 64.8829 211.146L64.8812 211.154Z" fill="#407BFF"/>
<path d="M66.2152 205.04L66.6878 202.878C66.749 202.598 67.0255 202.414 67.3132 202.477L69.9805 203.06L69.2853 206.241L66.618 205.658C66.338 205.596 66.154 205.32 66.2169 205.032L66.2152 205.04Z" fill="#407BFF"/>
<path d="M67.547 198.943L68.0196 196.781C68.0807 196.501 68.3573 196.317 68.645 196.38L71.3123 196.963L70.6171 200.144L67.9498 199.561C67.6698 199.5 67.4858 199.223 67.5487 198.935L67.547 198.943Z" fill="#407BFF"/>
<path d="M68.8763 192.804L69.3484 190.642C69.4096 190.362 69.6861 190.178 69.9738 190.241L72.6412 190.823L71.9465 194.004L69.2791 193.421C68.9992 193.36 68.8151 193.084 68.878 192.796L68.8763 192.804Z" fill="#407BFF"/>
<path d="M70.2098 186.692L70.6819 184.53C70.7431 184.25 71.0196 184.066 71.3073 184.129L73.9747 184.711L73.28 187.892L70.6126 187.309C70.3327 187.248 70.1486 186.972 70.2115 186.684L70.2098 186.692Z" fill="#407BFF"/>
<g opacity="0.4">
<path d="M63.5459 217.22L64.0181 215.058C64.0793 214.778 64.3557 214.594 64.6434 214.657L67.3109 215.24L66.6162 218.42L63.9488 217.838C63.6688 217.777 63.4848 217.5 63.5476 217.212L63.5459 217.22Z" fill="white"/>
<path d="M64.8812 211.154L65.3538 208.992C65.415 208.712 65.6915 208.528 65.9792 208.591L68.6465 209.174L67.9513 212.355L65.284 211.772C65.004 211.711 64.82 211.434 64.8829 211.146L64.8812 211.154Z" fill="white"/>
<path d="M66.2152 205.04L66.6878 202.878C66.749 202.598 67.0255 202.414 67.3132 202.477L69.9805 203.06L69.2853 206.241L66.618 205.658C66.338 205.596 66.154 205.32 66.2169 205.032L66.2152 205.04Z" fill="white"/>
<path d="M67.547 198.943L68.0196 196.781C68.0807 196.501 68.3573 196.317 68.645 196.38L71.3123 196.963L70.6171 200.144L67.9498 199.561C67.6698 199.5 67.4858 199.223 67.5487 198.935L67.547 198.943Z" fill="white"/>
<path d="M68.8763 192.804L69.3484 190.642C69.4096 190.362 69.6861 190.178 69.9738 190.241L72.6412 190.823L71.9465 194.004L69.2791 193.421C68.9992 193.36 68.8151 193.084 68.878 192.796L68.8763 192.804Z" fill="white"/>
<path d="M70.2098 186.692L70.6819 184.53C70.7431 184.25 71.0196 184.066 71.3073 184.129L73.9747 184.711L73.28 187.892L70.6126 187.309C70.3327 187.248 70.1486 186.972 70.2115 186.684L70.2098 186.692Z" fill="white"/>
</g>
<path d="M119.742 226.597H56.6038V287.435H119.742V226.597Z" fill="#407BFF"/>
<path opacity="0.2" d="M67.1985 226.597H56.6038V287.435H67.1985V226.597Z" fill="black"/>
<path d="M67.1987 226.597L61.4117 219.513C60.5521 218.462 59.2785 217.857 57.9253 217.857H53.2607C51.7722 217.857 50.9523 219.576 51.8836 220.73L56.6039 226.597H67.1987Z" fill="#407BFF"/>
<path d="M217.889 116.104C213.742 118.158 205.081 121.796 196.946 121.214C194.948 121.071 192.982 120.681 191.127 119.941C188.461 118.882 186.765 116.192 185.754 112.626C182.069 99.7384 187.227 75.4126 187.227 75.4126C194.725 76.6384 201.969 105.876 204.802 107.475C207.636 109.075 219.696 108.518 219.696 108.518L220.094 112.092C220.277 113.764 219.393 115.364 217.889 116.104Z" fill="#407BFF"/>
<path opacity="0.3" d="M196.946 121.214C194.948 121.071 192.982 120.681 191.127 119.941C188.461 118.882 186.765 116.192 185.754 112.626C186.041 110.699 186.383 109.338 186.383 109.338L200.17 105.374C200.17 105.374 200.743 115.332 196.946 121.214Z" fill="black"/>
<path d="M186.144 281.322L192.799 282.031L194.049 267.663L187.394 266.962L186.144 281.322Z" fill="#B97964"/>
<path d="M152.904 280.837H159.359L159.892 265.888H153.429L152.904 280.837Z" fill="#B97964"/>
<path d="M160.258 280.088H152.418C152.155 280.088 151.924 280.271 151.869 280.534L150.595 286.281C150.484 286.798 150.818 287.3 151.327 287.411C151.399 287.427 151.463 287.435 151.534 287.435C154.073 287.395 155.92 287.236 159.104 287.236C161.07 287.236 166.985 287.443 169.699 287.443C172.413 287.443 172.764 284.768 171.649 284.522C166.674 283.439 162.933 281.935 161.341 280.51C161.046 280.239 160.656 280.088 160.258 280.096V280.088Z" fill="#263238"/>
<path d="M160.696 280.988C160.633 280.972 160.593 280.916 160.585 280.852C160.577 280.789 160.601 280.733 160.656 280.701C160.887 280.55 162.973 279.276 163.689 279.643C163.856 279.722 163.96 279.889 163.952 280.072C163.992 280.383 163.872 280.693 163.633 280.892C163.267 281.139 162.829 281.258 162.392 281.219C161.819 281.203 161.253 281.123 160.704 280.98L160.696 280.988ZM161.142 280.773C161.898 281.028 162.718 280.988 163.442 280.661C163.594 280.526 163.673 280.319 163.649 280.112C163.641 279.993 163.594 279.929 163.554 279.929C163.49 279.897 163.426 279.881 163.355 279.889C162.567 280.04 161.819 280.343 161.15 280.773H161.142Z" fill="#407BFF"/>
<path d="M160.656 281.02C160.609 280.988 160.585 280.94 160.585 280.876C160.593 280.789 160.752 278.934 161.492 278.321C161.667 278.162 161.906 278.09 162.137 278.122C162.376 278.122 162.583 278.289 162.63 278.528C162.758 279.213 161.476 280.63 160.808 280.988H160.736C160.736 280.988 160.68 281.012 160.656 281.012V281.02ZM161.691 278.504C161.237 279.085 160.975 279.786 160.927 280.526C161.596 280.025 162.416 278.95 162.328 278.528C162.32 278.488 162.304 278.369 162.105 278.369H162.033C161.906 278.369 161.787 278.417 161.691 278.504Z" fill="#407BFF"/>
<path d="M193.507 279.889H185.667C185.404 279.889 185.173 280.072 185.117 280.335L183.844 286.082C183.732 286.599 184.067 287.101 184.576 287.212C184.648 287.228 184.711 287.236 184.783 287.236C187.322 287.196 189.169 287.037 192.353 287.037C194.319 287.037 200.233 287.244 202.948 287.244C205.662 287.244 206.012 284.57 204.898 284.323C199.923 283.24 196.182 281.736 194.59 280.311C194.295 280.04 193.905 279.889 193.507 279.897V279.889Z" fill="#263238"/>
<path d="M193.945 280.781C193.882 280.765 193.842 280.709 193.834 280.653C193.826 280.59 193.85 280.534 193.905 280.502C194.136 280.351 196.222 279.077 196.938 279.443C197.105 279.523 197.209 279.69 197.201 279.873C197.241 280.184 197.121 280.494 196.882 280.693C196.516 280.94 196.078 281.059 195.641 281.019C195.068 281.003 194.502 280.924 193.953 280.781H193.945ZM194.391 280.566C195.147 280.82 195.967 280.781 196.691 280.454C196.843 280.319 196.922 280.112 196.898 279.905C196.89 279.786 196.843 279.722 196.803 279.722C196.739 279.69 196.675 279.674 196.604 279.682C195.816 279.833 195.068 280.136 194.399 280.566H194.391Z" fill="#407BFF"/>
<path d="M193.905 280.813C193.858 280.781 193.834 280.733 193.834 280.669C193.842 280.582 194.001 278.727 194.741 278.114C194.916 277.955 195.155 277.883 195.386 277.915C195.625 277.915 195.832 278.082 195.879 278.321C196.007 279.006 194.725 280.423 194.057 280.781H193.985C193.985 280.781 193.929 280.805 193.905 280.805V280.813ZM194.94 278.305C194.486 278.886 194.224 279.587 194.176 280.327C194.845 279.826 195.665 278.751 195.577 278.329C195.569 278.289 195.553 278.17 195.354 278.17H195.282C195.155 278.17 195.036 278.218 194.94 278.297V278.305Z" fill="#407BFF"/>
<path opacity="0.2" d="M187.394 266.962L194.048 267.663L193.404 275.074L186.741 274.365L187.394 266.962Z" fill="black"/>
<path opacity="0.2" d="M153.429 265.896H159.893L159.614 273.609H153.15L153.429 265.896Z" fill="black"/>
<path d="M156.096 134.747H190.355C193.611 152.529 203.808 215.469 196.493 271.555L184.895 270.114C184.895 270.114 185.969 195.664 175.733 168.147C174.555 182.873 173.154 198.546 171.944 206.888C168.967 227.417 162.583 272.271 162.583 272.271H150.778C150.778 272.271 153.19 229.335 154.305 209.165C155.522 187.267 156.056 139.252 156.096 134.755V134.747Z" fill="#263238"/>
<path opacity="0.2" d="M175.733 168.147C177.245 172.206 178.503 177.269 179.561 182.968C180.517 169.858 176.688 155.96 176.688 155.96L175.733 168.147Z" fill="black"/>
<path d="M197.814 274.253L183.462 272.12L183.9 268.148L198.833 270.106L197.814 274.253Z" fill="#407BFF"/>
<path opacity="0.6" d="M197.814 274.253L183.462 272.12L183.9 268.148L198.833 270.106L197.814 274.253Z" fill="white"/>
<path d="M163.999 272.367H150.077V268.204L164.525 267.933L163.999 272.367Z" fill="#407BFF"/>
<path opacity="0.6" d="M163.999 272.367H150.077V268.204L164.525 267.933L163.999 272.367Z" fill="white"/>
<path d="M155.371 147.57V151.272L193.316 149.417V146.074L155.371 147.57Z" fill="#407BFF"/>
<path d="M216.353 110.668C216.353 110.668 216.13 112.435 218.963 113.979H222.585C222.585 113.979 224.002 114.823 224.949 114.775C225.897 114.735 230.426 111.384 231.246 110.66C232.066 109.935 229.829 101.832 229.829 101.832L216.353 110.66V110.668Z" fill="#B97964"/>
<path d="M187.227 75.4128C187.227 75.4128 165.433 74.3542 149.202 78.4536C149.202 78.4536 154.448 125.449 154.48 147.045C154.48 147.984 155.26 148.732 156.207 148.701L192.807 147.427C193.73 147.395 194.447 146.623 194.415 145.708C194.089 136.784 192.282 94.3258 187.235 75.4208L187.227 75.4128Z" fill="#407BFF"/>
<path opacity="0.2" d="M194.407 145.7C194.439 146.623 193.722 147.387 192.799 147.419L156.199 148.693C155.26 148.732 154.48 147.984 154.48 147.037C154.48 142.643 154.249 137.19 153.899 131.3C153.731 128.641 153.548 125.895 153.341 123.109C153.111 119.846 152.848 116.534 152.577 113.271C151.956 105.82 151.28 98.6003 150.691 92.6861C149.847 84.2405 149.202 78.4536 149.202 78.4536C165.433 74.3542 187.227 75.4128 187.227 75.4128C192.274 94.3178 194.081 136.776 194.407 145.7Z" fill="black"/>
<path d="M161.596 76.2483C164.74 79.106 172.445 78.0473 172.445 78.0473C172.445 78.0473 177.253 76.7339 176.242 75.2294C173.408 74.7598 172.039 73.4384 171.474 71.7509C171.148 70.7639 171.1 69.6574 171.188 68.5192C171.227 67.9222 171.315 67.3092 171.426 66.7122L161.906 59.6597C163.156 64.3163 164.684 72.8812 161.604 76.2563L161.596 76.2483Z" fill="#B97964"/>
<path opacity="0.2" d="M164.095 64.1416C164.469 69.8569 169.166 71.433 171.466 71.7514C171.14 70.7643 171.092 69.6579 171.18 68.5196L164.095 64.1416Z" fill="black"/>
<path d="M180.532 46.0801C180.532 46.0801 181.886 54.9715 177.165 58.3943C172.445 61.8171 172.445 45.2603 172.445 45.2603L180.532 46.0801Z" fill="#263238"/>
<path d="M163.458 65.4631C165.751 68.7586 169.484 69.6183 172.724 68.5914C174.809 67.9307 176.688 66.49 177.858 64.4124C178.017 64.1418 178.153 63.8552 178.288 63.5607C180.612 58.124 181.353 48.6198 175.605 45.0537C171.522 42.4826 166.125 43.7085 163.554 47.7919C162.814 48.9461 162.368 50.2675 162.241 51.6446C161.532 57.9967 160.824 61.706 163.466 65.4631H163.458Z" fill="#B97964"/>
<path d="M171.498 55.0434C171.378 55.5449 171.609 56.0145 171.952 56.0702C172.294 56.126 172.628 55.7518 172.716 55.2424C172.803 54.733 172.596 54.2713 172.262 54.2156C171.928 54.1598 171.585 54.526 171.498 55.0434Z" fill="#263238"/>
<path d="M177.301 56.0303C177.182 56.5318 177.42 57.0014 177.755 57.0572C178.089 57.1129 178.431 56.7388 178.519 56.2293C178.606 55.7199 178.399 55.2582 178.065 55.2025C177.731 55.1468 177.381 55.5448 177.301 56.0303Z" fill="#263238"/>
<path d="M175.414 55.9668C175.756 57.6384 176.329 59.2622 177.118 60.7746C176.314 61.1647 175.382 61.1806 174.57 60.8144L175.414 55.9668Z" fill="#A24E3F"/>
<path d="M170.017 52.8539C170.129 52.8858 170.248 52.8619 170.328 52.7902C170.885 52.241 171.657 51.9942 172.429 52.1136C172.588 52.1534 172.756 52.0579 172.795 51.8908C172.835 51.7316 172.74 51.5644 172.573 51.5246C171.601 51.3495 170.614 51.6599 169.914 52.3445C169.787 52.4559 169.779 52.647 169.89 52.7743C169.93 52.8062 169.97 52.838 170.017 52.8539Z" fill="#263238"/>
<path d="M173.281 63.3295C171.753 63.2977 170.336 62.5256 169.476 61.2599C169.429 61.1803 169.46 61.0848 169.532 61.0371C169.604 60.9893 169.699 61.0132 169.747 61.0848C169.747 61.0848 169.747 61.0848 169.747 61.0928C170.559 62.247 171.872 62.9554 173.289 62.9952C173.377 62.9952 173.448 63.0669 173.448 63.1465C173.448 63.1465 173.448 63.1544 173.448 63.1624C173.448 63.2499 173.377 63.3216 173.297 63.3216C173.297 63.3216 173.289 63.3216 173.281 63.3216V63.3295Z" fill="#263238"/>
<path d="M180.134 54.4539C180.19 54.4857 180.246 54.5017 180.31 54.4937C180.469 54.4459 180.564 54.2788 180.524 54.1196C180.27 53.1644 179.569 52.4002 178.646 52.0579C178.487 52.0102 178.32 52.0977 178.264 52.2569C178.216 52.4161 178.312 52.5833 178.471 52.639C179.195 52.9256 179.736 53.5465 179.935 54.2947C179.975 54.3743 180.055 54.438 180.142 54.4539H180.134Z" fill="#263238"/>
<path d="M168.202 44.5758V47.4175C167.223 47.7917 166.547 48.7628 166.833 49.917C167.446 52.3766 165.671 55.8631 163.689 57.0969C163.689 57.0969 163.761 56.0701 162.869 56.2054C161.978 56.3407 161.572 61.6819 162.941 64.4121C162.941 64.4121 160.68 61.8092 159.932 56.0621C159.239 50.7448 159.598 46.4305 160.895 44.5679H168.21L168.202 44.5758Z" fill="#263238"/>
<path d="M158.595 56.3405C159.049 57.8848 160.099 59.1902 161.516 59.9623C163.395 60.9733 164.796 59.3972 164.668 57.3833C164.541 55.5923 163.427 52.8461 161.341 52.6949C159.255 52.5357 158.054 54.4461 158.595 56.3485V56.3405Z" fill="#B97964"/>
<path d="M168.203 47.4093C168.203 47.4093 170.049 49.2401 171.84 47.9028C171.84 47.9028 173.87 49.5903 175.518 48.3963C175.518 48.3963 176.425 49.9246 177.906 50.1077C179.386 50.2908 179.394 48.7625 179.394 48.7625C179.394 48.7625 181.735 50.1077 182.602 49.4789C183.47 48.85 182.133 46.3267 182.133 46.3267C182.133 46.3267 183.231 45.7297 182.523 43.7079C181.814 41.686 178.543 42.1557 178.543 42.1557C178.543 42.1557 178.67 40.2691 176.385 38.2951C174.101 36.3289 172.74 38.7647 172.74 38.7647C172.74 38.7647 170.527 35.7717 167.789 36.1697C165.05 36.5677 165.361 38.4543 165.361 38.4543C165.361 38.4543 162.209 36.4881 160.792 38.4543C159.375 40.4204 160.792 41.3676 160.792 41.3676C160.792 41.3676 157.64 42.4263 157.799 44.5755C157.958 46.7247 159.574 46.4063 159.574 46.4063C159.574 46.4063 158.666 47.4331 160.712 48.2928C162.758 49.1525 164.684 47.0351 164.684 47.0351C164.684 47.0351 163.888 48.253 165.361 49.0809C166.833 49.9087 168.203 47.4093 168.203 47.4093Z" fill="#263238"/>
<path d="M172.445 78.0557C172.445 78.0557 161.333 70.5096 157.799 70.0797C154.265 69.6499 154.893 74.0677 154.893 74.0677C154.893 74.0677 152.163 74.0677 153.214 77.4268C154.265 80.7859 169.357 82.6406 174.929 80.977C180.501 79.3133 183.82 76.193 182.897 73.2399C181.973 70.2867 179.394 72.818 179.394 72.818C179.394 72.818 177.898 70.0399 175.733 70.6927C173.575 71.3454 172.445 78.0557 172.445 78.0557Z" fill="#407BFF"/>
<path d="M170.798 80.9771C174.029 86.5491 169.078 92.8852 171.586 98.6562" stroke="white" stroke-width="0.796" stroke-linecap="round" stroke-linejoin="round"/>
<path d="M175.844 79.8384C175.844 79.8384 178.694 82.1309 180.015 87.074C181.344 92.0172 179.346 97.0001 179.346 97.0001" stroke="white" stroke-width="0.796" stroke-linecap="round" stroke-linejoin="round"/>
<path d="M192.263 72.8502L194.422 72.3664C194.702 72.3037 194.985 72.4768 195.05 72.7642L195.647 75.4284L192.47 76.1402L191.873 73.476C191.81 73.1964 191.983 72.9129 192.27 72.8485L192.263 72.8502Z" fill="#407BFF"/>
<path d="M198.359 71.4787L200.518 70.9948C200.798 70.9322 201.081 71.1052 201.146 71.3926L201.743 74.0568L198.566 74.7687L197.969 72.1044C197.906 71.8248 198.079 71.5413 198.367 71.4769L198.359 71.4787Z" fill="#407BFF"/>
<path d="M204.455 70.1149L206.614 69.631C206.894 69.5684 207.177 69.7414 207.242 70.0288L207.839 72.693L204.662 73.4049L204.065 70.7407C204.002 70.4611 204.175 70.1776 204.463 70.1132L204.455 70.1149Z" fill="#407BFF"/>
<path d="M210.559 68.7414L212.718 68.2575C212.998 68.1948 213.281 68.3679 213.346 68.6553L213.943 71.3195L210.766 72.0314L210.169 69.3671C210.106 69.0875 210.279 68.804 210.567 68.7396L210.559 68.7414Z" fill="#407BFF"/>
<path d="M216.657 67.3771L218.816 66.8932C219.096 66.8306 219.379 67.0036 219.444 67.291L220.041 69.9552L216.864 70.6671L216.267 68.0029C216.204 67.7233 216.377 67.4398 216.664 67.3754L216.657 67.3771Z" fill="#407BFF"/>
<path d="M222.753 66.0138L224.913 65.53C225.192 65.4673 225.476 65.6403 225.54 65.9277L226.137 68.592L222.96 69.3038L222.363 66.6396C222.301 66.36 222.474 66.0765 222.761 66.0121L222.753 66.0138Z" fill="#407BFF"/>
<path d="M234.861 109.843L232.701 110.326C232.422 110.389 232.138 110.216 232.074 109.929L231.477 107.264L234.654 106.553L235.251 109.217C235.313 109.496 235.14 109.78 234.853 109.844L234.861 109.843Z" fill="#407BFF"/>
<path d="M228.756 111.217L226.597 111.701C226.317 111.763 226.034 111.59 225.969 111.303L225.372 108.639L228.549 107.927L229.146 110.591C229.209 110.871 229.036 111.154 228.748 111.218L228.756 111.217Z" fill="#407BFF"/>
<path d="M222.657 112.583L220.498 113.067C220.219 113.129 219.935 112.956 219.871 112.669L219.274 110.005L222.45 109.293L223.047 111.957C223.11 112.237 222.937 112.52 222.65 112.585L222.657 112.583Z" fill="#407BFF"/>
<path d="M216.559 113.95L214.4 114.433C214.12 114.496 213.836 114.323 213.772 114.036L213.175 111.371L216.352 110.66L216.949 113.324C217.012 113.603 216.838 113.887 216.551 113.951L216.559 113.95Z" fill="#407BFF"/>
<path d="M210.468 115.315L208.309 115.799C208.03 115.861 207.746 115.688 207.682 115.401L207.085 112.737L210.262 112.025L210.859 114.689C210.921 114.969 210.748 115.252 210.461 115.317L210.468 115.315Z" fill="#407BFF"/>
<path d="M204.364 116.681L202.204 117.164C201.925 117.227 201.641 117.054 201.577 116.767L200.98 114.102L204.157 113.391L204.754 116.055C204.816 116.334 204.643 116.618 204.356 116.682L204.364 116.681Z" fill="#407BFF"/>
<g opacity="0.4">
<path d="M192.263 72.8502L194.422 72.3664C194.702 72.3037 194.985 72.4768 195.05 72.7642L195.647 75.4284L192.47 76.1402L191.873 73.476C191.81 73.1964 191.983 72.9129 192.27 72.8485L192.263 72.8502Z" fill="black"/>
<path d="M198.359 71.4787L200.518 70.9948C200.798 70.9322 201.081 71.1052 201.146 71.3926L201.743 74.0568L198.566 74.7687L197.969 72.1044C197.906 71.8248 198.079 71.5413 198.367 71.4769L198.359 71.4787Z" fill="black"/>
<path d="M204.455 70.1149L206.614 69.631C206.894 69.5684 207.177 69.7414 207.242 70.0288L207.839 72.693L204.662 73.4049L204.065 70.7407C204.002 70.4611 204.175 70.1776 204.463 70.1132L204.455 70.1149Z" fill="black"/>
<path d="M210.559 68.7414L212.718 68.2575C212.998 68.1948 213.281 68.3679 213.346 68.6553L213.943 71.3195L210.766 72.0314L210.169 69.3671C210.106 69.0875 210.279 68.804 210.567 68.7396L210.559 68.7414Z" fill="black"/>
<path d="M216.657 67.3771L218.816 66.8932C219.096 66.8306 219.379 67.0036 219.444 67.291L220.041 69.9552L216.864 70.6671L216.267 68.0029C216.204 67.7233 216.377 67.4398 216.664 67.3754L216.657 67.3771Z" fill="black"/>
<path d="M222.753 66.0138L224.913 65.53C225.192 65.4673 225.476 65.6403 225.54 65.9277L226.137 68.592L222.96 69.3038L222.363 66.6396C222.301 66.36 222.474 66.0765 222.761 66.0121L222.753 66.0138Z" fill="black"/>
<path d="M234.861 109.843L232.701 110.326C232.422 110.389 232.138 110.216 232.074 109.929L231.477 107.264L234.654 106.553L235.251 109.217C235.313 109.496 235.14 109.78 234.853 109.844L234.861 109.843Z" fill="black"/>
<path d="M228.756 111.217L226.597 111.701C226.317 111.763 226.034 111.59 225.969 111.303L225.372 108.639L228.549 107.927L229.146 110.591C229.209 110.871 229.036 111.154 228.748 111.218L228.756 111.217Z" fill="black"/>
<path d="M222.657 112.583L220.498 113.067C220.219 113.129 219.935 112.956 219.871 112.669L219.274 110.005L222.45 109.293L223.047 111.957C223.11 112.237 222.937 112.52 222.65 112.585L222.657 112.583Z" fill="black"/>
<path d="M216.559 113.95L214.4 114.433C214.12 114.496 213.836 114.323 213.772 114.036L213.175 111.371L216.352 110.66L216.949 113.324C217.012 113.603 216.838 113.887 216.551 113.951L216.559 113.95Z" fill="black"/>
<path d="M210.468 115.315L208.309 115.799C208.03 115.861 207.746 115.688 207.682 115.401L207.085 112.737L210.262 112.025L210.859 114.689C210.921 114.969 210.748 115.252 210.461 115.317L210.468 115.315Z" fill="black"/>
<path d="M204.364 116.681L202.204 117.164C201.925 117.227 201.641 117.054 201.577 116.767L200.98 114.102L204.157 113.391L204.754 116.055C204.816 116.334 204.643 116.618 204.356 116.682L204.364 116.681Z" fill="black"/>
</g>
<path d="M230.037 66.5869L189.887 75.5835C188.36 75.9257 187.399 77.4411 187.741 78.9683L195.499 113.588C195.841 115.115 197.356 116.075 198.884 115.733L239.033 106.737C240.56 106.394 241.521 104.879 241.179 103.352L233.421 68.7325C233.079 67.2053 231.564 66.2447 230.037 66.5869Z" fill="#263238"/>
<path opacity="0.4" d="M202.773 114.847L198.888 115.714C197.36 116.056 195.848 115.101 195.505 113.565L187.744 78.9469C187.402 77.4186 188.357 75.9062 189.893 75.5639L193.778 74.6963C192.25 75.0386 191.286 76.551 191.629 78.0793L199.39 112.697C199.732 114.226 201.244 115.189 202.773 114.847Z" fill="black"/>
<path d="M193.896 112.911L193.412 110.752C193.349 110.472 193.522 110.189 193.81 110.124L196.474 109.527L197.186 112.704L194.522 113.301C194.242 113.364 193.959 113.191 193.894 112.903L193.896 112.911Z" fill="#407BFF"/>
<path d="M192.534 106.809L192.05 104.65C191.988 104.37 192.161 104.087 192.448 104.022L195.112 103.425L195.824 106.602L193.16 107.199C192.88 107.262 192.597 107.089 192.532 106.801L192.534 106.809Z" fill="#407BFF"/>
<path d="M191.166 100.706L190.682 98.5467C190.619 98.2671 190.792 97.9836 191.08 97.9192L193.744 97.3222L194.456 100.499L191.792 101.096C191.512 101.159 191.229 100.986 191.164 100.698L191.166 100.706Z" fill="#407BFF"/>
<path d="M189.798 94.6113L189.314 92.452C189.252 92.1724 189.425 91.8889 189.712 91.8245L192.376 91.2275L193.088 94.4044L190.424 95.0013C190.144 95.064 189.861 94.891 189.797 94.6036L189.798 94.6113Z" fill="#407BFF"/>
<path d="M188.43 88.5186L187.946 86.3592C187.884 86.0796 188.057 85.7961 188.344 85.7317L191.008 85.1347L191.72 88.3116L189.056 88.9086C188.776 88.9712 188.493 88.7982 188.429 88.5108L188.43 88.5186Z" fill="#407BFF"/>
<path d="M187.061 82.4077L186.577 80.2484C186.514 79.9688 186.687 79.6853 186.975 79.6209L189.639 79.0239L190.351 82.2007L187.686 82.7977C187.407 82.8604 187.123 82.6873 187.059 82.3999L187.061 82.4077Z" fill="#407BFF"/>
<g opacity="0.4">
<path d="M193.896 112.911L193.412 110.752C193.349 110.472 193.522 110.189 193.81 110.124L196.474 109.527L197.186 112.704L194.522 113.301C194.242 113.364 193.959 113.191 193.894 112.903L193.896 112.911Z" fill="black"/>
<path d="M192.534 106.809L192.05 104.65C191.988 104.37 192.161 104.087 192.448 104.022L195.112 103.425L195.824 106.602L193.16 107.199C192.88 107.262 192.597 107.089 192.532 106.801L192.534 106.809Z" fill="black"/>
<path d="M191.166 100.706L190.682 98.5467C190.619 98.2671 190.792 97.9836 191.08 97.9192L193.744 97.3222L194.456 100.499L191.792 101.096C191.512 101.159 191.229 100.986 191.164 100.698L191.166 100.706Z" fill="black"/>
<path d="M189.798 94.6113L189.314 92.452C189.252 92.1724 189.425 91.8889 189.712 91.8245L192.376 91.2275L193.088 94.4044L190.424 95.0013C190.144 95.064 189.861 94.891 189.797 94.6036L189.798 94.6113Z" fill="black"/>
<path d="M188.43 88.5186L187.946 86.3592C187.884 86.0796 188.057 85.7961 188.344 85.7317L191.008 85.1347L191.72 88.3116L189.056 88.9086C188.776 88.9712 188.493 88.7982 188.429 88.5108L188.43 88.5186Z" fill="black"/>
<path d="M187.061 82.4077L186.577 80.2484C186.514 79.9688 186.687 79.6853 186.975 79.6209L189.639 79.0239L190.351 82.2007L187.686 82.7977C187.407 82.8604 187.123 82.6873 187.059 82.3999L187.061 82.4077Z" fill="black"/>
</g>
<path d="M168.203 125.219L169.818 126.07C169.818 126.07 168.107 138.353 164.103 141.027L162.463 139.141C162.463 139.141 168.131 131.762 168.21 125.219H168.203Z" fill="#407BFF"/>
<path d="M188.389 124.184L186.383 125.218C186.383 125.218 190.093 137.095 192.489 139.769L193.858 137.883C193.858 137.883 189.297 130.329 188.389 124.184Z" fill="#407BFF"/>
<path opacity="0.2" d="M168.004 117.943C168.004 117.943 162.869 128.355 153.899 131.3C153.731 128.641 153.548 125.895 153.341 123.109C153.11 119.845 152.848 116.534 152.577 113.271L168.004 117.943Z" fill="black"/>
<path d="M174.921 109.879L185.269 106.393C185.269 106.393 194.558 98.1146 196.604 98.1623C198.65 98.2101 200.385 103.4 201.324 105.366C202.271 107.34 192.56 111.336 191.111 112.172C189.671 113.008 187.665 112.172 187.665 112.172L177.102 116.789L174.913 109.879H174.921Z" fill="#B97964"/>
<path d="M149.202 78.4536C139.555 79.7352 144.553 116.057 150.77 123.189C155.96 129.151 174.889 120.395 180.986 117.346C182.085 116.797 182.61 115.523 182.22 114.353L180.437 109.012C180.023 107.786 178.742 107.078 177.484 107.396C172.35 108.702 159.964 111.639 158.46 109.88C156.557 107.659 154.034 96.7457 154.456 89.8125C154.878 82.8794 149.194 78.4536 149.194 78.4536H149.202Z" fill="#407BFF"/>
<path d="M178.941 107.476L182.26 115.786L185.229 113.979L182.356 106.664L178.941 107.476Z" fill="#407BFF"/>
<path opacity="0.3" d="M178.941 107.476L182.26 115.786L185.229 113.979L182.356 106.664L178.941 107.476Z" fill="black"/>
<path d="M339.43 11.152V240.36C339.43 242.247 337.918 243.711 336.031 243.711H229.359C228.508 243.711 227.767 243.393 227.226 242.86C226.661 242.31 226.319 241.522 226.319 240.639V10.8813C226.319 9.37688 227.417 8.07144 228.922 8.07144H259.217C260.069 8.07144 260.849 8.62864 261.167 9.4326L262.425 12.5211C262.744 13.3171 263.524 13.8663 264.375 13.8663H301.445C302.305 13.8663 303.077 13.341 303.395 12.537L304.653 9.4326C304.971 8.62864 305.751 8.06348 306.603 8.06348H336.461C338.117 8.06348 339.43 9.49628 339.43 11.152Z" fill="#407BFF"/>
<path d="M344.206 11.152V240.36C344.206 242.247 342.694 243.711 340.807 243.711H234.135C233.284 243.711 232.543 243.393 232.002 242.86C231.437 242.31 231.095 241.522 231.095 240.639V10.8813C231.095 9.37688 232.193 8.07144 233.698 8.07144H263.993C264.845 8.07144 265.625 8.62864 265.944 9.4326L267.201 12.5211C267.52 13.3171 268.3 13.8663 269.151 13.8663H306.221C307.081 13.8663 307.853 13.341 308.171 12.537L309.429 9.4326C309.747 8.62864 310.528 8.06348 311.379 8.06348H341.237C342.893 8.06348 344.206 9.49628 344.206 11.152Z" fill="#407BFF"/>
<path opacity="0.4" d="M344.206 11.152V240.36C344.206 242.247 342.694 243.711 340.807 243.711H234.135C233.284 243.711 232.543 243.393 232.002 242.86C231.437 242.31 231.095 241.522 231.095 240.639V10.8813C231.095 9.37688 232.193 8.07144 233.698 8.07144H263.993C264.845 8.07144 265.625 8.62864 265.944 9.4326L267.201 12.5211C267.52 13.3171 268.3 13.8663 269.151 13.8663H306.221C307.081 13.8663 307.853 13.341 308.171 12.537L309.429 9.4326C309.747 8.62864 310.528 8.06348 311.379 8.06348H341.237C342.893 8.06348 344.206 9.49628 344.206 11.152Z" fill="white"/>
<path opacity="0.6" d="M245.152 17.3047H246.728V15.2032H245.152V17.3047Z" fill="white"/>
<path opacity="0.6" d="M242.589 17.3047H244.165V14.5028H242.589V17.3047Z" fill="white"/>
<path opacity="0.6" d="M240.018 17.3047H241.594V13.8023H240.018V17.3047Z" fill="white"/>
<path opacity="0.6" d="M237.454 17.2964H239.031V13.0935H237.454V17.2964Z" fill="white"/>
<path opacity="0.6" d="M329.759 14.4312H328.828V16.5326H329.759V14.4312Z" fill="white"/>
<path opacity="0.6" d="M330.404 17.2964H337.846V13.6587H330.404V17.2964Z" fill="white"/>
<path d="M251.783 182.833H323.526C325.763 182.833 327.578 184.648 327.578 186.885C327.578 189.121 325.763 190.936 323.526 190.936H251.783C249.546 190.936 247.731 189.121 247.731 186.885C247.731 184.648 249.546 182.833 251.783 182.833Z" fill="#407BFF"/>
<path opacity="0.3" d="M251.783 182.833H323.526C325.763 182.833 327.578 184.648 327.578 186.885C327.578 189.121 325.763 190.936 323.526 190.936H251.783C249.546 190.936 247.731 189.121 247.731 186.885C247.731 184.648 249.546 182.833 251.783 182.833Z" fill="black"/>
<path d="M274.97 183.558C276.801 183.558 278.298 185.046 278.298 186.885C278.298 188.724 276.809 190.212 274.97 190.212H251.775C249.944 190.212 248.448 188.724 248.448 186.885C248.448 185.046 249.936 183.558 251.775 183.558H274.97Z" fill="#407BFF"/>
<path d="M263.445 55.9297H260.539L260.523 54.4141H263.016C263.443 54.4141 263.799 54.3542 264.086 54.2344C264.372 54.1146 264.589 53.9401 264.734 53.7109C264.885 53.4818 264.961 53.2031 264.961 52.875C264.961 52.5104 264.891 52.2135 264.75 51.9844C264.615 51.7552 264.401 51.5885 264.109 51.4844C263.818 51.375 263.448 51.3203 263 51.3203H261.234V61H259.086V49.625H263C263.646 49.625 264.221 49.6875 264.727 49.8125C265.237 49.9323 265.669 50.1198 266.023 50.375C266.378 50.6302 266.646 50.9505 266.828 51.3359C267.016 51.7214 267.109 52.1797 267.109 52.7109C267.109 53.1797 267 53.612 266.781 54.0078C266.568 54.3984 266.237 54.7161 265.789 54.9609C265.346 55.2057 264.784 55.3464 264.102 55.3828L263.445 55.9297ZM263.352 61H259.906L260.805 59.3125H263.352C263.779 59.3125 264.13 59.2422 264.406 59.1016C264.688 58.9609 264.896 58.7682 265.031 58.5234C265.172 58.2734 265.242 57.987 265.242 57.6641C265.242 57.3099 265.18 57.0026 265.055 56.7422C264.935 56.4818 264.742 56.2812 264.477 56.1406C264.216 56 263.872 55.9297 263.445 55.9297H261.211L261.227 54.4141H264.07L264.562 55C265.219 55.0052 265.753 55.1354 266.164 55.3906C266.581 55.6458 266.888 55.974 267.086 56.375C267.284 56.776 267.383 57.2083 267.383 57.6719C267.383 58.401 267.224 59.013 266.906 59.5078C266.594 60.0026 266.135 60.375 265.531 60.625C264.932 60.875 264.206 61 263.352 61ZM273.766 51.3516L270.523 61H268.25L272.5 49.625H273.953L273.766 51.3516ZM276.477 61L273.219 51.3516L273.023 49.625H274.484L278.758 61H276.477ZM276.328 56.7734V58.4688H270.227V56.7734H276.328ZM274.289 48.7109H272.742L272.648 47.6328C272.909 47.6172 273.12 47.5911 273.281 47.5547C273.443 47.513 273.56 47.4557 273.633 47.3828C273.711 47.3047 273.75 47.2083 273.75 47.0938C273.75 46.9896 273.719 46.901 273.656 46.8281C273.599 46.7552 273.518 46.6979 273.414 46.6562C273.31 46.6146 273.185 46.5859 273.039 46.5703C272.898 46.5495 272.745 46.5391 272.578 46.5391L272.633 45.5469C273.102 45.5469 273.513 45.5833 273.867 45.6562C274.221 45.724 274.516 45.8255 274.75 45.9609C274.99 46.0911 275.169 46.25 275.289 46.4375C275.414 46.6198 275.477 46.8255 275.477 47.0547C275.477 47.4193 275.352 47.6901 275.102 47.8672C274.857 48.0443 274.586 48.1536 274.289 48.1953V48.7109ZM289 55.0234V55.6094C289 56.4688 288.885 57.2422 288.656 57.9297C288.427 58.612 288.102 59.1927 287.68 59.6719C287.258 60.151 286.755 60.5182 286.172 60.7734C285.589 61.0286 284.94 61.1562 284.227 61.1562C283.523 61.1562 282.878 61.0286 282.289 60.7734C281.706 60.5182 281.201 60.151 280.773 59.6719C280.346 59.1927 280.016 58.612 279.781 57.9297C279.547 57.2422 279.43 56.4688 279.43 55.6094V55.0234C279.43 54.1589 279.547 53.3854 279.781 52.7031C280.016 52.0208 280.344 51.4401 280.766 50.9609C281.188 50.4766 281.69 50.1068 282.273 49.8516C282.862 49.5964 283.508 49.4688 284.211 49.4688C284.924 49.4688 285.573 49.5964 286.156 49.8516C286.74 50.1068 287.242 50.4766 287.664 50.9609C288.091 51.4401 288.419 52.0208 288.648 52.7031C288.883 53.3854 289 54.1589 289 55.0234ZM286.828 55.6094V55.0078C286.828 54.388 286.771 53.8438 286.656 53.375C286.542 52.901 286.372 52.5026 286.148 52.1797C285.924 51.8568 285.648 51.6146 285.32 51.4531C284.992 51.2865 284.622 51.2031 284.211 51.2031C283.794 51.2031 283.424 51.2865 283.102 51.4531C282.784 51.6146 282.513 51.8568 282.289 52.1797C282.065 52.5026 281.893 52.901 281.773 53.375C281.659 53.8438 281.602 54.388 281.602 55.0078V55.6094C281.602 56.224 281.659 56.7682 281.773 57.2422C281.893 57.7161 282.065 58.1172 282.289 58.4453C282.518 58.7682 282.794 59.013 283.117 59.1797C283.44 59.3464 283.81 59.4297 284.227 59.4297C284.643 59.4297 285.013 59.3464 285.336 59.1797C285.659 59.013 285.93 58.7682 286.148 58.4453C286.372 58.1172 286.542 57.7161 286.656 57.2422C286.771 56.7682 286.828 56.224 286.828 55.6094ZM299.297 49.625V61H297.156V49.625H299.297ZM302.828 49.625V51.3203H293.664V49.625H302.828ZM304.258 49.625H308.391C309.255 49.625 309.997 49.7552 310.617 50.0156C311.237 50.276 311.714 50.6615 312.047 51.1719C312.38 51.6823 312.547 52.3099 312.547 53.0547C312.547 53.6432 312.443 54.1536 312.234 54.5859C312.026 55.0182 311.732 55.3802 311.352 55.6719C310.977 55.9635 310.534 56.1927 310.023 56.3594L309.352 56.7031H305.703L305.688 55.0078H308.414C308.857 55.0078 309.224 54.9297 309.516 54.7734C309.807 54.6172 310.026 54.401 310.172 54.125C310.323 53.849 310.398 53.5339 310.398 53.1797C310.398 52.7995 310.326 52.4714 310.18 52.1953C310.034 51.9141 309.812 51.6979 309.516 51.5469C309.219 51.3958 308.844 51.3203 308.391 51.3203H306.406V61H304.258V49.625ZM310.68 61L308.047 55.9062L310.32 55.8984L312.984 60.8906V61H310.68ZM316.719 49.625V61H314.57V49.625H316.719ZM315.156 46.5312L316.688 48.9062H314.977L312.867 46.5312H315.156Z" fill="#407BFF"/>
<g opacity="0.1">
<path d="M281.975 13.8663L249.411 135.837L249.044 137.214L248.455 139.419L248.089 140.796L231.087 204.484V127.4L262.951 8.06348H263.985C264.837 8.06348 265.617 8.62068 265.936 9.42464L267.193 12.5131C267.512 13.3091 268.292 13.8584 269.143 13.8584H281.975V13.8663Z" fill="white"/>
<path d="M344.206 76.1611V153.238L323.892 229.312L323.399 231.166L320.056 243.711H299.471L302.822 231.174L303.364 229.152L306.054 219.075L306.587 217.061L307.67 213.025L308.203 211.012L309.278 206.984L309.811 204.97L326.742 141.56V141.553L327.53 138.623V138.615L344.206 76.1611Z" fill="white"/>
<path d="M293.127 13.8662L260.77 135.073L260.571 135.798L258.803 142.436L258.604 143.16L231.994 242.852C231.429 242.302 231.087 241.514 231.087 240.631V228.906L253.98 143.16L254.179 142.436L255.946 135.798L256.145 135.073L288.502 13.8662H293.127Z" fill="white"/>
</g>
<g clip-path="url(#clip1_2565_18029)">
<path d="M295.81 155.308C315.133 150.619 326.997 131.153 322.308 111.83C317.619 92.5072 298.153 80.644 278.83 85.333C259.507 90.022 247.643 109.488 252.333 128.811C257.022 148.134 276.487 159.997 295.81 155.308Z" fill="#407BFF"/>
<path opacity="0.6" d="M310.058 115.633L306.686 121.536L302.926 121.732L299.148 117.31L299.924 113.627L306.28 111.21L305.355 110.129L297.393 111.138L295.053 120.145L299.577 125.439L308.835 124.532L311.073 116.826L310.052 115.633H310.058Z" fill="white"/>
<path opacity="0.6" d="M280.072 143.327L288.034 142.318L290.374 133.312L285.85 128.018L276.592 128.925L274.354 136.63L275.279 137.711L278.651 131.808L282.412 131.611L286.19 136.033L285.414 139.716L279.057 142.133L280.078 143.327H280.072Z" fill="white"/>
<path opacity="0.6" d="M285.742 127.911L290.385 133.341L299.604 125.459L294.961 120.029L285.742 127.911Z" fill="white"/>
<g opacity="0.6">
<path d="M275.353 112.821L280.584 118.248L282.299 116.595L277.067 111.168L275.353 112.821Z" fill="white"/>
<path d="M276.359 113.782L279.66 117.208L278.896 120.7L266.839 132.321L260.781 126.042L272.838 114.421L276.359 113.782Z" fill="white"/>
</g>
<path opacity="0.6" d="M278.763 113.002L280.416 114.716L294.159 101.468L292.506 99.7538L278.763 113.002Z" fill="white"/>
<path opacity="0.6" d="M292.481 99.744L294.152 101.475L297.584 99.4575L299.363 95.7271L298.36 94.6826L294.564 96.33L292.481 99.744Z" fill="white"/>
</g>
</g>
<defs>
<clipPath id="clip0_2565_18029">
<rect width="398" height="296.598" fill="white"/>
</clipPath>
<clipPath id="clip1_2565_18029">
<rect width="72" height="72" fill="white" transform="translate(251.315 84.3149)"/>
</clipPath>
</defs>
</svg>
