<svg width="30" height="30" viewBox="0 0 30 30" fill="none" xmlns="http://www.w3.org/2000/svg">
<path d="M26.5623 23.0875L24.4998 23.575C24.0373 23.6875 23.6748 24.0375 23.5748 24.5L23.1373 26.3375C22.8998 27.3375 21.6248 27.65 20.9623 26.8625L17.2248 22.5625C16.9248 22.2125 17.0873 21.6625 17.5373 21.55C19.7498 21.0125 21.7373 19.775 23.1998 18.0125C23.4373 17.725 23.8623 17.6875 24.1248 17.95L26.8998 20.725C27.8498 21.675 27.5123 22.8625 26.5623 23.0875Z" fill="url(#paint0_linear_79_12782)"/>
<path d="M3.37496 23.0875L5.43746 23.575C5.89996 23.6875 6.26246 24.0375 6.36246 24.5L6.79996 26.3375C7.03746 27.3375 8.31246 27.65 8.97496 26.8625L12.7125 22.5625C13.0125 22.2125 12.85 21.6625 12.4 21.55C10.1875 21.0125 8.19996 19.775 6.73746 18.0125C6.49996 17.725 6.07496 17.6875 5.81246 17.95L3.03746 20.725C2.08746 21.675 2.42496 22.8625 3.37496 23.0875Z" fill="url(#paint1_linear_79_12782)"/>
<path d="M15 2.5C10.1625 2.5 6.25 6.4125 6.25 11.25C6.25 13.0625 6.7875 14.725 7.7125 16.1125C9.0625 18.1125 11.2 19.525 13.6875 19.8875C14.1125 19.9625 14.55 20 15 20C15.45 20 15.8875 19.9625 16.3125 19.8875C18.8 19.525 20.9375 18.1125 22.2875 16.1125C23.2125 14.725 23.75 13.0625 23.75 11.25C23.75 6.4125 19.8375 2.5 15 2.5ZM18.825 10.975L17.7875 12.0125C17.6125 12.1875 17.5125 12.525 17.575 12.775L17.875 14.0625C18.1125 15.075 17.575 15.475 16.675 14.9375L15.425 14.2C15.2 14.0625 14.825 14.0625 14.6 14.2L13.35 14.9375C12.45 15.4625 11.9125 15.075 12.15 14.0625L12.45 12.775C12.5 12.5375 12.4125 12.1875 12.2375 12.0125L11.175 10.975C10.5625 10.3625 10.7625 9.75 11.6125 9.6125L12.95 9.3875C13.175 9.35 13.4375 9.15 13.5375 8.95L14.275 7.475C14.675 6.675 15.325 6.675 15.725 7.475L16.4625 8.95C16.5625 9.15 16.825 9.35 17.0625 9.3875L18.4 9.6125C19.2375 9.75 19.4375 10.3625 18.825 10.975Z" fill="url(#paint2_linear_79_12782)"/>
<defs>
<linearGradient id="paint0_linear_79_12782" x1="22.8065" y1="32.7305" x2="18.0545" y2="17.5224" gradientUnits="userSpaceOnUse">
<stop stop-color="#0033FF"/>
<stop offset="1" stop-color="#66D1FF"/>
</linearGradient>
<linearGradient id="paint1_linear_79_12782" x1="8.20593" y1="32.7305" x2="3.45391" y2="17.5224" gradientUnits="userSpaceOnUse">
<stop stop-color="#0033FF"/>
<stop offset="1" stop-color="#66D1FF"/>
</linearGradient>
<linearGradient id="paint2_linear_79_12782" x1="15.9052" y1="29.9569" x2="6.55172" y2="2.5" gradientUnits="userSpaceOnUse">
<stop stop-color="#0033FF"/>
<stop offset="1" stop-color="#66D1FF"/>
</linearGradient>
</defs>
</svg>
