<svg xmlns="http://www.w3.org/2000/svg" width="24" height="24" viewBox="0 0 24 24" fill="none">
    <g clip-path="url(#clip0_1199_22750)">
        <path d="M6.80728 12.0001C6.80729 11.3269 6.60768 10.6689 6.23369 10.1091C5.8597 9.54941 5.32812 9.11315 4.70619 8.85553C4.08426 8.59791 3.3999 8.5305 2.73965 8.66183C2.07941 8.79315 1.47293 9.11731 0.996921 9.59332C0.520909 10.0693 0.196739 10.6758 0.065405 11.336C-0.0659291 11.9963 0.00147166 12.6806 0.259084 13.3026C0.516696 13.9245 0.952949 14.4561 1.51268 14.8301C2.0724 15.2041 2.73046 15.4037 3.40364 15.4037C4.30602 15.4027 5.17115 15.0438 5.80924 14.4057C6.44732 13.7676 6.80625 12.9025 6.80728 12.0001ZM1.12505 12.0001C1.12504 11.5494 1.25867 11.1089 1.50905 10.7342C1.75943 10.3594 2.1153 10.0674 2.53167 9.89489C2.94804 9.72242 3.4062 9.67729 3.84822 9.76521C4.29024 9.85313 4.69625 10.0702 5.01493 10.3888C5.33361 10.7075 5.55063 11.1135 5.63855 11.5555C5.72647 11.9976 5.68134 12.4557 5.50887 12.8721C5.3364 13.2885 5.04433 13.6443 4.6696 13.8947C4.29488 14.1451 3.85432 14.2787 3.40364 14.2787C2.79953 14.278 2.22036 14.0377 1.79319 13.6106C1.36602 13.1834 1.12573 12.6042 1.12505 12.0001ZM8.59645 12.0001C8.59645 12.6733 8.79607 13.3313 9.17006 13.8911C9.54406 14.4508 10.0756 14.887 10.6975 15.1446C11.3195 15.4022 12.0038 15.4696 12.6641 15.3383C13.3243 15.207 13.9308 14.8828 14.4068 14.4068C14.8828 13.9308 15.2069 13.3244 15.3382 12.6641C15.4696 12.0039 15.4022 11.3195 15.1446 10.6976C14.8869 10.0757 14.4507 9.54413 13.891 9.17013C13.3313 8.79614 12.6732 8.59653 12 8.59653C11.0977 8.59754 10.2325 8.95646 9.59447 9.59454C8.95639 10.2326 8.59747 11.0977 8.59645 12.0001ZM14.2786 12.0001C14.2786 12.4508 14.145 12.8913 13.8946 13.266C13.6443 13.6408 13.2884 13.9328 12.872 14.1053C12.4557 14.2777 11.9975 14.3229 11.5555 14.2349C11.1135 14.147 10.7075 13.93 10.3888 13.6113C10.0702 13.2927 9.85316 12.8867 9.76524 12.4447C9.67732 12.0026 9.72244 11.5445 9.8949 11.1281C10.0674 10.7118 10.3594 10.3559 10.7341 10.1055C11.1088 9.85516 11.5494 9.72153 12 9.72153C12.6042 9.72221 13.1833 9.96249 13.6105 10.3897C14.0377 10.8168 14.278 11.396 14.2786 12.0001ZM17.1928 12.0001C17.1928 12.6733 17.3924 13.3314 17.7664 13.8911C18.1404 14.4508 18.672 14.8871 19.2939 15.1447C19.9158 15.4023 20.6002 15.4697 21.2604 15.3384C21.9207 15.2071 22.5272 14.8829 23.0032 14.4069C23.4792 13.9309 23.8034 13.3244 23.9347 12.6642C24.066 12.004 23.9986 11.3196 23.741 10.6977C23.4834 10.0757 23.0471 9.54415 22.4874 9.17015C21.9277 8.79615 21.2696 8.59653 20.5965 8.59653C19.6941 8.59754 18.8289 8.95646 18.1909 9.59454C17.5528 10.2326 17.1938 11.0977 17.1928 12.0001ZM22.875 12.0001C22.8751 12.4508 22.7414 12.8914 22.491 13.2661C22.2407 13.6408 21.8848 13.9329 21.4684 14.1053C21.0521 14.2778 20.5939 14.3229 20.1519 14.235C19.7099 14.1471 19.3038 13.9301 18.9852 13.6114C18.6665 13.2927 18.4495 12.8867 18.3615 12.4447C18.2736 12.0027 18.3188 11.5445 18.4912 11.1281C18.6637 10.7118 18.9558 10.3559 19.3305 10.1055C19.7052 9.85515 20.1458 9.72152 20.5965 9.72153C21.2006 9.72221 21.7797 9.96249 22.2069 10.3897C22.6341 10.8168 22.8744 11.396 22.875 12.0001Z" fill="#141415"/>
    </g>
    <defs>
        <clipPath id="clip0_1199_22750">
            <rect width="24" height="24" fill="white" transform="matrix(0 -1 1 0 0 24)"/>
        </clipPath>
    </defs>
</svg>