<svg xmlns="http://www.w3.org/2000/svg" width="24" height="24" viewBox="0 0 24 24" fill="none">
    <path fill-rule="evenodd" clip-rule="evenodd" d="M20.6794 8.34992C20.7734 8.28631 20.8513 8.20168 20.9068 8.10274C20.9624 8.00379 20.9941 7.89326 20.9994 7.77992C21.005 7.67327 20.9883 7.56663 20.9504 7.46678C20.9126 7.36693 20.8543 7.27605 20.7794 7.19992L16.7794 3.19992C16.7005 3.12732 16.6072 3.07203 16.5056 3.03759C16.404 3.00314 16.2963 2.99031 16.1894 2.99992C16.0833 3.00553 15.9795 3.03334 15.8847 3.08158C15.79 3.12981 15.7064 3.19738 15.6394 3.27992C15.1015 4.11923 14.6967 5.03676 14.4394 5.99992L10.1494 9.77992C8.56646 9.18709 6.82242 9.18709 5.23944 9.77992C5.11457 9.82482 5.00364 9.90163 4.91767 10.0027C4.8317 10.1038 4.77369 10.2256 4.74942 10.3561C4.72515 10.4865 4.73546 10.6211 4.77932 10.7463C4.82319 10.8715 4.89908 10.9831 4.99944 11.0699L8.39944 14.4399L5.15944 17.6699C3.32944 19.4999 2.83944 20.6699 3.15944 20.9499C3.47944 21.2299 4.60944 20.7699 6.43944 18.9499L9.66944 15.7199L12.9994 18.9999C13.0691 19.0722 13.1532 19.1291 13.2462 19.167C13.3392 19.2049 13.4391 19.2229 13.5394 19.2199H13.6894C13.8141 19.1933 13.9303 19.1365 14.0279 19.0546C14.1255 18.9727 14.2016 18.868 14.2494 18.7499C14.8255 17.1811 14.8255 15.4587 14.2494 13.8899L18.0394 9.56992C18.9686 9.2794 19.856 8.8693 20.6794 8.34992Z" fill="#141415"/>
</svg>