<svg width="28" height="28" viewBox="0 0 28 28" fill="none" xmlns="http://www.w3.org/2000/svg">
<path d="M3.51172 13.0901V18.3284C3.51172 23.5668 5.61172 25.6668 10.8501 25.6668H17.1384C22.3767 25.6668 24.4767 23.5668 24.4767 18.3284V13.0901" stroke="#9DB2CE" stroke-width="1.75" stroke-linecap="round" stroke-linejoin="round"/>
<path d="M13.9993 13.9999C16.1343 13.9999 17.7093 12.2616 17.4993 10.1266L16.7293 2.33325H11.2809L10.4993 10.1266C10.2893 12.2616 11.8643 13.9999 13.9993 13.9999Z" stroke="#9DB2CE" stroke-width="1.75" stroke-linecap="round" stroke-linejoin="round"/>
<path d="M21.3619 13.9999C23.7186 13.9999 25.4453 12.0866 25.2119 9.74159L24.8853 6.53325C24.4653 3.49992 23.2986 2.33325 20.2419 2.33325H16.6836L17.5003 10.5116C17.6986 12.4366 19.4369 13.9999 21.3619 13.9999Z" stroke="#9DB2CE" stroke-width="1.75" stroke-linecap="round" stroke-linejoin="round"/>
<path d="M6.58011 13.9999C8.50511 13.9999 10.2434 12.4366 10.4301 10.5116L10.6868 7.93325L11.2468 2.33325H7.68844C4.63177 2.33325 3.46511 3.49992 3.04511 6.53325L2.73011 9.74159C2.49677 12.0866 4.22344 13.9999 6.58011 13.9999Z" stroke="#9DB2CE" stroke-width="1.75" stroke-linecap="round" stroke-linejoin="round"/>
<path d="M14.0007 19.8333C12.0523 19.8333 11.084 20.8016 11.084 22.7499V25.6666H16.9173V22.7499C16.9173 20.8016 15.949 19.8333 14.0007 19.8333Z" stroke="#9DB2CE" stroke-width="1.75" stroke-linecap="round" stroke-linejoin="round"/>
</svg>
