<svg width="28" height="28" viewBox="0 0 28 28" fill="none" xmlns="http://www.w3.org/2000/svg">
<path d="M26.0863 9.64825L25.7479 6.41659C25.2579 2.89325 23.6596 1.45825 20.2413 1.45825H17.4879H15.7613H12.2146H10.4879H7.68793C4.25793 1.45825 2.67126 2.89325 2.16959 6.45159L1.85459 9.65992C1.73792 10.9083 2.07626 12.1216 2.81126 13.0666C3.69793 14.2216 5.06293 14.8749 6.57959 14.8749C8.04959 14.8749 9.46126 14.1399 10.3479 12.9616C11.1413 14.1399 12.4946 14.8749 13.9996 14.8749C15.5046 14.8749 16.8229 14.1749 17.6279 13.0083C18.5263 14.1633 19.9146 14.8749 21.3613 14.8749C22.9129 14.8749 24.3129 14.1866 25.1879 12.9733C25.8879 12.0399 26.2029 10.8616 26.0863 9.64825Z" fill="#006AF5"/>
<path d="M13.2403 19.4366C11.7587 19.5883 10.6387 20.8483 10.6387 22.3416V25.5383C10.6387 25.8533 10.8953 26.11 11.2103 26.11H16.7753C17.0903 26.11 17.347 25.8533 17.347 25.5383V22.75C17.3587 20.3116 15.9237 19.1566 13.2403 19.4366Z" fill="#006AF5"/>
<path d="M24.9336 16.8001V20.2768C24.9336 23.4968 22.3203 26.1101 19.1003 26.1101C18.7853 26.1101 18.5286 25.8534 18.5286 25.5384V22.7501C18.5286 21.2568 18.0736 20.0901 17.187 19.2968C16.4053 18.5851 15.3436 18.2351 14.0253 18.2351C13.7336 18.2351 13.442 18.2468 13.127 18.2818C11.0503 18.4918 9.47531 20.2418 9.47531 22.3418V25.5384C9.47531 25.8534 9.21865 26.1101 8.90365 26.1101C5.68365 26.1101 3.07031 23.4968 3.07031 20.2768V16.8234C3.07031 16.0068 3.87531 15.4584 4.63365 15.7268C4.94865 15.8318 5.26365 15.9134 5.59031 15.9601C5.73031 15.9834 5.88198 16.0068 6.02198 16.0068C6.20865 16.0301 6.39531 16.0418 6.58198 16.0418C7.93531 16.0418 9.26531 15.5401 10.3153 14.6768C11.3186 15.5401 12.6253 16.0418 14.002 16.0418C15.3903 16.0418 16.6736 15.5634 17.677 14.7001C18.727 15.5518 20.0336 16.0418 21.3636 16.0418C21.5736 16.0418 21.7836 16.0301 21.982 16.0068C22.122 15.9951 22.2503 15.9834 22.3786 15.9601C22.7403 15.9134 23.067 15.8084 23.3936 15.7034C24.152 15.4468 24.9336 16.0068 24.9336 16.8001Z" fill="#006AF5"/>
</svg>
