<svg xmlns="http://www.w3.org/2000/svg" width="24" height="22" viewBox="0 0 24 22" fill="none">
    <path fill-rule="evenodd" clip-rule="evenodd" d="M22.8609 12.2677L21.8187 11.7456C22.7329 10.2251 23.0528 8.35057 22.5568 6.50201C22.0761 4.71007 20.9189 3.28104 19.4339 2.41179L19.9917 1.39277C21.7459 2.40926 23.1141 4.09005 23.6805 6.20131C24.2532 8.33604 23.897 10.5002 22.8609 12.2677ZM21.0006 11.3359L19.9863 10.8278L19.9603 10.8128C20.6199 9.7241 20.8526 8.37963 20.4968 7.05345C20.172 5.84257 19.413 4.86612 18.4343 4.23795L18.9943 3.21495C20.2418 3.99176 21.21 5.22241 21.6205 6.7527C22.0532 8.36566 21.7829 9.99996 21.0006 11.3359ZM19.4585 14.9996C19.4995 15.1653 19.4262 15.3294 19.2912 15.4187L19.2975 15.4444C19.2975 15.4444 19.2849 15.4386 19.2664 15.4303C19.2356 15.4478 19.2058 15.4669 19.1698 15.4759L18.9143 15.5389C18.736 15.5829 18.5573 15.4977 18.4739 15.3439C18.4479 12.9947 18.1258 10.42 17.4701 7.76965C16.8353 5.20376 15.9564 2.84721 14.9279 0.802008C14.9704 0.680508 15.0711 0.581883 15.2058 0.548648L15.4612 0.485602C15.4972 0.476695 15.5324 0.479883 15.5678 0.480961C15.5804 0.464977 15.5889 0.454102 15.5889 0.454102L15.5953 0.479789C15.7564 0.496008 15.8978 0.607055 15.9388 0.772758C15.9388 0.772758 17.5964 4.24423 18.4885 7.85018C19.3561 11.3562 19.4585 14.9996 19.4585 14.9996ZM17.0938 7.86256C17.6977 10.3039 17.9573 12.7036 17.9833 14.9358C15.9013 14.2389 10.9192 13.0465 5.19749 13.8691C4.71379 12.9499 4.33785 12.0034 4.12972 11.1621C3.93163 10.3615 3.82391 9.40554 3.81341 8.4199C9.35985 6.46118 13.2329 3.01957 14.7163 1.45601C15.6778 3.37727 16.5165 5.52926 17.0938 7.86256ZM4.37844 13.9877C3.88354 14.0786 3.38464 14.1836 2.88219 14.3077C2.82758 14.3211 2.77293 14.3185 2.71841 14.3074C1.59683 14.3796 0.550442 13.6472 0.272098 12.522L0.116098 11.8915C-0.163464 10.7613 0.427395 9.62168 1.46193 9.16779C1.5013 9.13512 1.54396 9.1091 1.59313 9.09696C2.08541 8.97546 2.56602 8.83976 3.03669 8.69379C3.06407 9.63166 3.17732 10.5414 3.37686 11.3479C3.58682 12.1969 3.93374 13.1027 4.37844 13.9877ZM6.16597 14.5495C7.66222 14.1371 10.0412 14.0845 11.527 14.4232C11.8842 15.9184 10.1484 16.7575 11.6996 20.1163C11.9051 20.89 11.0948 21.5995 9.62188 21.5435C9.69219 21.5058 7.96485 21.3165 7.20683 16.8936C7.13947 16.3457 6.50404 15.6319 6.16382 15.348C5.71982 14.9775 5.5213 14.7305 6.16597 14.5495Z" fill="#006AF5"/>
</svg>