<svg xmlns="http://www.w3.org/2000/svg" width="24" height="24" viewBox="0 0 24 24" fill="none">
    <path d="M18.906 14.7069C18.6038 14.9997 18.465 15.4232 18.5338 15.8385L19.571 21.5785C19.6585 22.065 19.4532 22.5574 19.046 22.8385C18.647 23.1302 18.1162 23.1652 17.681 22.9319L12.5138 20.2369C12.3342 20.1412 12.1347 20.0899 11.9305 20.084H11.6143C11.5047 20.1004 11.3973 20.1354 11.2993 20.189L6.13101 22.8969C5.87551 23.0252 5.58617 23.0707 5.30267 23.0252C4.61201 22.8945 4.15117 22.2365 4.26434 21.5424L5.30267 15.8024C5.37151 15.3835 5.23267 14.9577 4.93051 14.6602L0.717673 10.5769C0.36534 10.235 0.242839 9.72169 0.403839 9.25852C0.560173 8.79652 0.959173 8.45935 1.44101 8.38352L7.23934 7.54235C7.68034 7.49685 8.06767 7.22852 8.26601 6.83185L10.821 1.59352C10.8817 1.47685 10.9598 1.36952 11.0543 1.27852L11.1593 1.19685C11.2142 1.13619 11.2772 1.08602 11.3472 1.04519L11.4743 0.998521L11.6727 0.916854H12.1638C12.6025 0.962354 12.9887 1.22485 13.1905 1.61685L15.7793 6.83185C15.966 7.21335 16.3288 7.47819 16.7477 7.54235L22.546 8.38352C23.036 8.45352 23.4455 8.79185 23.6077 9.25852C23.7605 9.72635 23.6287 10.2397 23.2693 10.5769L18.906 14.7069Z" fill="#FFC700"/>
</svg>