<svg xmlns="http://www.w3.org/2000/svg" width="24" height="24" viewBox="0 0 24 24" fill="none">
    <path d="M18.905 14.7068C18.6029 14.9996 18.464 15.4231 18.5329 15.8384L19.57 21.5784C19.6575 22.0649 19.4522 22.5573 19.045 22.8385C18.646 23.1301 18.1152 23.1651 17.68 22.9318L12.5129 20.2368C12.3332 20.1411 12.1337 20.0898 11.9295 20.084H11.6134C11.5037 20.1003 11.3964 20.1353 11.2984 20.1889L6.13003 22.8968C5.87453 23.0251 5.5852 23.0706 5.3017 23.0251C4.61103 22.8945 4.1502 22.2365 4.26336 21.5423L5.3017 15.8023C5.37053 15.3834 5.2317 14.9576 4.92953 14.6601L0.716696 10.5768C0.364363 10.2349 0.241863 9.72162 0.402863 9.25845C0.559196 8.79645 0.958196 8.45928 1.44003 8.38345L7.23836 7.54228C7.67936 7.49678 8.0667 7.22845 8.26503 6.83178L10.82 1.59345C10.8807 1.47678 10.9589 1.36945 11.0534 1.27845L11.1584 1.19678C11.2132 1.13612 11.2762 1.08595 11.3462 1.04512L11.4734 0.99845L11.6717 0.916783H12.1629C12.6015 0.962283 12.9877 1.22478 13.1895 1.61678L15.7784 6.83178C15.965 7.21328 16.3279 7.47812 16.7467 7.54228L22.545 8.38345C23.035 8.45345 23.4445 8.79178 23.6067 9.25845C23.7595 9.72628 23.6277 10.2396 23.2684 10.5768L18.905 14.7068Z" fill="#DEDEDE"/>
</svg>