<svg width="398" height="297" viewBox="0 0 398 297" fill="none" xmlns="http://www.w3.org/2000/svg">
<g clip-path="url(#clip0_2565_17770)">
<path d="M358.121 273.458H331.757V273.657H358.121V273.458Z" fill="#EBEBEB"/>
<path d="M263.651 275.623H256.734V275.822H263.651V275.623Z" fill="#EBEBEB"/>
<path d="M330.961 266.071H315.686V266.27H330.961V266.071Z" fill="#EBEBEB"/>
<path d="M76.1375 267.408H41.7583V267.607H76.1375V267.408Z" fill="#EBEBEB"/>
<path d="M88.2687 267.408H83.23V267.607H88.2687V267.408Z" fill="#EBEBEB"/>
<path d="M179.22 270.768H104.65V270.967H179.22V270.768Z" fill="#EBEBEB"/>
<path d="M188.66 225.149H34.9524C32.445 225.149 30.4072 223.111 30.4072 220.603V4.54516C30.4072 2.03776 32.445 0 34.9524 0H188.66C191.167 0 193.205 2.03776 193.205 4.54516V220.603C193.205 223.111 191.167 225.149 188.66 225.149ZM34.9524 0.199C32.5564 0.199 30.6062 2.1492 30.6062 4.54516V220.603C30.6062 222.999 32.5564 224.95 34.9524 224.95H188.66C191.056 224.95 193.006 222.999 193.006 220.603V4.54516C193.006 2.1492 191.056 0.199 188.66 0.199H34.9524Z" fill="#EBEBEB"/>
<path d="M360.835 225.149H207.127C204.62 225.149 202.582 223.111 202.582 220.603V4.54516C202.582 2.03776 204.62 0 207.127 0H360.835C363.342 0 365.38 2.03776 365.38 4.54516V220.603C365.38 223.111 363.342 225.149 360.835 225.149ZM207.127 0.199C204.731 0.199 202.781 2.1492 202.781 4.54516V220.603C202.781 222.999 204.731 224.95 207.127 224.95H360.835C363.231 224.95 365.181 222.999 365.181 220.603V4.54516C365.181 2.1492 363.231 0.199 360.835 0.199H207.127Z" fill="#EBEBEB"/>
<path d="M175.391 40.9778H181.441C181.91 40.9778 182.284 41.3519 182.284 41.8215V260.777H191.438V41.8215C191.438 41.3599 191.813 40.9778 192.282 40.9778H198.332C199.088 40.9778 199.462 40.0703 198.929 39.537L187.458 28.0667C187.124 27.7323 186.591 27.7323 186.264 28.0667L174.794 39.537C174.269 40.0624 174.643 40.9778 175.391 40.9778Z" fill="#EBEBEB"/>
<path d="M222.363 120.896H228.412C228.882 120.896 229.256 121.27 229.256 121.74V260.777H238.41V121.74C238.41 121.278 238.784 120.896 239.254 120.896H245.303C246.06 120.896 246.434 119.989 245.9 119.455L234.43 107.985C234.096 107.651 233.562 107.651 233.236 107.985L221.766 119.455C221.24 119.989 221.615 120.896 222.363 120.896Z" fill="#EBEBEB"/>
<path d="M116.407 166.746H122.457C122.926 166.746 123.301 167.12 123.301 167.59V260.777H132.455V167.59C132.455 167.128 132.829 166.746 133.298 166.746H139.348C140.104 166.746 140.478 165.838 139.945 165.305L128.475 153.835C128.14 153.5 127.607 153.5 127.281 153.835L115.81 165.305C115.285 165.838 115.659 166.746 116.407 166.746Z" fill="#EBEBEB"/>
<path d="M89.8685 59.031V50.9118L85.6895 50.5217C85.1244 47.7994 84.0498 45.2681 82.5692 43.0234L85.2517 39.7837L79.5126 34.0445L76.2729 36.7271C74.0281 35.2545 71.4968 34.1719 68.7745 33.6067L68.3845 29.4277H60.2653L59.8752 33.6067C57.1529 34.1719 54.6217 35.2465 52.3769 36.7271L49.1372 34.0445L43.398 39.7837L46.0806 43.0234C44.608 45.2681 43.5254 47.7994 42.9602 50.5217L38.7812 50.9118V59.031L42.9602 59.421C43.5254 62.1433 44.6 64.6746 46.0806 66.9193L43.398 70.1591L49.1372 75.8982L52.3769 73.2157C54.6217 74.6883 57.1529 75.7709 59.8752 76.336L60.2653 80.515H68.3845L68.7745 76.336C71.4968 75.7709 74.0281 74.6963 76.2729 73.2157L79.5126 75.8982L85.2517 70.1591L82.5692 66.9193C84.0418 64.6746 85.1244 62.1433 85.6895 59.421L89.8685 59.031ZM64.3169 65.9562C58.2435 65.9562 53.3242 61.0369 53.3242 54.9634C53.3242 48.8899 58.2435 43.9707 64.3169 43.9707C70.3904 43.9707 75.3097 48.8899 75.3097 54.9634C75.3097 61.0369 70.3904 65.9562 64.3169 65.9562Z" fill="#E0E0E0"/>
<path d="M122.768 81.9401V75.58L119.496 75.2696C119.05 73.1363 118.207 71.1543 117.052 69.3951L119.154 66.8559L114.656 62.3585L112.117 64.4599C110.358 63.3057 108.376 62.4619 106.243 62.0162L105.932 58.7446H99.5722L99.2618 62.0162C97.1285 62.4619 95.1465 63.3057 93.3873 64.4599L90.8481 62.3585L86.3507 66.8559L88.4521 69.3951C87.2979 71.1543 86.4541 73.1363 86.0084 75.2696L82.7368 75.58V81.9401L86.0084 82.2505C86.4541 84.3838 87.2979 86.3658 88.4521 88.125L86.3507 90.6642L90.8481 95.1616L93.3873 93.0602C95.1465 94.2144 97.1285 95.0581 99.2618 95.5039L99.5722 98.7755H105.932L106.243 95.5039C108.376 95.0581 110.358 94.2144 112.117 93.0602L114.656 95.1616L119.154 90.6642L117.052 88.125C118.207 86.3658 119.05 84.3838 119.496 82.2505L122.768 81.9401ZM102.748 87.3767C97.9882 87.3767 94.1355 83.5241 94.1355 78.764C94.1355 74.0039 97.9882 70.1513 102.748 70.1513C107.508 70.1513 111.361 74.0039 111.361 78.764C111.361 83.5241 107.508 87.3767 102.748 87.3767Z" fill="#E0E0E0"/>
<path d="M87.4809 100.797V95.4561L84.7267 95.1934C84.3526 93.4024 83.6442 91.7388 82.6731 90.2582L84.4402 88.1249L80.6592 84.3439L78.5259 86.1111C77.0453 85.1399 75.3817 84.4315 73.5907 84.0574L73.328 81.3032H67.9869L67.7242 84.0574C65.9332 84.4315 64.2695 85.1399 62.789 86.1111L60.6557 84.3439L56.8747 88.1249L58.6418 90.2582C57.6707 91.7388 56.9623 93.4024 56.5881 95.1934L53.834 95.4561V100.797L56.5881 101.052C56.9623 102.843 57.6707 104.507 58.6418 105.987L56.8747 108.12L60.6557 111.901L62.789 110.134C64.2695 111.105 65.9332 111.814 67.7242 112.188L67.9869 114.942H73.328L73.5907 112.188C75.3817 111.814 77.0453 111.105 78.5259 110.134L80.6592 111.901L84.4402 108.12L82.6731 105.987C83.6442 104.507 84.3526 102.843 84.7267 101.052L87.4809 100.797ZM70.6614 105.358C66.6655 105.358 63.4258 102.119 63.4258 98.1227C63.4258 94.1268 66.6655 90.8871 70.6614 90.8871C74.6573 90.8871 77.8971 94.1268 77.8971 98.1227C77.8971 102.119 74.6573 105.358 70.6614 105.358Z" fill="#E0E0E0"/>
<path d="M305.466 171.171V179.29L309.645 179.68C310.21 182.403 311.285 184.934 312.766 187.179L310.083 190.418L315.822 196.157L319.062 193.475C321.307 194.948 323.838 196.03 326.56 196.595L326.95 200.774H335.07L335.46 196.595C338.182 196.03 340.713 194.956 342.958 193.475L346.198 196.157L351.937 190.418L349.254 187.179C350.727 184.934 351.809 182.403 352.375 179.68L356.554 179.29V171.171L352.375 170.781C351.809 168.059 350.735 165.527 349.254 163.283L351.937 160.043L346.198 154.304L342.958 156.986C340.713 155.514 338.182 154.431 335.46 153.866L335.07 149.687H326.95L326.56 153.866C323.838 154.431 321.307 155.506 319.062 156.986L315.822 154.304L310.083 160.043L312.766 163.283C311.293 165.527 310.21 168.059 309.645 170.781L305.466 171.171ZM331.018 164.246C337.091 164.246 342.011 169.165 342.011 175.239C342.011 181.312 337.091 186.231 331.018 186.231C324.944 186.231 320.025 181.312 320.025 175.239C320.025 169.165 324.944 164.246 331.018 164.246Z" fill="#E0E0E0"/>
<path d="M272.567 148.262V154.622L275.839 154.933C276.285 157.066 277.128 159.048 278.283 160.807L276.181 163.346L280.679 167.844L283.218 165.742C284.977 166.897 286.959 167.74 289.092 168.186L289.403 171.458H295.763L296.073 168.186C298.207 167.74 300.189 166.897 301.948 165.742L304.487 167.844L308.984 163.346L306.883 160.807C308.037 159.048 308.881 157.066 309.327 154.933L312.598 154.622V148.262L309.327 147.952C308.881 145.818 308.037 143.836 306.883 142.077L308.984 139.538L304.487 135.041L301.948 137.142C300.189 135.988 298.207 135.144 296.073 134.698L295.763 131.427H289.403L289.092 134.698C286.959 135.144 284.977 135.988 283.218 137.142L280.679 135.041L276.181 139.538L278.283 142.077C277.128 143.836 276.285 145.818 275.839 147.952L272.567 148.262ZM292.587 142.825C297.339 142.825 301.2 146.678 301.2 151.438C301.2 156.198 297.347 160.051 292.587 160.051C287.827 160.051 283.974 156.198 283.974 151.438C283.974 146.678 287.827 142.825 292.587 142.825Z" fill="#E0E0E0"/>
<path d="M307.854 129.405V134.746L310.609 135.009C310.983 136.8 311.691 138.464 312.662 139.944L310.895 142.078L314.676 145.859L316.809 144.092C318.29 145.063 319.954 145.771 321.745 146.145L322.007 148.899H327.349L327.611 146.145C329.402 145.771 331.066 145.063 332.546 144.092L334.68 145.859L338.461 142.078L336.694 139.944C337.665 138.464 338.373 136.8 338.747 135.009L341.501 134.746V129.405L338.747 129.143C338.373 127.352 337.665 125.688 336.694 124.207L338.461 122.074L334.68 118.293L332.546 120.06C331.066 119.089 329.402 118.381 327.611 118.007L327.349 115.252H322.007L321.745 118.007C319.954 118.381 318.29 119.089 316.809 120.06L314.676 118.293L310.895 122.074L312.662 124.207C311.691 125.688 310.983 127.352 310.609 129.143L307.854 129.405ZM324.674 124.844C328.67 124.844 331.91 128.084 331.91 132.08C331.91 136.076 328.67 139.316 324.674 139.316C320.678 139.316 317.438 136.076 317.438 132.08C317.438 128.084 320.678 124.844 324.674 124.844Z" fill="#E0E0E0"/>
<path d="M173.528 209.961H186.821C187.848 209.961 188.676 210.789 188.676 211.808V260.778H208.783V211.808C208.783 210.789 209.611 209.961 210.63 209.961H223.923C225.579 209.961 226.407 207.963 225.228 206.793L200.035 181.599C199.311 180.875 198.133 180.875 197.416 181.599L172.215 206.793C171.053 207.955 171.881 209.961 173.52 209.961H173.528Z" fill="#E0E0E0"/>
<path d="M49.2724 168.863H62.5656C63.5924 168.863 64.4203 169.691 64.4203 170.71V260.777H84.5272V170.71C84.5272 169.691 85.3551 168.863 86.374 168.863H99.6672C101.323 168.863 102.151 166.865 100.973 165.695L75.7792 140.502C75.0548 139.777 73.8768 139.777 73.1604 140.502L47.959 165.695C46.7968 166.857 47.6247 168.863 49.2644 168.863H49.2724Z" fill="#E0E0E0"/>
<path d="M246.044 225.793H255.158C255.867 225.793 256.432 226.358 256.432 227.059V260.777H270.218V227.059C270.218 226.358 270.784 225.793 271.484 225.793H280.598C281.737 225.793 282.302 224.424 281.498 223.62L264.225 206.347C263.723 205.845 262.919 205.845 262.434 206.347L245.152 223.62C244.356 224.416 244.922 225.793 246.052 225.793H246.044Z" fill="#E0E0E0"/>
<path d="M199 296.598C284.238 296.598 353.336 292.563 353.336 287.587C353.336 282.61 284.238 278.576 199 278.576C113.762 278.576 44.6636 282.61 44.6636 287.587C44.6636 292.563 113.762 296.598 199 296.598Z" fill="#F5F5F5"/>
<path d="M228.356 263.977L236.213 274.07L239.039 273.648L230.744 263.977H228.356Z" fill="#263238"/>
<path opacity="0.3" d="M228.356 263.977L236.213 274.07L239.039 273.648L230.744 263.977H228.356Z" fill="black"/>
<path d="M230.745 254.425L238.601 264.519L241.427 264.097L233.133 254.425H230.745Z" fill="#263238"/>
<path opacity="0.3" d="M230.745 254.425L238.601 264.519L241.427 264.097L233.133 254.425H230.745Z" fill="black"/>
<path d="M253.351 249.251H287.316L279.348 270.29H245.383L253.351 249.251Z" fill="#263238"/>
<path opacity="0.3" d="M253.351 249.251H287.316L279.348 270.29H245.383L253.351 249.251Z" fill="black"/>
<path d="M226.987 265.044H280.948V262.33H226.987V265.044Z" fill="#263238"/>
<path opacity="0.2" d="M260.236 265.044H280.948V262.33H260.236V265.044Z" fill="black"/>
<path d="M230.171 257.068H284.132V254.354H230.171V257.068Z" fill="#263238"/>
<path opacity="0.2" d="M263.42 257.068H284.132V254.354H263.42V257.068Z" fill="black"/>
<path d="M287.261 249.395L289.147 251.584L281.983 270.345H279.181L287.261 249.395Z" fill="#263238"/>
<path d="M213.376 260.395L209.73 261.303C209.945 259.607 211.306 257.545 213.392 257.028C215.756 256.439 218.136 257.808 219.019 260.013C219.33 260.777 219.417 261.557 219.266 262.393L241.244 275.623C243.823 273.458 246.871 275.081 248.129 276.848L244.499 277.732C243.648 277.947 243.13 278.799 243.345 279.65C243.56 280.502 244.428 281.02 245.279 280.805L248.925 279.897C248.71 281.593 247.349 283.646 245.263 284.172C242.899 284.761 240.448 283.519 239.556 281.314C239.246 280.55 239.079 279.897 239.23 279.061L217.252 265.832C215.087 267.312 211.704 266.246 210.446 264.479L214.116 263.531C214.968 263.317 215.501 262.433 215.286 261.581C215.071 260.729 214.219 260.188 213.368 260.395H213.376Z" fill="#263238"/>
<path opacity="0.6" d="M213.376 260.395L209.73 261.303C209.945 259.607 211.306 257.545 213.392 257.028C215.756 256.439 218.136 257.808 219.019 260.013C219.33 260.777 219.417 261.557 219.266 262.393L241.244 275.623C243.823 273.458 246.871 275.081 248.129 276.848L244.499 277.732C243.648 277.947 243.13 278.799 243.345 279.65C243.56 280.502 244.428 281.02 245.279 280.805L248.925 279.897C248.71 281.593 247.349 283.646 245.263 284.172C242.899 284.761 240.448 283.519 239.556 281.314C239.246 280.55 239.079 279.897 239.23 279.061L217.252 265.832C215.087 267.312 211.704 266.246 210.446 264.479L214.116 263.531C214.968 263.317 215.501 262.433 215.286 261.581C215.071 260.729 214.219 260.188 213.368 260.395H213.376Z" fill="white"/>
<path d="M220.603 287.443H279.348V270.29H220.603V287.443Z" fill="#263238"/>
<path opacity="0.2" d="M256.248 287.443H279.348V270.29H256.248V287.443Z" fill="black"/>
<path d="M299.981 283.097L302.631 280.439C303.324 281.999 303.22 284.466 301.708 285.987C299.988 287.714 297.242 287.77 295.348 286.337C294.687 285.835 294.21 285.223 293.907 284.427L268.252 284.458C267.161 287.642 263.715 287.825 261.725 286.966L264.375 284.331C264.996 283.71 264.996 282.715 264.375 282.094C263.755 281.473 262.744 281.481 262.123 282.102L259.472 284.769C258.78 283.209 258.883 280.741 260.403 279.221C262.123 277.493 264.861 277.286 266.763 278.719C267.424 279.221 267.902 279.69 268.204 280.478L293.859 280.447C294.95 278.059 298.396 277.231 300.386 278.09L297.736 280.797C297.115 281.418 297.115 282.452 297.736 283.073C298.357 283.694 299.368 283.718 299.988 283.097H299.981Z" fill="#263238"/>
<path opacity="0.6" d="M299.981 283.097L302.631 280.439C303.324 281.999 303.22 284.466 301.708 285.987C299.988 287.714 297.242 287.77 295.348 286.337C294.687 285.835 294.21 285.223 293.907 284.427L268.252 284.458C267.161 287.642 263.715 287.825 261.725 286.966L264.375 284.331C264.996 283.71 264.996 282.715 264.375 282.094C263.755 281.473 262.744 281.481 262.123 282.102L259.472 284.769C258.78 283.209 258.883 280.741 260.403 279.221C262.123 277.493 264.861 277.286 266.763 278.719C267.424 279.221 267.902 279.69 268.204 280.478L293.859 280.447C294.95 278.059 298.396 277.231 300.386 278.09L297.736 280.797C297.115 281.418 297.115 282.452 297.736 283.073C298.357 283.694 299.368 283.718 299.988 283.097H299.981Z" fill="white"/>
<path d="M108.877 227.409L113.837 221.399C114.656 220.404 115.874 219.831 117.164 219.831H121.741C122.903 219.831 123.588 221.144 122.919 222.1L119.751 226.597L108.877 227.409Z" fill="#407BFF"/>
<path opacity="0.3" d="M108.877 227.409L113.837 221.399C114.656 220.404 115.874 219.831 117.164 219.831H121.741C122.903 219.831 123.588 221.144 122.919 222.1L119.751 226.597L108.877 227.409Z" fill="black"/>
<path d="M56.6037 226.597L51.0317 208.305H104.252L108.877 227.409L56.6037 226.597Z" fill="#407BFF"/>
<path d="M51.0319 208.305L52.9821 205.782C54.001 204.461 55.5771 203.688 57.2407 203.688H102.716C103.99 203.688 104.945 204.859 104.69 206.108L104.244 208.305H51.0239H51.0319Z" fill="#407BFF"/>
<path opacity="0.3" d="M56.6037 226.597L51.0317 208.305H104.252L108.877 227.409L56.6037 226.597Z" fill="black"/>
<path opacity="0.2" d="M51.0319 208.305L52.9821 205.782C54.001 204.461 55.5771 203.688 57.2407 203.688H102.716C103.99 203.688 104.945 204.859 104.69 206.108L104.244 208.305H51.0239H51.0319Z" fill="black"/>
<path d="M78.9962 180.225L81.1581 180.697C81.4381 180.758 81.6221 181.034 81.5593 181.322L80.9767 183.99L77.7961 183.295L78.3786 180.628C78.4398 180.348 78.7162 180.164 79.004 180.226L78.9962 180.225Z" fill="#407BFF"/>
<path d="M85.1075 181.561L87.2695 182.033C87.5494 182.094 87.7335 182.37 87.6706 182.658L87.0881 185.326L83.9074 184.631L84.49 181.963C84.5511 181.683 84.8276 181.499 85.1153 181.562L85.1075 181.561Z" fill="#407BFF"/>
<path d="M91.2164 182.896L93.3783 183.368C93.6583 183.429 93.8424 183.706 93.7795 183.994L93.1969 186.661L90.0163 185.966L90.5988 183.299C90.66 183.019 90.9365 182.835 91.2242 182.898L91.2164 182.896Z" fill="#407BFF"/>
<path d="M97.3194 184.224L99.4814 184.696C99.7613 184.757 99.9454 185.033 99.8825 185.321L99.3 187.989L96.1193 187.294L96.7019 184.627C96.763 184.347 97.0395 184.163 97.3272 184.225L97.3194 184.224Z" fill="#407BFF"/>
<path d="M103.421 185.56L105.583 186.032C105.863 186.093 106.047 186.369 105.984 186.657L105.402 189.325L102.221 188.63L102.803 185.962C102.865 185.683 103.141 185.498 103.429 185.561L103.421 185.56Z" fill="#407BFF"/>
<path d="M109.522 186.895L111.684 187.367C111.964 187.428 112.148 187.705 112.085 187.993L111.503 190.66L108.322 189.965L108.905 187.298C108.966 187.018 109.242 186.834 109.53 186.897L109.522 186.895Z" fill="#407BFF"/>
<path d="M101.966 231.774L99.8038 231.302C99.5238 231.241 99.3398 230.965 99.4026 230.677L99.9852 228.009L103.166 228.704L102.583 231.372C102.522 231.651 102.246 231.836 101.958 231.773L101.966 231.774Z" fill="#407BFF"/>
<path d="M95.8925 230.428L93.7306 229.956C93.4507 229.894 93.2667 229.618 93.3296 229.33L93.9126 226.663L97.0932 227.358L96.5101 230.025C96.4489 230.305 96.1724 230.489 95.8847 230.426L95.8925 230.428Z" fill="#407BFF"/>
<path d="M89.7484 229.104L87.5865 228.632C87.3065 228.571 87.1225 228.295 87.1853 228.007L87.7679 225.34L90.9486 226.034L90.366 228.702C90.3049 228.982 90.0284 229.166 89.7406 229.103L89.7484 229.104Z" fill="#407BFF"/>
<path d="M83.641 227.766L81.4791 227.294C81.1991 227.233 81.0151 226.956 81.0779 226.669L81.6605 224.001L84.8411 224.696L84.2586 227.363C84.1974 227.643 83.921 227.827 83.6332 227.764L83.641 227.766Z" fill="#407BFF"/>
<path d="M77.5394 226.435L75.3775 225.963C75.0976 225.902 74.9135 225.625 74.9764 225.337L75.5589 222.67L78.7396 223.365L78.157 226.032C78.0959 226.312 77.8194 226.496 77.5317 226.433L77.5394 226.435Z" fill="#407BFF"/>
<path d="M71.4301 225.104L69.2681 224.632C68.9882 224.571 68.8041 224.294 68.867 224.006L69.4495 221.339L72.6302 222.034L72.0476 224.701C71.9865 224.981 71.71 225.165 71.4223 225.102L71.4301 225.104Z" fill="#407BFF"/>
<g opacity="0.4">
<path d="M78.9962 180.225L81.1581 180.697C81.4381 180.758 81.6221 181.034 81.5593 181.322L80.9767 183.99L77.7961 183.295L78.3786 180.628C78.4398 180.348 78.7162 180.164 79.004 180.226L78.9962 180.225Z" fill="white"/>
<path d="M85.1075 181.561L87.2695 182.033C87.5494 182.094 87.7335 182.37 87.6706 182.658L87.0881 185.326L83.9074 184.631L84.49 181.963C84.5511 181.683 84.8276 181.499 85.1153 181.562L85.1075 181.561Z" fill="white"/>
<path d="M91.2164 182.896L93.3783 183.368C93.6583 183.429 93.8424 183.706 93.7795 183.994L93.1969 186.661L90.0163 185.966L90.5988 183.299C90.66 183.019 90.9365 182.835 91.2242 182.898L91.2164 182.896Z" fill="white"/>
<path d="M97.3194 184.224L99.4814 184.696C99.7613 184.757 99.9454 185.033 99.8825 185.321L99.3 187.989L96.1193 187.294L96.7019 184.627C96.763 184.347 97.0395 184.163 97.3272 184.225L97.3194 184.224Z" fill="white"/>
<path d="M103.421 185.56L105.583 186.032C105.863 186.093 106.047 186.369 105.984 186.657L105.402 189.325L102.221 188.63L102.803 185.962C102.865 185.683 103.141 185.498 103.429 185.561L103.421 185.56Z" fill="white"/>
<path d="M109.522 186.895L111.684 187.367C111.964 187.428 112.148 187.705 112.085 187.993L111.503 190.66L108.322 189.965L108.905 187.298C108.966 187.018 109.242 186.834 109.53 186.897L109.522 186.895Z" fill="white"/>
<path d="M101.966 231.774L99.8038 231.302C99.5238 231.241 99.3398 230.965 99.4026 230.677L99.9852 228.009L103.166 228.704L102.583 231.372C102.522 231.651 102.246 231.836 101.958 231.773L101.966 231.774Z" fill="white"/>
<path d="M95.8925 230.428L93.7306 229.956C93.4507 229.894 93.2667 229.618 93.3296 229.33L93.9126 226.663L97.0932 227.358L96.5101 230.025C96.4489 230.305 96.1724 230.489 95.8847 230.426L95.8925 230.428Z" fill="white"/>
<path d="M89.7484 229.104L87.5865 228.632C87.3065 228.571 87.1225 228.295 87.1853 228.007L87.7679 225.34L90.9486 226.034L90.366 228.702C90.3049 228.982 90.0284 229.166 89.7406 229.103L89.7484 229.104Z" fill="white"/>
<path d="M83.641 227.766L81.4791 227.294C81.1991 227.233 81.0151 226.956 81.0779 226.669L81.6605 224.001L84.8411 224.696L84.2586 227.363C84.1974 227.643 83.921 227.827 83.6332 227.764L83.641 227.766Z" fill="white"/>
<path d="M77.5394 226.435L75.3775 225.963C75.0976 225.902 74.9135 225.625 74.9764 225.337L75.5589 222.67L78.7396 223.365L78.157 226.032C78.0959 226.312 77.8194 226.496 77.5317 226.433L77.5394 226.435Z" fill="white"/>
<path d="M71.4301 225.104L69.2681 224.632C68.9882 224.571 68.8041 224.294 68.867 224.006L69.4495 221.339L72.6302 222.034L72.0476 224.701C71.9865 224.981 71.71 225.165 71.4223 225.102L71.4301 225.104Z" fill="white"/>
</g>
<path d="M115.894 190.476L75.6962 181.696C74.1672 181.363 72.657 182.331 72.3231 183.86L64.7532 218.521C64.4192 220.05 65.388 221.56 66.917 221.894L107.115 230.673C108.644 231.007 110.154 230.039 110.488 228.51L118.058 193.849C118.392 192.32 117.423 190.81 115.894 190.476Z" fill="#263238"/>
<path opacity="0.4" d="M70.7888 222.752L66.9043 221.901C65.376 221.566 64.4049 220.062 64.7392 218.526L72.3092 183.868C72.6435 182.339 74.1479 181.368 75.6842 181.703L79.5687 182.554C78.0404 182.22 76.528 183.183 76.1937 184.719L68.6237 219.377C68.2894 220.906 69.2525 222.418 70.7888 222.752Z" fill="black"/>
<path d="M92.9333 198.761L87.234 213.057L84.2251 212.397L85.0052 197.026L87.2977 197.527L86.4459 209.555L90.6886 198.268L92.9333 198.761Z" fill="#407BFF"/>
<path d="M92.7422 208.361L91.4766 208.083L91.6437 207.302C92.5193 207.43 93.1163 207.191 93.4188 206.841L94.1989 207.008L92.591 214.387L91.4766 214.14L92.7422 208.353V208.361Z" fill="#407BFF"/>
<path d="M94.1035 213.567L95.2179 213.814L94.9791 214.921L93.8647 214.674L94.1035 213.567Z" fill="#407BFF"/>
<path d="M96.4999 213.479L96.5476 213.257L97.6461 213.384L97.5904 213.623C97.463 214.212 97.662 214.498 98.0759 214.586C98.4899 214.673 98.7923 214.498 98.8958 214.013L99.2699 212.301C99.3655 211.872 99.1824 211.609 98.8242 211.529C98.4262 211.442 98.068 211.649 97.9725 212.102L97.9486 212.23L96.874 211.999L97.7973 207.788L100.989 208.489L100.758 209.539L98.6411 209.078L98.2431 210.908C98.466 210.662 98.9197 210.494 99.4212 210.606C100.257 210.789 100.631 211.489 100.432 212.381L100.026 214.236C99.7794 215.35 98.9675 215.883 97.8769 215.645C96.7785 215.406 96.2611 214.586 96.5078 213.472L96.4999 213.479Z" fill="#407BFF"/>
<path d="M63.5459 217.22L64.0181 215.058C64.0793 214.778 64.3557 214.594 64.6434 214.657L67.3109 215.24L66.6162 218.42L63.9488 217.838C63.6688 217.777 63.4848 217.5 63.5476 217.212L63.5459 217.22Z" fill="#407BFF"/>
<path d="M64.881 211.154L65.3535 208.992C65.4147 208.712 65.6912 208.528 65.979 208.591L68.6463 209.174L67.9511 212.355L65.2838 211.772C65.0038 211.711 64.8198 211.434 64.8827 211.146L64.881 211.154Z" fill="#407BFF"/>
<path d="M66.215 205.04L66.6875 202.878C66.7487 202.598 67.0252 202.414 67.3129 202.477L69.9802 203.06L69.285 206.241L66.6177 205.658C66.3378 205.596 66.1538 205.32 66.2167 205.032L66.215 205.04Z" fill="#407BFF"/>
<path d="M67.547 198.943L68.0196 196.781C68.0807 196.501 68.3573 196.317 68.645 196.38L71.3123 196.963L70.6171 200.144L67.9498 199.561C67.6698 199.5 67.4858 199.223 67.5487 198.935L67.547 198.943Z" fill="#407BFF"/>
<path d="M68.8765 192.804L69.3487 190.642C69.4098 190.362 69.6863 190.178 69.974 190.241L72.6414 190.823L71.9468 194.004L69.2794 193.421C68.9994 193.36 68.8154 193.084 68.8782 192.796L68.8765 192.804Z" fill="#407BFF"/>
<path d="M70.21 186.692L70.6822 184.53C70.7433 184.25 71.0198 184.066 71.3075 184.129L73.9749 184.711L73.2803 187.892L70.6129 187.309C70.3329 187.248 70.1489 186.972 70.2117 186.684L70.21 186.692Z" fill="#407BFF"/>
<g opacity="0.4">
<path d="M63.5459 217.22L64.0181 215.058C64.0793 214.778 64.3557 214.594 64.6434 214.657L67.3109 215.24L66.6162 218.42L63.9488 217.838C63.6688 217.777 63.4848 217.5 63.5476 217.212L63.5459 217.22Z" fill="white"/>
<path d="M64.881 211.154L65.3535 208.992C65.4147 208.712 65.6912 208.528 65.979 208.591L68.6463 209.174L67.9511 212.355L65.2838 211.772C65.0038 211.711 64.8198 211.434 64.8827 211.146L64.881 211.154Z" fill="white"/>
<path d="M66.215 205.04L66.6875 202.878C66.7487 202.598 67.0252 202.414 67.3129 202.477L69.9802 203.06L69.285 206.241L66.6177 205.658C66.3378 205.596 66.1538 205.32 66.2167 205.032L66.215 205.04Z" fill="white"/>
<path d="M67.547 198.943L68.0196 196.781C68.0807 196.501 68.3573 196.317 68.645 196.38L71.3123 196.963L70.6171 200.144L67.9498 199.561C67.6698 199.5 67.4858 199.223 67.5487 198.935L67.547 198.943Z" fill="white"/>
<path d="M68.8765 192.804L69.3487 190.642C69.4098 190.362 69.6863 190.178 69.974 190.241L72.6414 190.823L71.9468 194.004L69.2794 193.421C68.9994 193.36 68.8154 193.084 68.8782 192.796L68.8765 192.804Z" fill="white"/>
<path d="M70.21 186.692L70.6822 184.53C70.7433 184.25 71.0198 184.066 71.3075 184.129L73.9749 184.711L73.2803 187.892L70.6129 187.309C70.3329 187.248 70.1489 186.972 70.2117 186.684L70.21 186.692Z" fill="white"/>
</g>
<path d="M119.742 226.597H56.6035V287.435H119.742V226.597Z" fill="#407BFF"/>
<path opacity="0.2" d="M67.1983 226.597H56.6035V287.435H67.1983V226.597Z" fill="black"/>
<path d="M67.1987 226.597L61.4117 219.513C60.5521 218.462 59.2785 217.857 57.9253 217.857H53.2607C51.7722 217.857 50.9523 219.576 51.8836 220.73L56.6039 226.597H67.1987Z" fill="#407BFF"/>
<path d="M217.889 116.104C213.742 118.158 205.081 121.796 196.946 121.214C194.948 121.071 192.982 120.681 191.127 119.941C188.461 118.882 186.765 116.192 185.754 112.626C182.069 99.7384 187.227 75.4126 187.227 75.4126C194.725 76.6384 201.969 105.876 204.802 107.475C207.636 109.075 219.696 108.518 219.696 108.518L220.094 112.092C220.277 113.764 219.393 115.364 217.889 116.104Z" fill="#407BFF"/>
<path opacity="0.3" d="M196.946 121.214C194.948 121.071 192.982 120.681 191.127 119.941C188.461 118.882 186.765 116.192 185.754 112.626C186.041 110.699 186.383 109.338 186.383 109.338L200.17 105.374C200.17 105.374 200.743 115.332 196.946 121.214Z" fill="black"/>
<path d="M186.145 281.322L192.799 282.031L194.049 267.663L187.394 266.962L186.145 281.322Z" fill="#B97964"/>
<path d="M152.903 280.837H159.359L159.892 265.888H153.429L152.903 280.837Z" fill="#B97964"/>
<path d="M160.258 280.088H152.418C152.155 280.088 151.924 280.271 151.868 280.534L150.595 286.281C150.483 286.798 150.818 287.3 151.327 287.411C151.399 287.427 151.462 287.435 151.534 287.435C154.073 287.395 155.92 287.236 159.104 287.236C161.07 287.236 166.984 287.443 169.699 287.443C172.413 287.443 172.763 284.768 171.649 284.522C166.674 283.439 162.933 281.935 161.341 280.51C161.046 280.239 160.656 280.088 160.258 280.096V280.088Z" fill="#263238"/>
<path d="M160.696 280.988C160.633 280.972 160.593 280.916 160.585 280.852C160.577 280.789 160.601 280.733 160.657 280.701C160.887 280.55 162.973 279.276 163.689 279.643C163.857 279.722 163.96 279.889 163.952 280.072C163.992 280.383 163.872 280.693 163.634 280.892C163.268 281.139 162.83 281.258 162.392 281.219C161.819 281.203 161.254 281.123 160.704 280.98L160.696 280.988ZM161.142 280.773C161.898 281.028 162.718 280.988 163.443 280.661C163.594 280.526 163.673 280.319 163.65 280.112C163.642 279.993 163.594 279.929 163.554 279.929C163.49 279.897 163.427 279.881 163.355 279.889C162.567 280.04 161.819 280.343 161.15 280.773H161.142Z" fill="#407BFF"/>
<path d="M160.657 281.02C160.609 280.988 160.585 280.94 160.585 280.876C160.593 280.789 160.752 278.934 161.492 278.321C161.668 278.162 161.906 278.09 162.137 278.122C162.376 278.122 162.583 278.289 162.631 278.528C162.758 279.213 161.476 280.63 160.808 280.988H160.736C160.736 280.988 160.68 281.012 160.657 281.012V281.02ZM161.691 278.504C161.238 279.085 160.975 279.786 160.927 280.526C161.596 280.025 162.416 278.95 162.328 278.528C162.32 278.488 162.304 278.369 162.105 278.369H162.034C161.906 278.369 161.787 278.417 161.691 278.504Z" fill="#407BFF"/>
<path d="M193.507 279.889H185.667C185.404 279.889 185.173 280.072 185.117 280.335L183.844 286.082C183.732 286.599 184.067 287.101 184.576 287.212C184.648 287.228 184.711 287.236 184.783 287.236C187.322 287.196 189.169 287.037 192.353 287.037C194.319 287.037 200.233 287.244 202.948 287.244C205.662 287.244 206.012 284.57 204.898 284.323C199.923 283.24 196.182 281.736 194.59 280.311C194.295 280.04 193.905 279.889 193.507 279.897V279.889Z" fill="#263238"/>
<path d="M193.945 280.781C193.881 280.765 193.841 280.709 193.834 280.653C193.826 280.59 193.849 280.534 193.905 280.502C194.136 280.351 196.222 279.077 196.938 279.443C197.105 279.523 197.209 279.69 197.201 279.873C197.24 280.184 197.121 280.494 196.882 280.693C196.516 280.94 196.078 281.059 195.64 281.019C195.067 281.003 194.502 280.924 193.953 280.781H193.945ZM194.391 280.566C195.147 280.82 195.967 280.781 196.691 280.454C196.842 280.319 196.922 280.112 196.898 279.905C196.89 279.786 196.842 279.722 196.803 279.722C196.739 279.69 196.675 279.674 196.604 279.682C195.816 279.833 195.067 280.136 194.399 280.566H194.391Z" fill="#407BFF"/>
<path d="M193.906 280.813C193.858 280.781 193.834 280.733 193.834 280.669C193.842 280.582 194.001 278.727 194.741 278.114C194.917 277.955 195.155 277.883 195.386 277.915C195.625 277.915 195.832 278.082 195.88 278.321C196.007 279.006 194.726 280.423 194.057 280.781H193.985C193.985 280.781 193.93 280.805 193.906 280.805V280.813ZM194.94 278.305C194.487 278.886 194.224 279.587 194.176 280.327C194.845 279.826 195.665 278.751 195.577 278.329C195.569 278.289 195.553 278.17 195.354 278.17H195.283C195.155 278.17 195.036 278.218 194.94 278.297V278.305Z" fill="#407BFF"/>
<path opacity="0.2" d="M187.394 266.962L194.048 267.663L193.404 275.074L186.741 274.365L187.394 266.962Z" fill="black"/>
<path opacity="0.2" d="M153.429 265.896H159.893L159.614 273.609H153.15L153.429 265.896Z" fill="black"/>
<path d="M156.096 134.747H190.355C193.611 152.529 203.808 215.469 196.493 271.555L184.895 270.114C184.895 270.114 185.969 195.664 175.733 168.147C174.555 182.873 173.154 198.546 171.944 206.888C168.967 227.417 162.583 272.271 162.583 272.271H150.778C150.778 272.271 153.19 229.335 154.305 209.165C155.522 187.267 156.056 139.252 156.096 134.755V134.747Z" fill="#263238"/>
<path opacity="0.2" d="M175.732 168.147C177.245 172.206 178.502 177.269 179.561 182.968C180.516 169.858 176.688 155.96 176.688 155.96L175.732 168.147Z" fill="black"/>
<path d="M197.814 274.253L183.462 272.12L183.9 268.148L198.833 270.106L197.814 274.253Z" fill="#407BFF"/>
<path opacity="0.6" d="M197.814 274.253L183.462 272.12L183.9 268.148L198.833 270.106L197.814 274.253Z" fill="white"/>
<path d="M164 272.367H150.078V268.204L164.525 267.933L164 272.367Z" fill="#407BFF"/>
<path opacity="0.6" d="M164 272.367H150.078V268.204L164.525 267.933L164 272.367Z" fill="white"/>
<path d="M155.371 147.57V151.272L193.316 149.417V146.074L155.371 147.57Z" fill="#407BFF"/>
<path d="M216.352 110.668C216.352 110.668 216.129 112.435 218.963 113.979H222.585C222.585 113.979 224.002 114.823 224.949 114.775C225.896 114.735 230.426 111.384 231.245 110.66C232.065 109.935 229.829 101.832 229.829 101.832L216.352 110.66V110.668Z" fill="#B97964"/>
<path d="M187.227 75.4128C187.227 75.4128 165.433 74.3542 149.202 78.4536C149.202 78.4536 154.448 125.449 154.48 147.045C154.48 147.984 155.26 148.732 156.207 148.701L192.807 147.427C193.73 147.395 194.447 146.623 194.415 145.708C194.089 136.784 192.282 94.3258 187.235 75.4208L187.227 75.4128Z" fill="#407BFF"/>
<path opacity="0.2" d="M194.407 145.7C194.439 146.623 193.722 147.387 192.799 147.419L156.199 148.693C155.26 148.732 154.48 147.984 154.48 147.037C154.48 142.643 154.249 137.19 153.899 131.3C153.731 128.641 153.548 125.895 153.341 123.109C153.111 119.846 152.848 116.534 152.577 113.271C151.956 105.82 151.28 98.6003 150.691 92.6861C149.847 84.2405 149.202 78.4536 149.202 78.4536C165.433 74.3542 187.227 75.4128 187.227 75.4128C192.274 94.3178 194.081 136.776 194.407 145.7Z" fill="black"/>
<path d="M161.596 76.2483C164.74 79.106 172.445 78.0473 172.445 78.0473C172.445 78.0473 177.253 76.7339 176.242 75.2294C173.408 74.7598 172.039 73.4384 171.474 71.7509C171.148 70.7639 171.1 69.6574 171.188 68.5192C171.227 67.9222 171.315 67.3092 171.426 66.7122L161.906 59.6597C163.156 64.3163 164.684 72.8812 161.604 76.2563L161.596 76.2483Z" fill="#B97964"/>
<path opacity="0.2" d="M164.095 64.1416C164.469 69.8569 169.166 71.433 171.466 71.7514C171.14 70.7643 171.092 69.6579 171.18 68.5196L164.095 64.1416Z" fill="black"/>
<path d="M180.533 46.0801C180.533 46.0801 181.886 54.9715 177.166 58.3943C172.445 61.8171 172.445 45.2603 172.445 45.2603L180.533 46.0801Z" fill="#263238"/>
<path d="M163.459 65.4631C165.751 68.7586 169.484 69.6183 172.724 68.5914C174.81 67.9307 176.688 66.49 177.858 64.4124C178.018 64.1418 178.153 63.8552 178.288 63.5607C180.612 58.124 181.353 48.6198 175.606 45.0537C171.522 42.4826 166.125 43.7085 163.554 47.7919C162.814 48.9461 162.368 50.2675 162.241 51.6446C161.532 57.9967 160.824 61.706 163.467 65.4631H163.459Z" fill="#B97964"/>
<path d="M171.498 55.0434C171.379 55.5449 171.61 56.0145 171.952 56.0702C172.294 56.126 172.628 55.7518 172.716 55.2424C172.804 54.733 172.597 54.2713 172.262 54.2156C171.928 54.1598 171.586 54.526 171.498 55.0434Z" fill="#263238"/>
<path d="M177.301 56.0303C177.181 56.5318 177.42 57.0014 177.754 57.0572C178.089 57.1129 178.431 56.7388 178.519 56.2293C178.606 55.7199 178.399 55.2582 178.065 55.2025C177.731 55.1468 177.38 55.5448 177.301 56.0303Z" fill="#263238"/>
<path d="M175.414 55.9668C175.756 57.6384 176.329 59.2622 177.118 60.7746C176.314 61.1647 175.382 61.1806 174.57 60.8144L175.414 55.9668Z" fill="#A24E3F"/>
<path d="M170.017 52.8539C170.129 52.8858 170.248 52.8619 170.328 52.7902C170.885 52.241 171.657 51.9942 172.429 52.1136C172.588 52.1534 172.756 52.0579 172.795 51.8908C172.835 51.7316 172.74 51.5644 172.573 51.5246C171.601 51.3495 170.614 51.6599 169.914 52.3445C169.787 52.4559 169.779 52.647 169.89 52.7743C169.93 52.8062 169.97 52.838 170.017 52.8539Z" fill="#263238"/>
<path d="M173.281 63.3295C171.753 63.2977 170.336 62.5256 169.476 61.2599C169.429 61.1803 169.46 61.0848 169.532 61.0371C169.604 60.9893 169.699 61.0132 169.747 61.0848C169.747 61.0848 169.747 61.0848 169.747 61.0928C170.559 62.247 171.872 62.9554 173.289 62.9952C173.377 62.9952 173.448 63.0669 173.448 63.1465C173.448 63.1465 173.448 63.1544 173.448 63.1624C173.448 63.2499 173.377 63.3216 173.297 63.3216C173.297 63.3216 173.289 63.3216 173.281 63.3216V63.3295Z" fill="#263238"/>
<path d="M180.134 54.4539C180.19 54.4857 180.246 54.5017 180.31 54.4937C180.469 54.4459 180.564 54.2788 180.524 54.1196C180.27 53.1644 179.569 52.4002 178.646 52.0579C178.487 52.0102 178.32 52.0977 178.264 52.2569C178.216 52.4161 178.312 52.5833 178.471 52.639C179.195 52.9256 179.736 53.5465 179.935 54.2947C179.975 54.3743 180.055 54.438 180.142 54.4539H180.134Z" fill="#263238"/>
<path d="M168.202 44.5758V47.4175C167.223 47.7917 166.547 48.7628 166.833 49.917C167.446 52.3766 165.671 55.8631 163.689 57.0969C163.689 57.0969 163.761 56.0701 162.869 56.2054C161.978 56.3407 161.572 61.6819 162.941 64.4121C162.941 64.4121 160.68 61.8092 159.932 56.0621C159.239 50.7448 159.598 46.4305 160.895 44.5679H168.21L168.202 44.5758Z" fill="#263238"/>
<path d="M158.595 56.3405C159.049 57.8848 160.099 59.1902 161.516 59.9623C163.395 60.9733 164.796 59.3972 164.668 57.3833C164.541 55.5923 163.427 52.8461 161.341 52.6949C159.255 52.5357 158.054 54.4461 158.595 56.3485V56.3405Z" fill="#B97964"/>
<path d="M168.203 47.4093C168.203 47.4093 170.049 49.2401 171.84 47.9028C171.84 47.9028 173.87 49.5903 175.518 48.3963C175.518 48.3963 176.425 49.9246 177.906 50.1077C179.386 50.2908 179.394 48.7625 179.394 48.7625C179.394 48.7625 181.735 50.1077 182.602 49.4789C183.47 48.85 182.133 46.3267 182.133 46.3267C182.133 46.3267 183.231 45.7297 182.523 43.7079C181.814 41.686 178.543 42.1557 178.543 42.1557C178.543 42.1557 178.67 40.2691 176.385 38.2951C174.101 36.3289 172.74 38.7647 172.74 38.7647C172.74 38.7647 170.527 35.7717 167.789 36.1697C165.05 36.5677 165.361 38.4543 165.361 38.4543C165.361 38.4543 162.209 36.4881 160.792 38.4543C159.375 40.4204 160.792 41.3676 160.792 41.3676C160.792 41.3676 157.64 42.4263 157.799 44.5755C157.958 46.7247 159.574 46.4063 159.574 46.4063C159.574 46.4063 158.666 47.4331 160.712 48.2928C162.758 49.1525 164.684 47.0351 164.684 47.0351C164.684 47.0351 163.888 48.253 165.361 49.0809C166.833 49.9087 168.203 47.4093 168.203 47.4093Z" fill="#263238"/>
<path d="M172.445 78.0557C172.445 78.0557 161.333 70.5096 157.799 70.0797C154.265 69.6499 154.893 74.0677 154.893 74.0677C154.893 74.0677 152.163 74.0677 153.214 77.4268C154.265 80.7859 169.357 82.6406 174.929 80.977C180.501 79.3133 183.82 76.193 182.897 73.2399C181.973 70.2867 179.394 72.818 179.394 72.818C179.394 72.818 177.898 70.0399 175.733 70.6927C173.575 71.3454 172.445 78.0557 172.445 78.0557Z" fill="#407BFF"/>
<path d="M170.797 80.9771C174.029 86.5491 169.078 92.8852 171.585 98.6562" stroke="white" stroke-width="0.796" stroke-linecap="round" stroke-linejoin="round"/>
<path d="M175.844 79.8384C175.844 79.8384 178.694 82.1309 180.015 87.074C181.345 92.0172 179.347 97.0001 179.347 97.0001" stroke="white" stroke-width="0.796" stroke-linecap="round" stroke-linejoin="round"/>
<path d="M192.262 72.8502L194.422 72.3664C194.701 72.3037 194.985 72.4768 195.049 72.7642L195.646 75.4284L192.469 76.1402L191.872 73.476C191.81 73.1964 191.983 72.9129 192.27 72.8485L192.262 72.8502Z" fill="#407BFF"/>
<path d="M198.359 71.4787L200.518 70.9948C200.798 70.9322 201.081 71.1052 201.146 71.3926L201.743 74.0568L198.566 74.7687L197.969 72.1044C197.906 71.8248 198.079 71.5413 198.367 71.4769L198.359 71.4787Z" fill="#407BFF"/>
<path d="M204.455 70.1149L206.614 69.631C206.894 69.5684 207.177 69.7414 207.241 70.0288L207.838 72.693L204.662 73.4049L204.065 70.7407C204.002 70.4611 204.175 70.1776 204.462 70.1132L204.455 70.1149Z" fill="#407BFF"/>
<path d="M210.559 68.7414L212.718 68.2575C212.998 68.1948 213.281 68.3679 213.345 68.6553L213.942 71.3195L210.766 72.0314L210.169 69.3671C210.106 69.0875 210.279 68.804 210.566 68.7396L210.559 68.7414Z" fill="#407BFF"/>
<path d="M216.657 67.3771L218.816 66.8932C219.096 66.8306 219.379 67.0036 219.444 67.291L220.041 69.9552L216.864 70.6671L216.267 68.0029C216.204 67.7233 216.377 67.4398 216.664 67.3754L216.657 67.3771Z" fill="#407BFF"/>
<path d="M222.753 66.0138L224.912 65.53C225.192 65.4673 225.475 65.6403 225.54 65.9277L226.137 68.592L222.96 69.3038L222.363 66.6396C222.3 66.36 222.473 66.0765 222.761 66.0121L222.753 66.0138Z" fill="#407BFF"/>
<path d="M234.86 109.843L232.701 110.326C232.421 110.389 232.138 110.216 232.074 109.929L231.477 107.264L234.653 106.553L235.25 109.217C235.313 109.496 235.14 109.78 234.853 109.844L234.86 109.843Z" fill="#407BFF"/>
<path d="M228.756 111.217L226.597 111.701C226.317 111.763 226.033 111.59 225.969 111.303L225.372 108.639L228.549 107.927L229.146 110.591C229.209 110.871 229.035 111.154 228.748 111.218L228.756 111.217Z" fill="#407BFF"/>
<path d="M222.657 112.583L220.498 113.067C220.218 113.129 219.935 112.956 219.87 112.669L219.273 110.005L222.45 109.293L223.047 111.957C223.11 112.237 222.937 112.52 222.649 112.585L222.657 112.583Z" fill="#407BFF"/>
<path d="M216.559 113.95L214.399 114.433C214.12 114.496 213.836 114.323 213.772 114.036L213.175 111.371L216.352 110.66L216.949 113.324C217.011 113.603 216.838 113.887 216.551 113.951L216.559 113.95Z" fill="#407BFF"/>
<path d="M210.468 115.315L208.309 115.799C208.029 115.861 207.746 115.688 207.681 115.401L207.084 112.737L210.261 112.025L210.858 114.689C210.921 114.969 210.748 115.252 210.46 115.317L210.468 115.315Z" fill="#407BFF"/>
<path d="M204.363 116.681L202.204 117.164C201.924 117.227 201.641 117.054 201.576 116.767L200.979 114.102L204.156 113.391L204.753 116.055C204.816 116.334 204.643 116.618 204.356 116.682L204.363 116.681Z" fill="#407BFF"/>
<g opacity="0.4">
<path d="M192.262 72.8502L194.422 72.3664C194.701 72.3037 194.985 72.4768 195.049 72.7642L195.646 75.4284L192.469 76.1402L191.872 73.476C191.81 73.1964 191.983 72.9129 192.27 72.8485L192.262 72.8502Z" fill="black"/>
<path d="M198.359 71.4787L200.518 70.9948C200.798 70.9322 201.081 71.1052 201.146 71.3926L201.743 74.0568L198.566 74.7687L197.969 72.1044C197.906 71.8248 198.079 71.5413 198.367 71.4769L198.359 71.4787Z" fill="black"/>
<path d="M204.455 70.1149L206.614 69.631C206.894 69.5684 207.177 69.7414 207.241 70.0288L207.838 72.693L204.662 73.4049L204.065 70.7407C204.002 70.4611 204.175 70.1776 204.462 70.1132L204.455 70.1149Z" fill="black"/>
<path d="M210.559 68.7414L212.718 68.2575C212.998 68.1948 213.281 68.3679 213.345 68.6553L213.942 71.3195L210.766 72.0314L210.169 69.3671C210.106 69.0875 210.279 68.804 210.566 68.7396L210.559 68.7414Z" fill="black"/>
<path d="M216.657 67.3771L218.816 66.8932C219.096 66.8306 219.379 67.0036 219.444 67.291L220.041 69.9552L216.864 70.6671L216.267 68.0029C216.204 67.7233 216.377 67.4398 216.664 67.3754L216.657 67.3771Z" fill="black"/>
<path d="M222.753 66.0138L224.912 65.53C225.192 65.4673 225.475 65.6403 225.54 65.9277L226.137 68.592L222.96 69.3038L222.363 66.6396C222.3 66.36 222.473 66.0765 222.761 66.0121L222.753 66.0138Z" fill="black"/>
<path d="M234.86 109.843L232.701 110.326C232.421 110.389 232.138 110.216 232.074 109.929L231.477 107.264L234.653 106.553L235.25 109.217C235.313 109.496 235.14 109.78 234.853 109.844L234.86 109.843Z" fill="black"/>
<path d="M228.756 111.217L226.597 111.701C226.317 111.763 226.033 111.59 225.969 111.303L225.372 108.639L228.549 107.927L229.146 110.591C229.209 110.871 229.035 111.154 228.748 111.218L228.756 111.217Z" fill="black"/>
<path d="M222.657 112.583L220.498 113.067C220.218 113.129 219.935 112.956 219.87 112.669L219.273 110.005L222.45 109.293L223.047 111.957C223.11 112.237 222.937 112.52 222.649 112.585L222.657 112.583Z" fill="black"/>
<path d="M216.559 113.95L214.399 114.433C214.12 114.496 213.836 114.323 213.772 114.036L213.175 111.371L216.352 110.66L216.949 113.324C217.011 113.603 216.838 113.887 216.551 113.951L216.559 113.95Z" fill="black"/>
<path d="M210.468 115.315L208.309 115.799C208.029 115.861 207.746 115.688 207.681 115.401L207.084 112.737L210.261 112.025L210.858 114.689C210.921 114.969 210.748 115.252 210.46 115.317L210.468 115.315Z" fill="black"/>
<path d="M204.363 116.681L202.204 117.164C201.924 117.227 201.641 117.054 201.576 116.767L200.979 114.102L204.156 113.391L204.753 116.055C204.816 116.334 204.643 116.618 204.356 116.682L204.363 116.681Z" fill="black"/>
</g>
<path d="M230.036 66.5869L189.887 75.5835C188.36 75.9257 187.399 77.4411 187.741 78.9683L195.499 113.588C195.841 115.115 197.356 116.075 198.883 115.733L239.033 106.737C240.56 106.394 241.521 104.879 241.179 103.352L233.421 68.7325C233.079 67.2053 231.564 66.2447 230.036 66.5869Z" fill="#263238"/>
<path opacity="0.4" d="M202.773 114.847L198.888 115.714C197.36 116.056 195.848 115.101 195.505 113.565L187.744 78.9469C187.402 77.4186 188.357 75.9062 189.893 75.5639L193.778 74.6963C192.25 75.0386 191.286 76.551 191.629 78.0793L199.39 112.697C199.732 114.226 201.244 115.189 202.773 114.847Z" fill="black"/>
<path d="M212.731 83.7549L213.598 99.1256L210.59 99.8022L204.811 85.5379L207.095 85.0285L211.401 96.2919L210.486 84.2723L212.731 83.7708V83.7549Z" fill="white"/>
<path d="M217.818 97.231L220.03 96.7375L220.269 97.7882L216.735 98.5842L216.52 97.6131L217.571 94.644C217.961 93.5375 218.032 92.9963 217.905 92.4231C217.786 91.9057 217.483 91.6749 217.053 91.7704C216.624 91.8659 216.44 92.2082 216.56 92.7177L216.655 93.1475L215.581 93.3863L215.501 93.0361C215.231 91.8341 215.716 90.9505 216.823 90.7038C217.929 90.457 218.757 90.9903 219.012 92.1286C219.195 92.9246 219.099 93.6331 218.614 94.9942L217.825 97.2151L217.818 97.231Z" fill="white"/>
<path d="M221.049 96.4509L222.164 96.2041L222.41 97.3105L221.296 97.5573L221.049 96.4509Z" fill="white"/>
<path d="M223.214 95.3684L222.315 91.3486C222.076 90.282 222.633 89.4064 223.708 89.1676C224.783 88.9288 225.658 89.486 225.897 90.5446L226.796 94.5644C227.035 95.6311 226.478 96.5067 225.403 96.7455C224.329 96.9843 223.453 96.4271 223.214 95.3684ZM225.674 94.8192L224.775 90.7994C224.671 90.3377 224.345 90.1307 223.939 90.2262C223.525 90.3218 223.326 90.6402 223.429 91.1018L224.329 95.1216C224.432 95.5833 224.751 95.7903 225.165 95.6948C225.579 95.5992 225.778 95.2808 225.674 94.8192Z" fill="white"/>
<path d="M193.896 112.911L193.412 110.752C193.35 110.472 193.523 110.189 193.81 110.124L196.474 109.527L197.186 112.704L194.522 113.301C194.242 113.364 193.959 113.191 193.894 112.903L193.896 112.911Z" fill="#407BFF"/>
<path d="M192.534 106.809L192.05 104.65C191.987 104.37 192.16 104.087 192.448 104.022L195.112 103.425L195.824 106.602L193.16 107.199C192.88 107.262 192.596 107.089 192.532 106.801L192.534 106.809Z" fill="#407BFF"/>
<path d="M191.166 100.706L190.682 98.5467C190.619 98.2671 190.792 97.9836 191.08 97.9192L193.744 97.3222L194.456 100.499L191.791 101.096C191.512 101.159 191.228 100.986 191.164 100.698L191.166 100.706Z" fill="#407BFF"/>
<path d="M189.798 94.6113L189.314 92.452C189.251 92.1724 189.425 91.8889 189.712 91.8245L192.376 91.2275L193.088 94.4044L190.424 95.0013C190.144 95.064 189.861 94.891 189.796 94.6036L189.798 94.6113Z" fill="#407BFF"/>
<path d="M188.43 88.5186L187.946 86.3592C187.884 86.0796 188.057 85.7961 188.344 85.7317L191.008 85.1347L191.72 88.3116L189.056 88.9086C188.776 88.9712 188.493 88.7982 188.429 88.5108L188.43 88.5186Z" fill="#407BFF"/>
<path d="M187.061 82.4077L186.577 80.2484C186.514 79.9688 186.687 79.6853 186.975 79.6209L189.639 79.0239L190.351 82.2007L187.686 82.7977C187.407 82.8604 187.123 82.6873 187.059 82.3999L187.061 82.4077Z" fill="#407BFF"/>
<g opacity="0.4">
<path d="M193.896 112.911L193.412 110.752C193.35 110.472 193.523 110.189 193.81 110.124L196.474 109.527L197.186 112.704L194.522 113.301C194.242 113.364 193.959 113.191 193.894 112.903L193.896 112.911Z" fill="black"/>
<path d="M192.534 106.809L192.05 104.65C191.987 104.37 192.16 104.087 192.448 104.022L195.112 103.425L195.824 106.602L193.16 107.199C192.88 107.262 192.596 107.089 192.532 106.801L192.534 106.809Z" fill="black"/>
<path d="M191.166 100.706L190.682 98.5467C190.619 98.2671 190.792 97.9836 191.08 97.9192L193.744 97.3222L194.456 100.499L191.791 101.096C191.512 101.159 191.228 100.986 191.164 100.698L191.166 100.706Z" fill="black"/>
<path d="M189.798 94.6113L189.314 92.452C189.251 92.1724 189.425 91.8889 189.712 91.8245L192.376 91.2275L193.088 94.4044L190.424 95.0013C190.144 95.064 189.861 94.891 189.796 94.6036L189.798 94.6113Z" fill="black"/>
<path d="M188.43 88.5186L187.946 86.3592C187.884 86.0796 188.057 85.7961 188.344 85.7317L191.008 85.1347L191.72 88.3116L189.056 88.9086C188.776 88.9712 188.493 88.7982 188.429 88.5108L188.43 88.5186Z" fill="black"/>
<path d="M187.061 82.4077L186.577 80.2484C186.514 79.9688 186.687 79.6853 186.975 79.6209L189.639 79.0239L190.351 82.2007L187.686 82.7977C187.407 82.8604 187.123 82.6873 187.059 82.3999L187.061 82.4077Z" fill="black"/>
</g>
<path d="M168.203 125.219L169.818 126.07C169.818 126.07 168.107 138.353 164.103 141.027L162.463 139.141C162.463 139.141 168.131 131.762 168.21 125.219H168.203Z" fill="#407BFF"/>
<path d="M188.389 124.184L186.383 125.218C186.383 125.218 190.093 137.095 192.489 139.769L193.858 137.883C193.858 137.883 189.297 130.329 188.389 124.184Z" fill="#407BFF"/>
<path opacity="0.2" d="M168.004 117.943C168.004 117.943 162.869 128.355 153.899 131.3C153.731 128.641 153.548 125.895 153.341 123.109C153.11 119.845 152.848 116.534 152.577 113.271L168.004 117.943Z" fill="black"/>
<path d="M174.921 109.879L185.269 106.393C185.269 106.393 194.558 98.1146 196.604 98.1623C198.649 98.2101 200.385 103.4 201.324 105.366C202.271 107.34 192.56 111.336 191.111 112.172C189.67 113.008 187.665 112.172 187.665 112.172L177.102 116.789L174.913 109.879H174.921Z" fill="#B97964"/>
<path d="M149.202 78.4536C139.555 79.7352 144.553 116.057 150.77 123.189C155.96 129.151 174.889 120.395 180.986 117.346C182.085 116.797 182.61 115.523 182.22 114.353L180.437 109.012C180.023 107.786 178.742 107.078 177.484 107.396C172.35 108.702 159.964 111.639 158.46 109.88C156.557 107.659 154.034 96.7457 154.456 89.8125C154.878 82.8794 149.194 78.4536 149.194 78.4536H149.202Z" fill="#407BFF"/>
<path d="M178.94 107.476L182.26 115.786L185.229 113.979L182.355 106.664L178.94 107.476Z" fill="#407BFF"/>
<path opacity="0.3" d="M178.94 107.476L182.26 115.786L185.229 113.979L182.355 106.664L178.94 107.476Z" fill="black"/>
<path d="M339.43 11.1515V240.36C339.43 242.246 337.918 243.711 336.031 243.711H229.359C228.507 243.711 227.767 243.392 227.226 242.859C226.661 242.31 226.318 241.522 226.318 240.638V10.8808C226.318 9.37639 227.417 8.07095 228.921 8.07095H259.217C260.069 8.07095 260.849 8.62815 261.167 9.43211L262.425 12.5206C262.743 13.3166 263.523 13.8658 264.375 13.8658H301.445C302.305 13.8658 303.077 13.3405 303.395 12.5365L304.653 9.43211C304.971 8.62815 305.751 8.06299 306.603 8.06299H336.461C338.117 8.06299 339.43 9.49579 339.43 11.1515Z" fill="#407BFF"/>
<path d="M344.206 11.1515V240.36C344.206 242.246 342.694 243.711 340.807 243.711H234.135C233.284 243.711 232.543 243.392 232.002 242.859C231.437 242.31 231.095 241.522 231.095 240.638V10.8808C231.095 9.37639 232.193 8.07095 233.698 8.07095H263.993C264.845 8.07095 265.625 8.62815 265.944 9.43211L267.201 12.5206C267.52 13.3166 268.3 13.8658 269.151 13.8658H306.221C307.081 13.8658 307.853 13.3405 308.171 12.5365L309.429 9.43211C309.747 8.62815 310.528 8.06299 311.379 8.06299H341.237C342.893 8.06299 344.206 9.49579 344.206 11.1515Z" fill="#407BFF"/>
<path opacity="0.4" d="M344.206 11.1515V240.36C344.206 242.246 342.694 243.711 340.807 243.711H234.135C233.284 243.711 232.543 243.392 232.002 242.859C231.437 242.31 231.095 241.522 231.095 240.638V10.8808C231.095 9.37639 232.193 8.07095 233.698 8.07095H263.993C264.845 8.07095 265.625 8.62815 265.944 9.43211L267.201 12.5206C267.52 13.3166 268.3 13.8658 269.151 13.8658H306.221C307.081 13.8658 307.853 13.3405 308.171 12.5365L309.429 9.43211C309.747 8.62815 310.528 8.06299 311.379 8.06299H341.237C342.893 8.06299 344.206 9.49579 344.206 11.1515Z" fill="white"/>
<path opacity="0.6" d="M245.151 17.3047H246.728V15.2032H245.151V17.3047Z" fill="white"/>
<path opacity="0.6" d="M242.589 17.3047H244.165V14.5028H242.589V17.3047Z" fill="white"/>
<path opacity="0.6" d="M240.018 17.3047H241.594V13.8023H240.018V17.3047Z" fill="white"/>
<path opacity="0.6" d="M237.454 17.2964H239.03V13.0935H237.454V17.2964Z" fill="white"/>
<path opacity="0.6" d="M329.759 14.4312H328.828V16.5326H329.759V14.4312Z" fill="white"/>
<path opacity="0.6" d="M330.404 17.2964H337.846V13.6587H330.404V17.2964Z" fill="white"/>
<path d="M251.783 182.833H323.526C325.763 182.833 327.578 184.648 327.578 186.885C327.578 189.121 325.763 190.936 323.526 190.936H251.783C249.546 190.936 247.731 189.121 247.731 186.885C247.731 184.648 249.546 182.833 251.783 182.833Z" fill="#407BFF"/>
<path opacity="0.3" d="M251.783 182.833H323.526C325.763 182.833 327.578 184.648 327.578 186.885C327.578 189.121 325.763 190.936 323.526 190.936H251.783C249.546 190.936 247.731 189.121 247.731 186.885C247.731 184.648 249.546 182.833 251.783 182.833Z" fill="black"/>
<path d="M274.97 183.558C276.801 183.558 278.297 185.046 278.297 186.885C278.297 188.724 276.809 190.212 274.97 190.212H251.775C249.944 190.212 248.447 188.724 248.447 186.885C248.447 185.046 249.936 183.558 251.775 183.558H274.97Z" fill="#407BFF"/>
<path d="M256.742 57.2578H258.891C258.833 58.0182 258.622 58.6927 258.258 59.2812C257.893 59.8646 257.385 60.3229 256.734 60.6562C256.083 60.9896 255.294 61.1562 254.367 61.1562C253.654 61.1562 253.01 61.0312 252.438 60.7812C251.87 60.526 251.383 60.1641 250.977 59.6953C250.576 59.2214 250.268 58.6536 250.055 57.9922C249.841 57.3255 249.734 56.5781 249.734 55.75V54.8828C249.734 54.0547 249.844 53.3073 250.062 52.6406C250.281 51.974 250.594 51.4062 251 50.9375C251.411 50.4635 251.904 50.099 252.477 49.8438C253.055 49.5885 253.701 49.4609 254.414 49.4609C255.341 49.4609 256.125 49.6328 256.766 49.9766C257.406 50.3151 257.904 50.7812 258.258 51.375C258.612 51.9688 258.826 52.651 258.898 53.4219H256.75C256.708 52.9427 256.604 52.5365 256.438 52.2031C256.276 51.8698 256.031 51.6172 255.703 51.4453C255.38 51.2682 254.951 51.1797 254.414 51.1797C253.997 51.1797 253.63 51.2578 253.312 51.4141C253 51.5703 252.74 51.8047 252.531 52.1172C252.323 52.4245 252.167 52.8099 252.062 53.2734C251.958 53.7318 251.906 54.263 251.906 54.8672V55.75C251.906 56.3281 251.953 56.8464 252.047 57.3047C252.141 57.763 252.286 58.151 252.484 58.4688C252.682 58.7865 252.938 59.0286 253.25 59.1953C253.562 59.362 253.935 59.4453 254.367 59.4453C254.893 59.4453 255.32 59.362 255.648 59.1953C255.982 59.0286 256.234 58.7839 256.406 58.4609C256.583 58.138 256.695 57.737 256.742 57.2578ZM265.078 51.3516L261.836 61H259.562L263.812 49.625H265.266L265.078 51.3516ZM267.789 61L264.531 51.3516L264.336 49.625H265.797L270.07 61H267.789ZM267.641 56.7734V58.4688H261.539V56.7734H267.641ZM265.438 46.5781L267.703 48.7422V48.8359H266.047L264.836 47.6484L263.633 48.8359H262V48.7266L264.234 46.5781H265.438ZM263.703 62.8203C263.703 62.5339 263.807 62.2943 264.016 62.1016C264.229 61.9089 264.516 61.8125 264.875 61.8125C265.234 61.8125 265.518 61.9089 265.727 62.1016C265.94 62.2943 266.047 62.5339 266.047 62.8203C266.047 63.1016 265.94 63.3359 265.727 63.5234C265.518 63.7161 265.234 63.8125 264.875 63.8125C264.516 63.8125 264.229 63.7161 264.016 63.5234C263.807 63.3359 263.703 63.1016 263.703 62.8203ZM275.617 56.8516H272.688V55.1641H275.617C276.096 55.1641 276.484 55.0859 276.781 54.9297C277.083 54.7682 277.305 54.5495 277.445 54.2734C277.586 53.9922 277.656 53.6719 277.656 53.3125C277.656 52.9635 277.586 52.638 277.445 52.3359C277.305 52.0339 277.083 51.7891 276.781 51.6016C276.484 51.4141 276.096 51.3203 275.617 51.3203H273.391V61H271.242V49.625H275.617C276.503 49.625 277.258 49.7839 277.883 50.1016C278.513 50.4141 278.992 50.849 279.32 51.4062C279.654 51.9583 279.82 52.5885 279.82 53.2969C279.82 54.0312 279.654 54.6641 279.32 55.1953C278.992 55.7266 278.513 56.1354 277.883 56.4219C277.258 56.7083 276.503 56.8516 275.617 56.8516ZM294.633 49.625V61H292.477L287.641 53.1094V61H285.492V49.625H287.641L292.492 57.5234V49.625H294.633ZM304.367 54.3203V56.0078H298.383V54.3203H304.367ZM298.969 49.625V61H296.82V49.625H298.969ZM305.961 49.625V61H303.812V49.625H305.961ZM312.812 51.3516L309.57 61H307.297L311.547 49.625H313L312.812 51.3516ZM315.523 61L312.266 51.3516L312.07 49.625H313.531L317.805 61H315.523ZM315.375 56.7734V58.4688H309.273V56.7734H315.375ZM313.172 46.5781L315.438 48.7422V48.8359H313.781L312.57 47.6484L311.367 48.8359H309.734V48.7266L311.969 46.5781H313.172ZM311.438 62.8203C311.438 62.5339 311.542 62.2943 311.75 62.1016C311.964 61.9089 312.25 61.8125 312.609 61.8125C312.969 61.8125 313.253 61.9089 313.461 62.1016C313.674 62.2943 313.781 62.5339 313.781 62.8203C313.781 63.1016 313.674 63.3359 313.461 63.5234C313.253 63.7161 312.969 63.8125 312.609 63.8125C312.25 63.8125 311.964 63.7161 311.75 63.5234C311.542 63.3359 311.438 63.1016 311.438 62.8203ZM322.875 49.625V61H320.734V49.625H322.875ZM326.406 49.625V51.3203H317.242V49.625H326.406Z" fill="#407BFF"/>
<g opacity="0.1">
<path d="M281.888 13.8024L249.324 135.773L248.958 137.151L248.369 139.355L248.003 140.733L231 204.42V127.336L262.864 7.99951H263.899C264.75 7.99951 265.53 8.55671 265.849 9.36067L267.107 12.4492C267.425 13.2452 268.205 13.7944 269.057 13.7944H281.888V13.8024Z" fill="white"/>
<path d="M344.206 76.1606V153.237L323.892 229.311L323.398 231.166L320.055 243.711H299.471L302.822 231.174L303.363 229.152L306.054 219.075L306.587 217.061L307.669 213.025L308.203 211.011L309.277 206.983L309.811 204.969L326.742 141.56V141.552L327.53 138.623V138.615L344.206 76.1606Z" fill="white"/>
<path d="M293.127 13.8657L260.769 135.073L260.57 135.797L258.803 142.436L258.604 143.16L231.994 242.851C231.429 242.302 231.086 241.514 231.086 240.63V228.905L253.979 143.16L254.178 142.436L255.946 135.797L256.145 135.073L288.502 13.8657H293.127Z" fill="white"/>
</g>
<path d="M322.579 120.482C322.579 137.317 310.663 151.375 294.806 154.678C292.498 155.156 290.102 155.41 287.65 155.41C285.199 155.41 282.803 155.156 280.494 154.678C264.63 151.375 252.714 137.317 252.714 120.482C252.714 101.187 268.355 85.5454 287.65 85.5454C306.945 85.5454 322.579 101.187 322.579 120.482Z" fill="#407BFF"/>
<path opacity="0.6" d="M305.584 117.577H296.12C295.395 117.577 294.806 118.166 294.806 118.89V154.678C292.498 155.156 290.102 155.41 287.65 155.41C285.198 155.41 282.803 155.156 280.494 154.678V118.89C280.494 118.166 279.905 117.577 279.173 117.577H269.708C268.538 117.577 267.949 116.152 268.777 115.324L286.719 97.39C287.228 96.8726 288.064 96.8726 288.581 97.39L306.515 115.324C307.351 116.152 306.762 117.577 305.584 117.577Z" fill="white"/>
</g>
<defs>
<clipPath id="clip0_2565_17770">
<rect width="398" height="296.598" fill="white"/>
</clipPath>
</defs>
</svg>
