<svg xmlns="http://www.w3.org/2000/svg" width="30" height="28" viewBox="0 0 30 28" fill="none">
    <path fill-rule="evenodd" clip-rule="evenodd" d="M2.73079 8.32155C2.48918 8.32155 2.29329 8.12566 2.29329 7.88405C2.29329 7.64244 2.48918 7.44655 2.73079 7.44655H6.01182C6.25343 7.44655 6.44932 7.64244 6.44932 7.88405C6.44932 8.12566 6.25343 8.32155 6.01182 8.32155H2.73079ZM10.518 18.1051H17.5615H22.248C22.8831 18.1051 23.4747 17.9029 23.9579 17.5463C24.4374 17.1923 24.8034 16.6869 24.9913 16.0778L27.223 8.84234C27.2576 8.75544 27.2766 8.66073 27.2766 8.56152C27.2766 8.14141 26.936 7.80087 26.5159 7.80087H8.99404L8.167 4.37497C8.07764 4.0048 7.87158 3.69264 7.59218 3.47263C7.31136 3.25147 6.95966 3.12378 6.58068 3.12378H4.84309C4.42298 3.12378 4.08245 3.46432 4.08245 3.88443C4.08245 4.30454 4.42298 4.64508 4.84309 4.64508H6.58063C6.61043 4.64508 6.63553 4.65312 6.6532 4.66706C6.67234 4.68215 6.68666 4.70441 6.69323 4.73148L9.59199 16.7393C9.18069 16.8819 8.81166 17.1165 8.51 17.4182C7.99523 17.9329 7.67563 18.6437 7.67563 19.4262C7.67563 20.2086 7.99517 20.9194 8.51 21.4342C8.99519 21.9194 9.65445 22.231 10.3836 22.2653C10.3817 22.3057 10.3806 22.3463 10.3806 22.3871C10.3806 23.762 11.4952 24.8764 12.8701 24.8764C14.2449 24.8764 15.3594 23.7619 15.3594 22.3871C15.3594 22.3473 15.3584 22.3078 15.3566 22.2686H19.5941C19.5922 22.3079 19.5912 22.3474 19.5912 22.3871C19.5912 23.762 20.7058 24.8764 22.0807 24.8764C23.4555 24.8764 24.5701 23.7619 24.5701 22.3871C24.5701 21.0122 23.4555 19.8976 22.0807 19.8976C21.3339 19.8976 20.664 20.2265 20.2078 20.7472H14.743C14.2868 20.2265 13.6169 19.8976 12.8701 19.8976C12.1234 19.8976 11.4535 20.2265 10.9972 20.7472H10.518C10.1555 20.7472 9.8254 20.5984 9.5856 20.3586C9.34579 20.1188 9.19699 19.7886 9.19699 19.4262C9.19699 19.0637 9.34585 18.7336 9.5856 18.4938C9.82545 18.254 10.1555 18.1051 10.518 18.1051ZM9.94566 11.3687C9.91542 11.3687 9.88605 11.3723 9.85788 11.3791L9.36132 9.32217H13.4797V11.3687H9.94566ZM11.1143 16.5839L10.6203 14.5374H13.4797V16.5839H11.1143ZM13.4797 13.7892H10.528C10.4984 13.7892 10.4697 13.7927 10.4421 13.7992L10.036 12.1169H13.4798L13.4797 13.7892ZM14.2279 11.3687V9.32217H16.9692V11.3687H14.2279ZM14.2279 13.7892V12.1169H16.9692V13.7892H14.2279ZM17.7174 11.3687V9.32217H20.4587V11.3687H17.7174ZM17.7174 13.7892V12.1169H20.4587V13.7892H17.7174ZM21.2069 11.3687V9.32217H25.4876L24.8512 11.3852C24.8163 11.3744 24.7793 11.3687 24.7409 11.3687H21.2069ZM14.2279 16.5839V14.5374H16.9692V16.5839H14.2279ZM21.2069 13.7892V12.1169H24.6256L24.1046 13.8058C24.0698 13.7951 24.0327 13.7892 23.9943 13.7892H21.2069ZM17.7174 16.5839V14.5374H20.4587V16.5839H17.7174ZM21.2069 16.5839V14.5374H23.879L23.5414 15.6321C23.4517 15.9227 23.2793 16.1622 23.0546 16.3281C22.8335 16.4913 22.5547 16.5839 22.248 16.5839L21.2069 16.5839ZM21.0671 22.3871C21.0671 21.8273 21.5209 21.3735 22.0807 21.3735C22.6404 21.3735 23.0942 21.8273 23.0942 22.3871C23.0942 22.9469 22.6404 23.4006 22.0807 23.4006C21.5209 23.4006 21.0671 22.9469 21.0671 22.3871ZM12.8701 21.3735C13.4299 21.3735 13.8837 21.8273 13.8837 22.3871C13.8837 22.9469 13.4299 23.4006 12.8701 23.4006C12.3103 23.4006 11.8565 22.9469 11.8565 22.3871C11.8565 21.8273 12.3103 21.3735 12.8701 21.3735ZM2.34995 12.9025C2.10834 12.9025 1.91245 12.7066 1.91245 12.465C1.91245 12.2233 2.10834 12.0275 2.34995 12.0275H6.8737C7.1153 12.0275 7.3112 12.2233 7.3112 12.465C7.3112 12.7066 7.1153 12.9025 6.8737 12.9025H2.34995ZM0.496094 10.612C0.254484 10.612 0.0585938 10.4161 0.0585938 10.1745C0.0585938 9.93292 0.254484 9.73703 0.496094 9.73703H4.05652C4.29813 9.73703 4.49402 9.93292 4.49402 10.1745C4.49402 10.4161 4.29813 10.612 4.05652 10.612H0.496094Z" fill="#9DB2CE"/>
</svg>