<svg width="28" height="22" viewBox="0 0 28 22" fill="none" xmlns="http://www.w3.org/2000/svg">
<path fill-rule="evenodd" clip-rule="evenodd" d="M3.06477 5.3218C2.82316 5.3218 2.62727 5.12591 2.62727 4.8843C2.62727 4.64269 2.82316 4.4468 3.06477 4.4468H6.34581C6.58741 4.4468 6.78331 4.64269 6.78331 4.8843C6.78331 5.12591 6.58741 5.3218 6.34581 5.3218H3.06477ZM10.852 15.1054H17.8955H22.582C23.2171 15.1054 23.8087 14.9031 24.2918 14.5465C24.7714 14.1925 25.1374 13.6872 25.3253 13.078L27.557 5.84259C27.5916 5.75569 27.6105 5.66097 27.6105 5.56177C27.6105 5.14166 27.27 4.80112 26.8499 4.80112H9.32802L8.50099 1.37522C8.41163 1.00504 8.20556 0.692883 7.92616 0.472875C7.64534 0.251719 7.29365 0.124023 6.91466 0.124023H5.17708C4.75697 0.124023 4.41643 0.464563 4.41643 0.884672C4.41643 1.30478 4.75697 1.64532 5.17708 1.64532H6.91461C6.94441 1.64532 6.96952 1.65336 6.98718 1.6673C7.00632 1.6824 7.02065 1.70466 7.02721 1.73173L9.92598 13.7396C9.51467 13.8821 9.14564 14.1167 8.84399 14.4184C8.32921 14.9332 8.00962 15.644 8.00962 16.4264C8.00962 17.2088 8.32916 17.9196 8.84399 18.4344C9.32917 18.9196 9.98843 19.2313 10.7176 19.2656C10.7157 19.3059 10.7146 19.3465 10.7146 19.3873C10.7146 20.7622 11.8292 21.8767 13.2041 21.8767C14.5789 21.8767 15.6934 20.7622 15.6934 19.3873C15.6934 19.3476 15.6924 19.3081 15.6906 19.2688H19.928C19.9262 19.3081 19.9252 19.3476 19.9252 19.3873C19.9252 20.7622 21.0397 21.8767 22.4146 21.8767C23.7895 21.8767 24.9041 20.7622 24.9041 19.3873C24.9041 18.0125 23.7895 16.8979 22.4146 16.8979C21.6679 16.8979 20.998 17.2268 20.5418 17.7475H15.077C14.6207 17.2268 13.9509 16.8979 13.2041 16.8979C12.4574 16.8979 11.7875 17.2268 11.3312 17.7475H10.852C10.4895 17.7475 10.1594 17.5986 9.91958 17.3588C9.67977 17.119 9.53097 16.7889 9.53097 16.4264C9.53097 16.0639 9.67983 15.7338 9.91958 15.494C10.1594 15.2543 10.4895 15.1054 10.852 15.1054ZM10.2796 8.36893C10.2494 8.36893 10.22 8.37254 10.1919 8.37932L9.69531 6.32242H13.8137V8.36893H10.2796ZM11.4483 13.5841L10.9543 11.5376H13.8137V13.5841H11.4483ZM13.8137 10.7895H10.862C10.8324 10.7895 10.8037 10.7929 10.7761 10.7994L10.37 9.11711H13.8138L13.8137 10.7895ZM14.5619 8.36893V6.32242H17.3032V8.36893H14.5619ZM14.5619 10.7895V9.11711H17.3032V10.7895H14.5619ZM18.0514 8.36893V6.32242H20.7927V8.36893H18.0514ZM18.0514 10.7895V9.11711H20.7927V10.7895H18.0514ZM21.5409 8.36893V6.32242H25.8216L25.1852 8.38545C25.1503 8.37467 25.1133 8.36893 25.0749 8.36893H21.5409ZM14.5619 13.5841V11.5376H17.3032V13.5841H14.5619ZM21.5409 10.7895V9.11711H24.9596L24.4386 10.806C24.4038 10.7953 24.3667 10.7895 24.3283 10.7895H21.5409ZM18.0514 13.5841V11.5376H20.7927V13.5841H18.0514ZM21.5409 13.5841V11.5376H24.213L23.8753 12.6323C23.7857 12.923 23.6133 13.1624 23.3886 13.3283C23.1675 13.4916 22.8887 13.5842 22.582 13.5842H21.5409V13.5841ZM21.4011 19.3873C21.4011 18.8275 21.8549 18.3737 22.4146 18.3737C22.9744 18.3737 23.4282 18.8275 23.4282 19.3873C23.4282 19.9471 22.9744 20.4009 22.4146 20.4009C21.8549 20.4009 21.4011 19.9471 21.4011 19.3873ZM13.2041 18.3737C13.7639 18.3737 14.2177 18.8275 14.2177 19.3873C14.2177 19.9471 13.7639 20.4009 13.2041 20.4009C12.6443 20.4009 12.1905 19.9471 12.1905 19.3873C12.1905 18.8275 12.6443 18.3737 13.2041 18.3737ZM2.68393 9.9027C2.44232 9.9027 2.24643 9.70681 2.24643 9.4652C2.24643 9.22359 2.44232 9.0277 2.68393 9.0277H7.20768C7.44929 9.0277 7.64518 9.22359 7.64518 9.4652C7.64518 9.70681 7.44929 9.9027 7.20768 9.9027H2.68393ZM0.830078 7.61228C0.588469 7.61228 0.392578 7.41638 0.392578 7.17478C0.392578 6.93317 0.588469 6.73727 0.830078 6.73727H4.39051C4.63212 6.73727 4.82801 6.93317 4.82801 7.17478C4.82801 7.41638 4.63212 7.61228 4.39051 7.61228H0.830078Z" fill="#9DB2CE"/>
</svg>
