<svg width="30" height="28" viewBox="0 0 30 28" fill="none" xmlns="http://www.w3.org/2000/svg">
<g id="flaticon_5465858 2">
<path id="Vector" fill-rule="evenodd" clip-rule="evenodd" d="M2.73079 8.9048C2.48918 8.9048 2.29329 8.70891 2.29329 8.4673C2.29329 8.2257 2.48918 8.0298 2.73079 8.0298H6.01182C6.25343 8.0298 6.44932 8.2257 6.44932 8.4673C6.44932 8.70891 6.25343 8.9048 6.01182 8.9048H2.73079ZM10.518 18.6884H17.5615H22.248C22.8831 18.6884 23.4747 18.4861 23.9579 18.1295C24.4374 17.7756 24.8034 17.2702 24.9913 16.661L27.223 9.42559C27.2576 9.3387 27.2766 9.24398 27.2766 9.14477C27.2766 8.72466 26.936 8.38413 26.5159 8.38413H8.99404L8.167 4.95823C8.07764 4.58805 7.87158 4.27589 7.59218 4.05588C7.31136 3.83473 6.95966 3.70703 6.58068 3.70703H4.84309C4.42298 3.70703 4.08245 4.04757 4.08245 4.46768C4.08245 4.88779 4.42298 5.22833 4.84309 5.22833H6.58063C6.61043 5.22833 6.63553 5.23637 6.6532 5.25031C6.67234 5.26541 6.68666 5.28766 6.69323 5.31473L9.59199 17.3226C9.18069 17.4651 8.81166 17.6997 8.51 18.0014C7.99523 18.5162 7.67563 19.227 7.67563 20.0094C7.67563 20.7918 7.99517 21.5026 8.51 22.0174C8.99519 22.5026 9.65445 22.8143 10.3836 22.8486C10.3817 22.8889 10.3806 22.9295 10.3806 22.9703C10.3806 24.3452 11.4952 25.4597 12.8701 25.4597C14.2449 25.4597 15.3594 24.3452 15.3594 22.9703C15.3594 22.9306 15.3584 22.8911 15.3566 22.8518H19.5941C19.5922 22.8911 19.5912 22.9306 19.5912 22.9703C19.5912 24.3452 20.7058 25.4597 22.0807 25.4597C23.4555 25.4597 24.5701 24.3452 24.5701 22.9703C24.5701 21.5955 23.4555 20.4809 22.0807 20.4809C21.3339 20.4809 20.664 20.8098 20.2078 21.3305H14.743C14.2868 20.8098 13.6169 20.4809 12.8701 20.4809C12.1234 20.4809 11.4535 20.8098 10.9972 21.3305H10.518C10.1555 21.3305 9.8254 21.1816 9.5856 20.9419C9.34579 20.702 9.19699 20.3719 9.19699 20.0094C9.19699 19.6469 9.34585 19.3168 9.5856 19.077C9.82545 18.8373 10.1555 18.6884 10.518 18.6884ZM21.0671 22.9703C21.0671 22.4105 21.5209 21.9567 22.0807 21.9567C22.6404 21.9567 23.0942 22.4105 23.0942 22.9703C23.0942 23.5301 22.6404 23.9839 22.0807 23.9839C21.5209 23.9839 21.0671 23.5301 21.0671 22.9703ZM12.8701 21.9567C13.4299 21.9567 13.8837 22.4105 13.8837 22.9703C13.8837 23.5301 13.4299 23.9839 12.8701 23.9839C12.3103 23.9839 11.8565 23.5301 11.8565 22.9703C11.8565 22.4105 12.3103 21.9567 12.8701 21.9567ZM2.34995 13.4857C2.10834 13.4857 1.91245 13.2898 1.91245 13.0482C1.91245 12.8066 2.10834 12.6107 2.34995 12.6107H6.8737C7.1153 12.6107 7.3112 12.8066 7.3112 13.0482C7.3112 13.2898 7.1153 13.4857 6.8737 13.4857H2.34995ZM0.496094 11.1953C0.254484 11.1953 0.0585938 10.9994 0.0585938 10.7578C0.0585938 10.5162 0.254484 10.3203 0.496094 10.3203H4.05652C4.29813 10.3203 4.49402 10.5162 4.49402 10.7578C4.49402 10.9994 4.29813 11.1953 4.05652 11.1953H0.496094Z" fill="#006AF5"/>
</g>
</svg>
