<svg width="28" height="23" viewBox="0 0 28 23" fill="none" xmlns="http://www.w3.org/2000/svg">
<path fill-rule="evenodd" clip-rule="evenodd" d="M2.73079 5.9048C2.48918 5.9048 2.29329 5.70891 2.29329 5.4673C2.29329 5.2257 2.48918 5.0298 2.73079 5.0298H6.01182C6.25343 5.0298 6.44932 5.2257 6.44932 5.4673C6.44932 5.70891 6.25343 5.9048 6.01182 5.9048H2.73079ZM10.518 15.6884H17.5615H22.248C22.8831 15.6884 23.4747 15.4861 23.9579 15.1295C24.4374 14.7756 24.8034 14.2702 24.9913 13.661L27.223 6.42559C27.2576 6.3387 27.2766 6.24398 27.2766 6.14477C27.2766 5.72466 26.936 5.38413 26.5159 5.38413H8.99404L8.167 1.95823C8.07764 1.58805 7.87158 1.27589 7.59218 1.05588C7.31136 0.834727 6.95966 0.707031 6.58068 0.707031H4.84309C4.42298 0.707031 4.08245 1.04757 4.08245 1.46768C4.08245 1.88779 4.42298 2.22833 4.84309 2.22833H6.58063C6.61043 2.22833 6.63553 2.23637 6.6532 2.25031C6.67234 2.26541 6.68666 2.28766 6.69323 2.31473L9.59199 14.3226C9.18069 14.4651 8.81166 14.6997 8.51 15.0014C7.99523 15.5162 7.67563 16.227 7.67563 17.0094C7.67563 17.7918 7.99517 18.5026 8.51 19.0174C8.99519 19.5026 9.65445 19.8143 10.3836 19.8486C10.3817 19.8889 10.3806 19.9295 10.3806 19.9703C10.3806 21.3452 11.4952 22.4597 12.8701 22.4597C14.2449 22.4597 15.3594 21.3452 15.3594 19.9703C15.3594 19.9306 15.3584 19.8911 15.3566 19.8518H19.5941C19.5922 19.8911 19.5912 19.9306 19.5912 19.9703C19.5912 21.3452 20.7058 22.4597 22.0807 22.4597C23.4555 22.4597 24.5701 21.3452 24.5701 19.9703C24.5701 18.5955 23.4555 17.4809 22.0807 17.4809C21.3339 17.4809 20.664 17.8098 20.2078 18.3305H14.743C14.2868 17.8098 13.6169 17.4809 12.8701 17.4809C12.1234 17.4809 11.4535 17.8098 10.9972 18.3305H10.518C10.1555 18.3305 9.8254 18.1816 9.5856 17.9419C9.34579 17.702 9.19699 17.3719 9.19699 17.0094C9.19699 16.6469 9.34585 16.3168 9.5856 16.077C9.82545 15.8373 10.1555 15.6884 10.518 15.6884ZM21.0671 19.9703C21.0671 19.4105 21.5209 18.9567 22.0807 18.9567C22.6404 18.9567 23.0942 19.4105 23.0942 19.9703C23.0942 20.5301 22.6404 20.9839 22.0807 20.9839C21.5209 20.9839 21.0671 20.5301 21.0671 19.9703ZM12.8701 18.9567C13.4299 18.9567 13.8837 19.4105 13.8837 19.9703C13.8837 20.5301 13.4299 20.9839 12.8701 20.9839C12.3103 20.9839 11.8565 20.5301 11.8565 19.9703C11.8565 19.4105 12.3103 18.9567 12.8701 18.9567ZM2.34995 10.4857C2.10834 10.4857 1.91245 10.2898 1.91245 10.0482C1.91245 9.80659 2.10834 9.6107 2.34995 9.6107H6.8737C7.1153 9.6107 7.3112 9.80659 7.3112 10.0482C7.3112 10.2898 7.1153 10.4857 6.8737 10.4857H2.34995ZM0.496094 8.19528C0.254484 8.19528 0.0585938 7.99939 0.0585938 7.75778C0.0585938 7.51617 0.254484 7.32028 0.496094 7.32028H4.05652C4.29813 7.32028 4.49402 7.51617 4.49402 7.75778C4.49402 7.99939 4.29813 8.19528 4.05652 8.19528H0.496094Z" fill="#006AF5"/>
</svg>
