<svg width="28" height="23" viewBox="0 0 28 23" fill="none" xmlns="http://www.w3.org/2000/svg">
<path fill-rule="evenodd" clip-rule="evenodd" d="M3.06477 5.9048C2.82316 5.9048 2.62727 5.70891 2.62727 5.4673C2.62727 5.2257 2.82316 5.0298 3.06477 5.0298H6.34581C6.58741 5.0298 6.78331 5.2257 6.78331 5.4673C6.78331 5.70891 6.58741 5.9048 6.34581 5.9048H3.06477ZM10.852 15.6884H17.8955H22.582C23.2171 15.6884 23.8087 15.4861 24.2918 15.1295C24.7714 14.7756 25.1374 14.2702 25.3253 13.661L27.557 6.42559C27.5916 6.3387 27.6105 6.24398 27.6105 6.14477C27.6105 5.72466 27.27 5.38413 26.8499 5.38413H9.32802L8.50099 1.95823C8.41163 1.58805 8.20556 1.27589 7.92616 1.05588C7.64534 0.834727 7.29365 0.707031 6.91466 0.707031H5.17708C4.75697 0.707031 4.41643 1.04757 4.41643 1.46768C4.41643 1.88779 4.75697 2.22833 5.17708 2.22833H6.91461C6.94441 2.22833 6.96952 2.23637 6.98718 2.25031C7.00632 2.26541 7.02065 2.28766 7.02721 2.31473L9.92598 14.3226C9.51467 14.4651 9.14564 14.6997 8.84399 15.0014C8.32921 15.5162 8.00962 16.227 8.00962 17.0094C8.00962 17.7918 8.32916 18.5026 8.84399 19.0174C9.32917 19.5026 9.98843 19.8143 10.7176 19.8486C10.7157 19.8889 10.7146 19.9295 10.7146 19.9703C10.7146 21.3452 11.8292 22.4597 13.2041 22.4597C14.5789 22.4597 15.6934 21.3452 15.6934 19.9703C15.6934 19.9306 15.6924 19.8911 15.6906 19.8518H19.928C19.9262 19.8911 19.9252 19.9306 19.9252 19.9703C19.9252 21.3452 21.0397 22.4597 22.4146 22.4597C23.7895 22.4597 24.9041 21.3452 24.9041 19.9703C24.9041 18.5955 23.7895 17.4809 22.4146 17.4809C21.6679 17.4809 20.998 17.8098 20.5418 18.3305H15.077C14.6207 17.8098 13.9509 17.4809 13.2041 17.4809C12.4574 17.4809 11.7875 17.8098 11.3312 18.3305H10.852C10.4895 18.3305 10.1594 18.1816 9.91958 17.9419C9.67977 17.702 9.53097 17.3719 9.53097 17.0094C9.53097 16.6469 9.67983 16.3168 9.91958 16.077C10.1594 15.8373 10.4895 15.6884 10.852 15.6884ZM21.4011 19.9703C21.4011 19.4105 21.8549 18.9567 22.4146 18.9567C22.9744 18.9567 23.4282 19.4105 23.4282 19.9703C23.4282 20.5301 22.9744 20.9839 22.4146 20.9839C21.8549 20.9839 21.4011 20.5301 21.4011 19.9703ZM13.2041 18.9567C13.7639 18.9567 14.2177 19.4105 14.2177 19.9703C14.2177 20.5301 13.7639 20.9839 13.2041 20.9839C12.6443 20.9839 12.1905 20.5301 12.1905 19.9703C12.1905 19.4105 12.6443 18.9567 13.2041 18.9567ZM2.68393 10.4857C2.44232 10.4857 2.24643 10.2898 2.24643 10.0482C2.24643 9.80659 2.44232 9.6107 2.68393 9.6107H7.20768C7.44929 9.6107 7.64518 9.80659 7.64518 10.0482C7.64518 10.2898 7.44929 10.4857 7.20768 10.4857H2.68393ZM0.830078 8.19528C0.588469 8.19528 0.392578 7.99939 0.392578 7.75778C0.392578 7.51617 0.588469 7.32028 0.830078 7.32028H4.39051C4.63212 7.32028 4.82801 7.51617 4.82801 7.75778C4.82801 7.99939 4.63212 8.19528 4.39051 8.19528H0.830078Z" fill="#006AF5"/>
</svg>
